<svg width="65" height="62" viewBox="0 0 65 62" fill="none" xmlns="http://www.w3.org/2000/svg">
<path d="M53 16.5V15C53 11.6863 50.3137 9 47 9H32C28.6863 9 26 11.6863 26 15V46C26 49.3137 28.6863 52 32 52H47C50.3137 52 53 49.3137 53 46V44" stroke="#FFCA28" stroke-width="4" stroke-linecap="round"/>
<path d="M0 48.7978V11.4188C0 8.55874 2.01876 6.09625 4.8233 5.53534L25.3233 1.43534C29.0361 0.692789 32.5 3.53255 32.5 7.31882V53.844C32.5 57.7384 28.8475 60.6009 25.0659 59.6701L4.56589 54.6239C1.88461 53.9639 0 51.5591 0 48.7978Z" fill="#FFCA28"/>
<path fill-rule="evenodd" clip-rule="evenodd" d="M0 28V48.7979C0 51.5596 1.88477 53.9639 4.56543 54.624L25.0654 59.6699C28.8477 60.6006 32.5 57.7383 32.5 53.8438V28H0Z" fill="#FFB300"/>
<path fill-rule="evenodd" clip-rule="evenodd" d="M24 28V46C24 50.418 27.582 54 32 54H47C51.418 54 55 50.418 55 46V44C55 42.8955 54.1045 42 53 42C51.8955 42 51 42.8955 51 44V46C51 48.209 49.209 50 47 50H32C29.791 50 28 48.209 28 46V28H24Z" fill="#FFB300"/>
<rect x="35" y="23.3838" width="17" height="14" rx="5" fill="#0288D1"/>
<path d="M61.5642 28.4831C62.8864 29.2718 62.859 31.1961 61.5149 31.9469L46.5981 40.2786C45.254 41.0294 43.6012 40.0435 43.6231 38.5041L43.866 21.4199C43.8879 19.8805 45.568 18.942 46.8903 19.7307L61.5642 28.4831Z" fill="#0288D1"/>
<path fill-rule="evenodd" clip-rule="evenodd" d="M62.5315 30.3838C62.4758 31.0039 62.1359 31.6006 61.5149 31.9473L46.5979 40.2783C45.2541 41.0293 43.6018 40.0439 43.6233 38.5039L43.7385 30.3838H62.5315Z" fill="#0277BD"/>
<path fill-rule="evenodd" clip-rule="evenodd" d="M52 30.3838V32.3838C52 35.1455 49.7617 37.3838 47 37.3838H40C37.2383 37.3838 35 35.1455 35 32.3838V30.3838H52Z" fill="#0277BD"/>
</svg>
