<svg width="15" height="14" viewBox="0 0 15 14" fill="none" xmlns="http://www.w3.org/2000/svg">
<path fill-rule="evenodd" clip-rule="evenodd" d="M6.86295 0.0741705C7.02365 -0.0247235 7.22635 -0.0247235 7.38705 0.0741705L13.887 4.07417C14.0349 4.16517 14.125 4.32637 14.125 4.5C14.125 4.52422 14.1232 4.54819 14.1198 4.57176C14.1232 4.60079 14.125 4.63033 14.125 4.66028V8.25C14.125 8.66421 13.7892 9 13.375 9C12.9608 9 12.625 8.66421 12.625 8.25V5.70247L7.38705 8.92583C7.22635 9.0247 7.02365 9.0247 6.86295 8.92583L0.36295 4.92583C0.21508 4.83483 0.125 4.67363 0.125 4.5C0.125 4.32637 0.21508 4.16517 0.36295 4.07417L6.86295 0.0741705ZM3.33626 8.05243C3.46632 7.97532 3.62414 7.98377 3.74688 8.07441L6.625 10C6.75936 10.0992 7.49064 10.0992 7.625 10L10.5031 8.07441C10.6259 7.98377 10.7837 7.97532 10.9137 8.05243C11.0438 8.12953 11.125 8.27966 11.125 8.44306V10.8799C11.125 10.9374 11.1149 10.9944 11.0952 11.0477C9.6414 14.9841 4.60864 14.9841 3.15478 11.0477C3.13512 10.9944 3.125 10.9374 3.125 10.8799V8.44306C3.125 8.27966 3.20619 8.12953 3.33626 8.05243Z" fill="#FF9F12"/>
</svg>
