<svg width="50" height="14" viewBox="0 0 50 14" fill="none" xmlns="http://www.w3.org/2000/svg">
<path d="M0 5.8457C0 5.29342 0.447715 4.8457 1 4.8457C1.55228 4.8457 2 5.29342 2 5.8457V8.69186C2 9.24414 1.55228 9.69186 1 9.69186C0.447715 9.69186 0 9.24414 0 8.69186V5.8457Z" fill="#EBDCFF"/>
<path d="M6 4.77148C6 4.2192 6.44772 3.77148 7 3.77148C7.55228 3.77148 8 4.2192 8 4.77148V9.77148C8 10.3238 7.55228 10.7715 7 10.7715C6.44772 10.7715 6 10.3238 6 9.77148V4.77148Z" fill="#EBDCFF"/>
<path d="M12 2.07617C12 1.52389 12.4477 1.07617 13 1.07617C13.5523 1.07617 14 1.52389 14 2.07617V12.4608C14 13.0131 13.5523 13.4608 13 13.4608C12.4477 13.4608 12 13.0131 12 12.4608V2.07617Z" fill="#EBDCFF"/>
<path d="M18 3.69141C18 3.13912 18.4477 2.69141 19 2.69141C19.5523 2.69141 20 3.13912 20 3.69141V10.8453C20 11.3975 19.5523 11.8453 19 11.8453C18.4477 11.8453 18 11.3975 18 10.8453V3.69141Z" fill="#EBDCFF"/>
<path d="M24 3.1543C24 2.60201 24.4477 2.1543 25 2.1543C25.5523 2.1543 26 2.60201 26 3.1543V11.3851C26 11.9374 25.5523 12.3851 25 12.3851C24.4477 12.3851 24 11.9374 24 11.3851V3.1543Z" fill="#EBDCFF"/>
<path d="M30 1C30 0.447716 30.4477 0 31 0C31.5523 0 32 0.447715 32 1V13C32 13.5523 31.5523 14 31 14C30.4477 14 30 13.5523 30 13V1Z" fill="#EBDCFF"/>
<path d="M36 3.69141C36 3.13912 36.4477 2.69141 37 2.69141C37.5523 2.69141 38 3.13912 38 3.69141V10.8453C38 11.3975 37.5523 11.8453 37 11.8453C36.4477 11.8453 36 11.3975 36 10.8453V3.69141Z" fill="#EBDCFF"/>
<path d="M42 5.8457C42 5.29342 42.4477 4.8457 43 4.8457C43.5523 4.8457 44 5.29342 44 5.8457V8.69186C44 9.24414 43.5523 9.69186 43 9.69186C42.4477 9.69186 42 9.24414 42 8.69186V5.8457Z" fill="#EBDCFF"/>
<path d="M48 4.77148C48 4.2192 48.4477 3.77148 49 3.77148C49.5523 3.77148 50 4.2192 50 4.77148V9.77148C50 10.3238 49.5523 10.7715 49 10.7715C48.4477 10.7715 48 10.3238 48 9.77148V4.77148Z" fill="#EBDCFF"/>
</svg>
