<svg width="20" height="21" viewBox="0 0 20 21" fill="none" xmlns="http://www.w3.org/2000/svg">
<path d="M13.9584 3.46699V2.16699C13.9584 1.82533 13.6751 1.54199 13.3334 1.54199C12.9918 1.54199 12.7084 1.82533 12.7084 2.16699V3.41699H7.29178V2.16699C7.29178 1.82533 7.00844 1.54199 6.66678 1.54199C6.32511 1.54199 6.04178 1.82533 6.04178 2.16699V3.46699C3.79178 3.67532 2.70011 5.01699 2.53344 7.00866C2.51678 7.25032 2.71678 7.45032 2.95011 7.45032H17.0501C17.2918 7.45032 17.4918 7.24199 17.4668 7.00866C17.3001 5.01699 16.2084 3.67532 13.9584 3.46699Z" fill="#8338EC"/>
<path opacity="0.4" d="M16.6667 8.7002C17.125 8.7002 17.5 9.0752 17.5 9.53353V14.6669C17.5 17.1669 16.25 18.8335 13.3333 18.8335H6.66667C3.75 18.8335 2.5 17.1669 2.5 14.6669V9.53353C2.5 9.0752 2.875 8.7002 3.33333 8.7002H16.6667Z" fill="#8338EC"/>
<path d="M7.08333 12.9997C6.86667 12.9997 6.65 12.9081 6.49167 12.7581C6.34167 12.5997 6.25 12.3831 6.25 12.1664C6.25 11.9497 6.34167 11.7331 6.49167 11.5747C6.725 11.3414 7.09167 11.2664 7.4 11.3997C7.50833 11.4414 7.6 11.4997 7.675 11.5747C7.825 11.7331 7.91667 11.9497 7.91667 12.1664C7.91667 12.3831 7.825 12.5997 7.675 12.7581C7.51667 12.9081 7.3 12.9997 7.08333 12.9997Z" fill="#8338EC"/>
<path d="M10.0001 12.9997C9.78341 12.9997 9.56675 12.9081 9.40842 12.7581C9.25842 12.5997 9.16675 12.3831 9.16675 12.1664C9.16675 11.9497 9.25842 11.7331 9.40842 11.5747C9.48342 11.4997 9.57508 11.4414 9.68341 11.3997C9.99175 11.2664 10.3584 11.3414 10.5917 11.5747C10.7417 11.7331 10.8334 11.9497 10.8334 12.1664C10.8334 12.3831 10.7417 12.5997 10.5917 12.7581C10.5501 12.7914 10.5084 12.8247 10.4667 12.8581C10.4167 12.8914 10.3667 12.9164 10.3167 12.9331C10.2667 12.9581 10.2167 12.9747 10.1667 12.9831C10.1084 12.9914 10.0584 12.9997 10.0001 12.9997Z" fill="#8338EC"/>
<path d="M12.9166 12.9997C12.6999 12.9997 12.4833 12.908 12.3249 12.758C12.1749 12.5997 12.0833 12.383 12.0833 12.1664C12.0833 11.9497 12.1749 11.733 12.3249 11.5747C12.4083 11.4997 12.4916 11.4413 12.5999 11.3997C12.7499 11.333 12.9166 11.3163 13.0833 11.3497C13.1333 11.358 13.1833 11.3747 13.2333 11.3997C13.2833 11.4163 13.3333 11.4414 13.3833 11.4747C13.4249 11.508 13.4666 11.5414 13.5083 11.5747C13.6583 11.733 13.7499 11.9497 13.7499 12.1664C13.7499 12.383 13.6583 12.5997 13.5083 12.758C13.4666 12.7913 13.4249 12.8247 13.3833 12.858C13.3333 12.8913 13.2833 12.9164 13.2333 12.933C13.1833 12.958 13.1333 12.9747 13.0833 12.983C13.0249 12.9914 12.9666 12.9997 12.9166 12.9997Z" fill="#8338EC"/>
<path d="M7.08333 15.9167C6.975 15.9167 6.86667 15.8917 6.76667 15.85C6.65833 15.8084 6.575 15.75 6.49167 15.675C6.34167 15.5167 6.25 15.3 6.25 15.0833C6.25 14.8667 6.34167 14.65 6.49167 14.4917C6.575 14.4167 6.65833 14.3583 6.76667 14.3167C6.91667 14.25 7.08333 14.2333 7.25 14.2667C7.3 14.275 7.35 14.2917 7.4 14.3167C7.45 14.3333 7.5 14.3584 7.55 14.3917C7.59167 14.425 7.63333 14.4584 7.675 14.4917C7.825 14.65 7.91667 14.8667 7.91667 15.0833C7.91667 15.3 7.825 15.5167 7.675 15.675C7.63333 15.7083 7.59167 15.75 7.55 15.775C7.5 15.8083 7.45 15.8334 7.4 15.85C7.35 15.875 7.3 15.8917 7.25 15.9C7.19167 15.9084 7.14167 15.9167 7.08333 15.9167Z" fill="#8338EC"/>
<path d="M10.0001 15.917C9.78341 15.917 9.56675 15.8253 9.40842 15.6753C9.25842 15.517 9.16675 15.3003 9.16675 15.0837C9.16675 14.867 9.25842 14.6503 9.40842 14.492C9.71675 14.1837 10.2834 14.1837 10.5917 14.492C10.7417 14.6503 10.8334 14.867 10.8334 15.0837C10.8334 15.3003 10.7417 15.517 10.5917 15.6753C10.4334 15.8253 10.2167 15.917 10.0001 15.917Z" fill="#8338EC"/>
<path d="M12.9166 15.917C12.6999 15.917 12.4833 15.8253 12.3249 15.6753C12.1749 15.517 12.0833 15.3003 12.0833 15.0837C12.0833 14.867 12.1749 14.6503 12.3249 14.492C12.6333 14.1837 13.1999 14.1837 13.5083 14.492C13.6583 14.6503 13.7499 14.867 13.7499 15.0837C13.7499 15.3003 13.6583 15.517 13.5083 15.6753C13.3499 15.8253 13.1333 15.917 12.9166 15.917Z" fill="#8338EC"/>
</svg>
