<svg width="22" height="22" viewBox="0 0 22 22" fill="none" xmlns="http://www.w3.org/2000/svg">
<path fill-rule="evenodd" clip-rule="evenodd" d="M6.19961 0.599609C6.64143 0.599609 6.99961 0.957785 6.99961 1.39961V2.19961H14.9996V1.39961C14.9996 0.957785 15.3578 0.599609 15.7996 0.599609C16.2414 0.599609 16.5996 0.957785 16.5996 1.39961V2.19961H18.9996C20.325 2.19961 21.3996 3.27412 21.3996 4.59961V18.9996C21.3996 20.325 20.325 21.3996 18.9996 21.3996H2.99961C1.67412 21.3996 0.599609 20.325 0.599609 18.9996V4.59961C0.599609 3.27412 1.67412 2.19961 2.99961 2.19961H5.39961V1.39961C5.39961 0.957785 5.75778 0.599609 6.19961 0.599609ZM14.9996 3.79961V4.59961C14.9996 5.04143 15.3578 5.39961 15.7996 5.39961C16.2414 5.39961 16.5996 5.04143 16.5996 4.59961V3.79961H18.9996C19.4414 3.79961 19.7996 4.15779 19.7996 4.59961V6.99961H2.19961V4.59961C2.19961 4.15779 2.55779 3.79961 2.99961 3.79961H5.39961V4.59961C5.39961 5.04143 5.75778 5.39961 6.19961 5.39961C6.64143 5.39961 6.99961 5.04143 6.99961 4.59961V3.79961H14.9996ZM2.19961 8.59961V18.9996C2.19961 19.4414 2.55779 19.7996 2.99961 19.7996H18.9996C19.4414 19.7996 19.7996 19.4414 19.7996 18.9996V8.59961H2.19961ZM10.1996 10.9996C10.1996 10.5578 10.5578 10.1996 10.9996 10.1996C11.4414 10.1996 11.7996 10.5578 11.7996 10.9996C11.7996 11.4414 11.4414 11.7996 10.9996 11.7996C10.5578 11.7996 10.1996 11.4414 10.1996 10.9996ZM14.1996 10.1996C13.7578 10.1996 13.3996 10.5578 13.3996 10.9996C13.3996 11.4414 13.7578 11.7996 14.1996 11.7996C14.6414 11.7996 14.9996 11.4414 14.9996 10.9996C14.9996 10.5578 14.6414 10.1996 14.1996 10.1996ZM16.5996 10.9996C16.5996 10.5578 16.9578 10.1996 17.3996 10.1996C17.8414 10.1996 18.1996 10.5578 18.1996 10.9996C18.1996 11.4414 17.8414 11.7996 17.3996 11.7996C16.9578 11.7996 16.5996 11.4414 16.5996 10.9996ZM17.3996 13.3996C16.9578 13.3996 16.5996 13.7578 16.5996 14.1996C16.5996 14.6414 16.9578 14.9996 17.3996 14.9996C17.8414 14.9996 18.1996 14.6414 18.1996 14.1996C18.1996 13.7578 17.8414 13.3996 17.3996 13.3996ZM13.3996 14.1996C13.3996 13.7578 13.7578 13.3996 14.1996 13.3996C14.6414 13.3996 14.9996 13.7578 14.9996 14.1996C14.9996 14.6414 14.6414 14.9996 14.1996 14.9996C13.7578 14.9996 13.3996 14.6414 13.3996 14.1996ZM10.9996 13.3996C10.5578 13.3996 10.1996 13.7578 10.1996 14.1996C10.1996 14.6414 10.5578 14.9996 10.9996 14.9996C11.4414 14.9996 11.7996 14.6414 11.7996 14.1996C11.7996 13.7578 11.4414 13.3996 10.9996 13.3996ZM6.99961 14.1996C6.99961 13.7578 7.35778 13.3996 7.79961 13.3996C8.24143 13.3996 8.59961 13.7578 8.59961 14.1996C8.59961 14.6414 8.24143 14.9996 7.79961 14.9996C7.35778 14.9996 6.99961 14.6414 6.99961 14.1996ZM4.59961 13.3996C4.15779 13.3996 3.79961 13.7578 3.79961 14.1996C3.79961 14.6414 4.15779 14.9996 4.59961 14.9996C5.04143 14.9996 5.39961 14.6414 5.39961 14.1996C5.39961 13.7578 5.04143 13.3996 4.59961 13.3996ZM3.79961 17.3996C3.79961 16.9578 4.15779 16.5996 4.59961 16.5996C5.04143 16.5996 5.39961 16.9578 5.39961 17.3996C5.39961 17.8414 5.04143 18.1996 4.59961 18.1996C4.15779 18.1996 3.79961 17.8414 3.79961 17.3996ZM7.79961 16.5996C7.35778 16.5996 6.99961 16.9578 6.99961 17.3996C6.99961 17.8414 7.35778 18.1996 7.79961 18.1996C8.24143 18.1996 8.59961 17.8414 8.59961 17.3996C8.59961 16.9578 8.24143 16.5996 7.79961 16.5996ZM10.1996 17.3996C10.1996 16.9578 10.5578 16.5996 10.9996 16.5996C11.4414 16.5996 11.7996 16.9578 11.7996 17.3996C11.7996 17.8414 11.4414 18.1996 10.9996 18.1996C10.5578 18.1996 10.1996 17.8414 10.1996 17.3996ZM14.1996 16.5996C13.7578 16.5996 13.3996 16.9578 13.3996 17.3996C13.3996 17.8414 13.7578 18.1996 14.1996 18.1996C14.6414 18.1996 14.9996 17.8414 14.9996 17.3996C14.9996 16.9578 14.6414 16.5996 14.1996 16.5996Z" fill="#8338EC"/>
</svg>
