<svg width="64" height="64" viewBox="0 0 64 64" fill="none" xmlns="http://www.w3.org/2000/svg">
<path d="M44.6666 9.49349V5.3335C44.6666 4.24016 43.76 3.3335 42.6666 3.3335C41.5733 3.3335 40.6666 4.24016 40.6666 5.3335V9.3335H23.3333V5.3335C23.3333 4.24016 22.4266 3.3335 21.3333 3.3335C20.24 3.3335 19.3333 4.24016 19.3333 5.3335V9.49349C12.1333 10.1602 8.63996 14.4535 8.10663 20.8268C8.05329 21.6002 8.69329 22.2402 9.43996 22.2402H54.56C55.3333 22.2402 55.9733 21.5735 55.8933 20.8268C55.36 14.4535 51.8666 10.1602 44.6666 9.49349Z" fill="#FF1100"/>
<path opacity="0.4" d="M56 28.9067V33.5467C56 35.1734 54.56 36.4267 52.96 36.1601C52.2133 36.0534 51.44 35.9734 50.6667 35.9734C42.5867 35.9734 36 42.5601 36 50.6401C36 51.8667 36.48 53.5734 36.9867 55.1201C37.5733 56.8534 36.2933 58.6401 34.4533 58.6401H21.3333C12 58.6401 8 53.3067 8 45.3067V28.88C8 27.4134 9.2 26.2134 10.6667 26.2134H53.3333C54.8 26.24 56 27.4401 56 28.9067Z" fill="#FF1100"/>
<path d="M50.6667 40C44.7733 40 40 44.7733 40 50.6667C40 56.56 44.7733 61.3333 50.6667 61.3333C56.56 61.3333 61.3333 56.56 61.3333 50.6667C61.3333 44.7733 56.56 40 50.6667 40ZM54.9333 55.04C54.5333 55.44 54.0267 55.6266 53.52 55.6266C53.0134 55.6266 52.5066 55.44 52.1066 55.04L50.6933 53.6266L49.2267 55.0933C48.8267 55.4933 48.32 55.68 47.8133 55.68C47.3066 55.68 46.8 55.4933 46.4 55.0933C45.6266 54.32 45.6266 53.04 46.4 52.2667L47.8667 50.8L46.4533 49.3866C45.68 48.6133 45.68 47.3333 46.4533 46.56C47.2267 45.7866 48.5067 45.7866 49.28 46.56L50.6933 47.9733L52.0267 46.64C52.8 45.8666 54.08 45.8666 54.8534 46.64C55.6267 47.4133 55.6267 48.6933 54.8534 49.4666L53.52 50.8L54.9333 52.2133C55.7067 53.0133 55.7067 54.2667 54.9333 55.04Z" fill="#FF1100"/>
<path d="M22.6667 40.0003C21.9733 40.0003 21.28 39.7069 20.7733 39.2269C20.2933 38.7202 20 38.0269 20 37.3336C20 36.6403 20.2933 35.9469 20.7733 35.4403C21.3867 34.8269 22.32 34.5336 23.2 34.7202C23.36 34.7469 23.52 34.8002 23.68 34.8802C23.84 34.9336 24 35.0136 24.16 35.1203C24.2933 35.227 24.4267 35.3336 24.56 35.4403C25.04 35.9469 25.3333 36.6403 25.3333 37.3336C25.3333 38.0269 25.04 38.7202 24.56 39.2269C24.4267 39.3336 24.2933 39.4402 24.16 39.5469C24 39.6536 23.84 39.7336 23.68 39.787C23.52 39.867 23.36 39.9203 23.2 39.947C23.0133 39.9736 22.8267 40.0003 22.6667 40.0003Z" fill="#FF1100"/>
<path d="M32.0002 40.0002C31.3068 40.0002 30.6135 39.7068 30.1068 39.2268C29.6268 38.7202 29.3335 38.0268 29.3335 37.3335C29.3335 36.6402 29.6268 35.9469 30.1068 35.4402C31.1202 34.4535 32.9068 34.4535 33.8935 35.4402C34.3735 35.9469 34.6668 36.6402 34.6668 37.3335C34.6668 38.0268 34.3735 38.7202 33.8935 39.2268C33.3868 39.7068 32.6935 40.0002 32.0002 40.0002Z" fill="#FF1100"/>
<path d="M22.6667 49.3333C21.9733 49.3333 21.28 49.04 20.7733 48.56C20.2933 48.0533 20 47.36 20 46.6667C20 45.9733 20.2933 45.28 20.7733 44.7733C21.04 44.5333 21.3067 44.3466 21.6533 44.2133C22.64 43.7866 23.8133 44.0267 24.56 44.7733C25.04 45.28 25.3333 45.9733 25.3333 46.6667C25.3333 47.36 25.04 48.0533 24.56 48.56C24.0533 49.04 23.36 49.3333 22.6667 49.3333Z" fill="#FF1100"/>
</svg>
