<svg width="27" height="24" viewBox="0 0 27 24" fill="none" xmlns="http://www.w3.org/2000/svg">
<path d="M8.30397 6V6.75C8.54894 6.75 8.77847 6.63036 8.91877 6.42955L8.30397 6ZM9.77773 3.8906L9.16292 3.46105V3.46105L9.77773 3.8906ZM17.3102 3.8906L17.925 3.46105L17.3102 3.8906ZM18.784 6L18.1692 6.42955C18.3095 6.63036 18.539 6.75 18.784 6.75V6ZM15.938 13.5C15.938 14.7099 14.8997 15.75 13.544 15.75V17.25C15.661 17.25 17.438 15.6038 17.438 13.5H15.938ZM13.544 15.75C12.1883 15.75 11.15 14.7099 11.15 13.5H9.64997C9.64997 15.6038 11.4269 17.25 13.544 17.25V15.75ZM11.15 13.5C11.15 12.2901 12.1883 11.25 13.544 11.25V9.75C11.4269 9.75 9.64997 11.3962 9.64997 13.5H11.15ZM13.544 11.25C14.8997 11.25 15.938 12.2901 15.938 13.5H17.438C17.438 11.3962 15.661 9.75 13.544 9.75V11.25ZM8.91877 6.42955L10.3925 4.32015L9.16292 3.46105L7.68916 5.57045L8.91877 6.42955ZM11.5217 3.75H15.5662V2.25H11.5217V3.75ZM16.6954 4.32015L18.1692 6.42955L19.3988 5.57045L17.925 3.46105L16.6954 4.32015ZM15.5662 3.75C16.0315 3.75 16.4523 3.97221 16.6954 4.32015L17.925 3.46105C17.3906 2.6962 16.5025 2.25 15.5662 2.25V3.75ZM10.3925 4.32015C10.6356 3.97221 11.0564 3.75 11.5217 3.75V2.25C10.5854 2.25 9.6973 2.6962 9.16292 3.46105L10.3925 4.32015ZM23.274 10V17H24.774V10H23.274ZM19.832 20.25H7.25596V21.75H19.832V20.25ZM3.81396 17V10H2.31396V17H3.81396ZM7.25596 20.25C5.32148 20.25 3.81396 18.7622 3.81396 17H2.31396C2.31396 19.6561 4.5601 21.75 7.25596 21.75V20.25ZM23.274 17C23.274 18.7622 21.7665 20.25 19.832 20.25V21.75C22.5278 21.75 24.774 19.6561 24.774 17H23.274ZM19.832 6.75C21.7665 6.75 23.274 8.23782 23.274 10H24.774C24.774 7.3439 22.5278 5.25 19.832 5.25V6.75ZM7.25597 5.25C4.5601 5.25 2.31396 7.3439 2.31396 10H3.81396C3.81396 8.23782 5.32148 6.75 7.25597 6.75V5.25ZM7.25597 6.75H8.30397V5.25H7.25597V6.75ZM19.832 5.25H18.784V6.75H19.832V5.25Z" fill="#000E08"/>
<ellipse cx="13.5436" cy="6" rx="1.048" ry="1" fill="#000E08"/>
</svg>
