<svg width="16" height="16" viewBox="0 0 16 16" fill="none" xmlns="http://www.w3.org/2000/svg">
<path opacity="0.4" d="M1.3335 8.64683V4.66016C1.3335 2.82016 2.82683 1.3335 4.66683 1.3335H11.3335C13.1735 1.3335 14.6668 2.82016 14.6668 4.66016V9.3135C14.6668 11.1468 13.1735 12.6335 11.3335 12.6335H10.3335C10.1268 12.6335 9.92683 12.7335 9.80016 12.9002L8.80016 14.2268C8.36016 14.8135 7.64016 14.8135 7.20016 14.2268L6.20016 12.9002C6.0935 12.7535 5.8535 12.6335 5.66683 12.6335H4.66683C2.82683 12.6335 1.3335 11.1468 1.3335 9.3135V8.64683Z" fill="#8338EC"/>
<path d="M11.3332 5.8335H4.6665C4.39317 5.8335 4.1665 5.60683 4.1665 5.3335C4.1665 5.06016 4.39317 4.8335 4.6665 4.8335H11.3332C11.6065 4.8335 11.8332 5.06016 11.8332 5.3335C11.8332 5.60683 11.6065 5.8335 11.3332 5.8335Z" fill="#8338EC"/>
<path d="M8.6665 9.1665H4.6665C4.39317 9.1665 4.1665 8.93984 4.1665 8.6665C4.1665 8.39317 4.39317 8.1665 4.6665 8.1665H8.6665C8.93984 8.1665 9.1665 8.39317 9.1665 8.6665C9.1665 8.93984 8.93984 9.1665 8.6665 9.1665Z" fill="#8338EC"/>
</svg>
