<svg width="21" height="19" viewBox="0 0 21 19" fill="none" xmlns="http://www.w3.org/2000/svg">
<path d="M10.875 2.35526C10.875 2.91361 11.0968 3.4491 11.4916 3.84391C11.8864 4.23872 12.4219 4.46053 12.9803 4.46053C13.5386 4.46053 14.0741 4.23872 14.4689 3.84391C14.8637 3.4491 15.0855 2.91361 15.0855 2.35526C15.0855 1.79691 14.8637 1.26143 14.4689 0.866617C14.0741 0.471804 13.5386 0.25 12.9803 0.25C12.4219 0.25 11.8864 0.471804 11.4916 0.866617C11.0968 1.26143 10.875 1.79691 10.875 2.35526Z" fill="white" fill-opacity="0.2"/>
<path fill-rule="evenodd" clip-rule="evenodd" d="M11.1196 1.02077C11.6132 0.527255 12.2825 0.25 12.9805 0.25C13.6784 0.25 14.3477 0.527255 14.8413 1.02077C15.3348 1.51429 15.612 2.18364 15.612 2.88158C15.612 3.57952 15.3348 4.24887 14.8413 4.74239C14.3477 5.2359 13.6784 5.51316 12.9805 5.51316C12.2825 5.51316 11.6132 5.2359 11.1196 4.74239C10.6261 4.24887 10.3489 3.57952 10.3489 2.88158C10.3489 2.18364 10.6261 1.51429 11.1196 1.02077ZM12.9805 1.3041C12.5621 1.3041 12.1608 1.47029 11.865 1.76613C11.5692 2.06196 11.403 2.4632 11.403 2.88158C11.403 3.29995 11.5692 3.70119 11.865 3.99703C12.1608 4.29286 12.5621 4.45906 12.9805 4.45906C13.3988 4.45906 13.8001 4.29286 14.0959 3.99703C14.3917 3.70119 14.5579 3.29995 14.5579 2.88158C14.5579 2.4632 14.3917 2.06196 14.0959 1.76613C13.8001 1.47029 13.3988 1.3041 12.9805 1.3041Z" fill="white"/>
<path d="M15.875 14.8553C15.875 15.1317 15.9295 15.4055 16.0353 15.6609C16.1411 15.9163 16.2961 16.1484 16.4916 16.3439C16.6871 16.5394 16.9192 16.6945 17.1746 16.8003C17.43 16.9061 17.7038 16.9605 17.9803 16.9605C18.2567 16.9605 18.5305 16.9061 18.7859 16.8003C19.0413 16.6945 19.2734 16.5394 19.4689 16.3439C19.6644 16.1484 19.8195 15.9163 19.9253 15.6609C20.0311 15.4055 20.0855 15.1317 20.0855 14.8553C20.0855 14.5788 20.0311 14.305 19.9253 14.0496C19.8195 13.7942 19.6644 13.5621 19.4689 13.3666C19.2734 13.1711 19.0413 13.0161 18.7859 12.9103C18.5305 12.8045 18.2567 12.75 17.9803 12.75C17.7038 12.75 17.43 12.8045 17.1746 12.9103C16.9192 13.0161 16.6871 13.1711 16.4916 13.3666C16.2961 13.5621 16.1411 13.7942 16.0353 14.0496C15.9295 14.305 15.875 14.5788 15.875 14.8553Z" fill="white" fill-opacity="0.2"/>
<path fill-rule="evenodd" clip-rule="evenodd" d="M17.2363 12.0294C17.5556 11.8972 17.8978 11.8291 18.2434 11.8291C18.589 11.8291 18.9312 11.8972 19.2505 12.0294C19.5697 12.1617 19.8598 12.3555 20.1042 12.5999C20.3486 12.8442 20.5424 13.1343 20.6747 13.4536C20.8069 13.7729 20.875 14.1151 20.875 14.4607C20.875 14.8063 20.8069 15.1485 20.6747 15.4677C20.5424 15.787 20.3486 16.0771 20.1042 16.3215C19.8598 16.5659 19.5697 16.7597 19.2505 16.8919C18.9312 17.0242 18.589 17.0923 18.2434 17.0923C17.8978 17.0923 17.5556 17.0242 17.2363 16.8919C16.9171 16.7597 16.627 16.5659 16.3826 16.3215C16.1382 16.0771 15.9444 15.787 15.8121 15.4677C15.6799 15.1485 15.6118 14.8063 15.6118 14.4607C15.6118 14.1151 15.6799 13.7729 15.8121 13.4536C15.9444 13.1343 16.1382 12.8442 16.3826 12.5999C16.627 12.3555 16.9171 12.1617 17.2363 12.0294ZM18.2434 12.8832C18.0362 12.8832 17.8311 12.924 17.6397 13.0033C17.4483 13.0826 17.2744 13.1987 17.1279 13.3452C16.9815 13.4917 16.8653 13.6656 16.786 13.857C16.7067 14.0484 16.6659 14.2535 16.6659 14.4607C16.6659 14.6678 16.7067 14.873 16.786 15.0644C16.8653 15.2557 16.9815 15.4296 17.1279 15.5761C17.2744 15.7226 17.4483 15.8388 17.6397 15.9181C17.8311 15.9974 18.0362 16.0382 18.2434 16.0382C18.4506 16.0382 18.6557 15.9974 18.8471 15.9181C19.0385 15.8388 19.2124 15.7226 19.3588 15.5761C19.5053 15.4296 19.6215 15.2557 19.7008 15.0644C19.7801 14.873 19.8209 14.6678 19.8209 14.4607C19.8209 14.2535 19.7801 14.0484 19.7008 13.857C19.6215 13.6656 19.5053 13.4917 19.3588 13.3452C19.2124 13.1987 19.0385 13.0826 18.8471 13.0033C18.6557 12.924 18.4506 12.8832 18.2434 12.8832Z" fill="white"/>
<path fill-rule="evenodd" clip-rule="evenodd" d="M0.875 17.6184C0.875 17.3277 1.10616 17.092 1.39131 17.092H20.3587C20.6438 17.092 20.875 17.3277 20.875 17.6184C20.875 17.909 20.6438 18.1447 20.3587 18.1447H1.39131C1.10616 18.1447 0.875 17.909 0.875 17.6184Z" fill="white"/>
<path fill-rule="evenodd" clip-rule="evenodd" d="M8.92278 5.92436C9.4636 5.65396 10.06 5.51318 10.6646 5.51318H13.6114C14.4211 5.51318 15.1976 5.83482 15.7702 6.40732C16.3427 6.97983 16.6644 7.75632 16.6644 8.56596V9.27147C16.6644 9.91214 16.4628 10.5366 16.0882 11.0563C15.7148 11.5745 15.1883 11.9624 14.5829 12.1656L12.8402 12.7893L12.8292 12.7931C12.3952 12.9378 11.9214 12.9041 11.5121 12.6995C11.1029 12.4949 10.7917 12.1361 10.647 11.702C10.5023 11.2679 10.536 10.7942 10.7406 10.385C10.9442 9.97767 11.3006 9.6675 11.7319 9.52193L13.4335 8.9117C13.7075 8.81343 14.0093 8.95589 14.1076 9.22991C14.2059 9.50393 14.0634 9.80573 13.7894 9.90401L12.0828 10.5161L12.0715 10.52C11.9027 10.5762 11.7631 10.6973 11.6835 10.8564C11.604 11.0156 11.5909 11.1998 11.6471 11.3686C11.7034 11.5375 11.8244 11.677 11.9836 11.7566C12.1413 11.8354 12.3236 11.849 12.4912 11.7945L14.2328 11.1712L14.2437 11.1675C14.6416 11.0348 14.9877 10.7803 15.2329 10.44C15.4782 10.0997 15.6101 9.69092 15.6101 9.27148V8.56596C15.6101 8.03591 15.3995 7.52756 15.0247 7.15275C14.6499 6.77795 14.1415 6.56738 13.6114 6.56738H10.6646C10.2236 6.56738 9.78869 6.67005 9.39425 6.86726C8.99982 7.06447 8.65671 7.3508 8.39212 7.70357L8.13953 8.04033C7.96486 8.27322 7.63445 8.32041 7.40156 8.14575C7.16866 7.97108 7.12146 7.6407 7.29613 7.40781L7.54871 7.07105C7.91151 6.58735 8.38195 6.19475 8.92278 5.92436Z" fill="white"/>
<path fill-rule="evenodd" clip-rule="evenodd" d="M1.39929 14.3965C1.73499 14.1004 2.19029 13.9341 2.66504 13.9341H5.61184C5.90297 13.9341 6.13897 14.1423 6.13897 14.399C6.13897 14.6558 5.90297 14.864 5.61184 14.864H2.66504C2.4699 14.864 2.28275 14.9324 2.14476 15.0541C2.00678 15.1758 1.92926 15.3409 1.92926 15.513C1.92926 15.6852 2.00678 15.8502 2.14476 15.972C2.28275 16.0937 2.4699 16.162 2.66504 16.162H9.82156C10.1127 16.162 10.3487 16.3702 10.3487 16.627C10.3487 16.8838 10.1127 17.092 9.82156 17.092H2.66504C2.19029 17.092 1.73499 16.9256 1.39929 16.6295C1.06359 16.3334 0.875 15.9318 0.875 15.513C0.875 15.0943 1.06359 14.6927 1.39929 14.3965Z" fill="white"/>
<path fill-rule="evenodd" clip-rule="evenodd" d="M7.27295 11.9818C6.76499 11.6806 6.68088 10.7189 6.08373 10.7211L6.08173 10.7211H2.63996C2.44755 10.7211 2.26302 10.7945 2.12697 10.925C1.99092 11.0555 1.91448 11.2325 1.91448 11.4171C1.91448 11.6017 1.99092 11.7787 2.12697 11.9092C2.26302 12.0398 2.44755 12.1131 2.63996 12.1131H6.07995M9.04699 15.7105C9.10727 15.8261 9.19991 15.9233 9.31453 15.9912C9.42917 16.0591 9.56127 16.0951 9.69602 16.0951H13.8469C14.0393 16.0951 14.2238 16.0217 14.3599 15.8912C14.4959 15.7607 14.5724 15.5837 14.5724 15.3991C14.5724 15.2145 14.4959 15.0375 14.3599 14.907C14.2238 14.7764 14.0393 14.7031 13.8469 14.7031H10.4657C10.2689 14.7031 10.0889 14.5964 10.0008 14.4275L8.95818 12.4269L8.95726 12.4252C8.69233 11.9117 7.7809 12.2831 7.27295 11.9818M6.08077 9.7239C6.87199 9.72117 7.64818 9.93129 8.32122 10.3304C8.99426 10.7295 9.53719 11.3017 9.88839 11.9818L10.7869 13.7059H13.8469C14.315 13.7059 14.7639 13.8843 15.0949 14.2018C15.4259 14.5194 15.6118 14.95 15.6118 15.3991C15.6118 15.8482 15.4259 16.2788 15.0949 16.5964C14.7639 16.9139 14.315 17.0923 13.8469 17.0923H9.69633C9.36856 17.0924 9.04709 17.0049 8.76823 16.8396C8.48933 16.6743 8.26393 16.4378 8.11728 16.1565L6.73008 13.4949L6.72925 13.4933C6.66963 13.3779 6.57747 13.2808 6.46324 13.2131C6.349 13.1454 6.21727 13.1098 6.083 13.1103L6.0809 13.1103H2.63996C2.17186 13.1103 1.72294 12.9319 1.39194 12.6144C1.06095 12.2969 0.875 11.8662 0.875 11.4171C0.875 10.968 1.06095 10.5374 1.39194 10.2198C1.72294 9.90229 2.17186 9.7239 2.63996 9.7239H6.08077Z" fill="white"/>
</svg>
