<svg width="21" height="20" viewBox="0 0 21 20" fill="none" xmlns="http://www.w3.org/2000/svg">
<path d="M10.5003 18.9582C5.55866 18.9582 1.54199 14.9415 1.54199 9.99984C1.54199 5.05817 5.55866 1.0415 10.5003 1.0415C15.442 1.0415 19.4587 5.05817 19.4587 9.99984C19.4587 14.9415 15.442 18.9582 10.5003 18.9582ZM10.5003 2.2915C6.25033 2.2915 2.79199 5.74984 2.79199 9.99984C2.79199 14.2498 6.25033 17.7082 10.5003 17.7082C14.7503 17.7082 18.2087 14.2498 18.2087 9.99984C18.2087 5.74984 14.7503 2.2915 10.5003 2.2915Z" fill="#929292"/>
<path d="M13.5919 13.275C13.4835 13.275 13.3752 13.25 13.2752 13.1833L10.6919 11.6416C10.0502 11.2583 9.5752 10.4166 9.5752 9.67497V6.2583C9.5752 5.91663 9.85853 5.6333 10.2002 5.6333C10.5419 5.6333 10.8252 5.91663 10.8252 6.2583V9.67497C10.8252 9.97497 11.0752 10.4166 11.3335 10.5666L13.9169 12.1083C14.2169 12.2833 14.3085 12.6666 14.1335 12.9666C14.0085 13.1666 13.8002 13.275 13.5919 13.275Z" fill="#929292"/>
</svg>
