<svg width="20" height="20" viewBox="0 0 20 20" fill="none" xmlns="http://www.w3.org/2000/svg">
<g opacity="0.5">
<path d="M7.08366 15.8337H6.66699C3.33366 15.8337 1.66699 15.0003 1.66699 10.8337V6.66699C1.66699 3.33366 3.33366 1.66699 6.66699 1.66699H13.3337C16.667 1.66699 18.3337 3.33366 18.3337 6.66699V10.8337C18.3337 14.167 16.667 15.8337 13.3337 15.8337H12.917C12.6587 15.8337 12.4087 15.9587 12.2503 16.167L11.0003 17.8337C10.4503 18.567 9.55033 18.567 9.00033 17.8337L7.75033 16.167C7.61699 15.9837 7.30866 15.8337 7.08366 15.8337Z" stroke="#292D32" stroke-width="1.5" stroke-miterlimit="10" stroke-linecap="round" stroke-linejoin="round"/>
<path d="M5.83301 6.66699H14.1663" stroke="#292D32" stroke-width="1.5" stroke-linecap="round" stroke-linejoin="round"/>
<path d="M5.83301 10.833H10.833" stroke="#292D32" stroke-width="1.5" stroke-linecap="round" stroke-linejoin="round"/>
</g>
</svg>
