<svg width="35" height="28" viewBox="0 0 35 28" fill="none" xmlns="http://www.w3.org/2000/svg">
<g id="Group 1">
<path id="Vector" d="M30.6754 12.1084C30.4005 11.8953 30.0666 11.7583 29.7119 11.7129C29.3571 11.6675 28.9958 11.7157 28.669 11.8518L22.5898 14.362L19.0576 8.44921C18.8888 8.17316 18.6441 7.94359 18.3487 7.78389C18.0532 7.62418 17.7174 7.54004 17.3756 7.54004C17.0337 7.54004 16.6979 7.62418 16.4025 7.78389C16.107 7.94359 15.8624 8.17316 15.6936 8.44921L12.1614 14.362L6.08211 11.8518C5.75472 11.7159 5.39291 11.6677 5.03756 11.7127C4.68222 11.7577 4.34752 11.8941 4.07129 12.1065C3.79506 12.3189 3.58833 12.5988 3.47446 12.9145C3.3606 13.2303 3.34414 13.5694 3.42694 13.8934L6.47858 25.9755C6.53693 26.2094 6.64582 26.4299 6.79864 26.6236C6.95146 26.8173 7.14504 26.9801 7.36764 27.1023C7.66901 27.2698 8.01359 27.3585 8.36483 27.3589C8.53557 27.3586 8.70543 27.3361 8.86943 27.292C14.4318 25.8639 20.3073 25.8639 25.8697 27.292C26.3776 27.416 26.9177 27.3477 27.3715 27.1023C27.5955 26.9817 27.7901 26.8193 27.9431 26.6254C28.0961 26.4315 28.2042 26.2102 28.2605 25.9755L31.3242 13.8934C31.4061 13.5693 31.3887 13.2304 31.2741 12.915C31.1594 12.5996 30.9521 12.3202 30.6754 12.1084Z" fill="#FF9F12"/>
<circle id="Ellipse 4" cx="17.375" cy="4.54004" r="4" fill="#FF9F12"/>
<circle id="Ellipse 7" cx="17.375" cy="18.54" r="3" fill="#BE9502"/>
<circle id="Ellipse 5" cx="31.875" cy="11.04" r="2.5" fill="#FF9F12"/>
<circle id="Ellipse 6" cx="2.875" cy="11.04" r="2.5" fill="#FF9F12"/>
<circle id="Ellipse 8" cx="9.875" cy="20.04" r="1.5" fill="#BE9502"/>
<circle id="Ellipse 9" cx="24.875" cy="20.04" r="1.5" fill="#BE9502"/>
</g>
</svg>
