<svg width="21" height="22" viewBox="0 0 21 22" fill="none" xmlns="http://www.w3.org/2000/svg">
<path d="M5.00011 17L5.00011 9C5.00011 6.79086 6.87693 5 9.19211 5L15.4801 5M5.00011 17C5.00011 19.2091 6.87693 21 9.19211 21H11.6477C12.7595 21 13.8258 20.5786 14.6119 19.8284L18.4443 16.1716C19.2304 15.4214 19.6721 14.404 19.6721 13.3431V9C19.6721 6.79086 17.7953 5 15.4801 5M5.00011 17C2.68493 17 0.808105 15.2091 0.808105 13L0.808106 5C0.808106 2.79086 2.68493 1 5.00011 1L11.2881 1C13.6033 1 15.4801 2.79086 15.4801 5M13.3841 21V19C13.3841 16.7909 15.2609 15 17.5761 15H19.6721" stroke="#797C7B" stroke-width="1.5" stroke-linejoin="round"/>
</svg>
