<svg width="22" height="22" viewBox="0 0 22 22" fill="none" xmlns="http://www.w3.org/2000/svg">
<path d="M12.0833 16.4167H5.58333M14.25 12.0833H5.58333M9.91667 2.33333H6.45C4.62983 2.33333 3.71974 2.33333 3.02453 2.68756C2.413 2.99915 1.91582 3.49634 1.60423 4.10786C1.25 4.80308 1.25 5.71316 1.25 7.53333V15.55C1.25 17.3702 1.25 18.2803 1.60423 18.9755C1.91582 19.587 2.413 20.0842 3.02453 20.3958C3.71974 20.75 4.62983 20.75 6.45 20.75H14.4667C16.2868 20.75 17.1969 20.75 17.8921 20.3958C18.5037 20.0842 19.0008 19.587 19.3124 18.9755C19.6667 18.2803 19.6667 17.3702 19.6667 15.55V12.0833M19.7981 2.2019C21.0673 3.47111 21.0673 5.52889 19.7981 6.7981C18.5289 8.0673 16.4711 8.0673 15.2019 6.7981C13.9327 5.52889 13.9327 3.47111 15.2019 2.2019C16.4711 0.932699 18.5289 0.932699 19.7981 2.2019Z" stroke="white" stroke-width="2" stroke-linecap="round" stroke-linejoin="round"/>
</svg>
