<svg width="40" height="40" viewBox="0 0 40 40" fill="none" xmlns="http://www.w3.org/2000/svg">
<rect width="40" height="40" rx="6" fill="white"/>
<path d="M26 16.5V18C26 19.82 24.785 21.355 23.125 21.84C22.77 21.945 22.39 22 22 22H18C17.61 22 17.23 21.945 16.875 21.84C15.215 21.355 14 19.82 14 18V16.5C14 16.485 14 16.465 14 16.45C14.02 16.09 14.225 15.785 14.525 15.62C14.665 15.545 14.83 15.5 15 15.5L20 15L25 15.5C25.535 15.5 25.97 15.92 26 16.45C26 16.465 26 16.485 26 16.5Z" fill="white"/>
<path d="M26 16.45V18C26 19.82 24.793 21.355 23.144 21.84C22.7914 21.945 22.4139 22 22.0265 22H20V15.005L20.0397 15L25.0066 15.5C25.5381 15.5 25.9702 15.92 26 16.45Z" fill="#DAD4D4"/>
<path d="M27.5 25.4233C30.57 25.9462 33 27.0169 33 30.3835V35H23L24.5 25.0398L24.51 25C24.625 25.0448 24.75 25.0697 24.88 25.0847C25.775 25.1793 26.66 25.2839 27.5 25.4233ZM27.5 28.5259C26.67 28.5259 26 29.1932 26 30.0199C26 30.8466 26.67 31.5139 27.5 31.5139C28.33 31.5139 29 30.8466 29 30.0199C29 29.1932 28.33 28.5259 27.5 28.5259Z" fill="#DFDAD4"/>
<path d="M33 30.3835C33 27.0169 30.5813 25.9462 27.5255 25.4233C26.6894 25.2839 25.8086 25.1793 24.9177 25.0847C24.7883 25.0697 24.6639 25.0448 24.5494 25L24.5395 25.0398L24 28.6389C24.8072 30.6544 25.2288 32.8287 25.1929 35H33V30.3835ZM27.5255 31.5139C26.6994 31.5139 26.0325 30.8466 26.0325 30.0199C26.0325 29.1932 26.6994 28.5259 27.5255 28.5259C28.3517 28.5259 29.0186 29.1932 29.0186 30.0199C29.0186 30.8466 28.3517 31.5139 27.5255 31.5139Z" fill="#B7B1AB"/>
<path d="M24.1267 24.4145C24.2914 24.7479 24.6108 24.9957 25 25.1111L24.99 25.1453L21.497 26L20 23.8632L23.5329 23L24.1267 24.4145ZM15.8733 24.4145L16.4671 23L20 23.8632L18.503 26L15.01 25.1453L15 25.1111C15.3892 24.9957 15.7086 24.7479 15.8733 24.4145Z" fill="#B9DEEF"/>
<path d="M25 25L23.5037 35H21.5087L21 26.34L21.5087 26L25 25Z" fill="#9AC2D8"/>
<path d="M19 26.34L18.4913 35H16.4963L15 25L18.4913 26L19 26.34Z" fill="#9AC2D8"/>
<path d="M18.9361 27.8326L16.1938 26.8498C16.8681 29.4866 16.6434 32.4255 17.7772 35H16.4985L15 25.4115L15.7992 25.632L18.4965 26.3704L19.006 26.6964L18.9361 27.8326ZM24.1259 24.5917L23.5315 23L23.4915 23.0144L20.9915 23.7C21.6883 24.399 22.3197 25.1689 22.8791 25.9902L21.4935 26.3704L20.984 26.6964L21.0539 27.8278L23.511 26.9965C23.8621 27.6025 24.1783 28.2296 24.4481 28.8763L24.99 25.4115L25 25.3732C24.6104 25.2437 24.2907 24.9656 24.1259 24.5917Z" fill="#73BDE5"/>
<path d="M27.5 32C28.3284 32 29 31.3284 29 30.5C29 29.6716 28.3284 29 27.5 29C26.6716 29 26 29.6716 26 30.5C26 31.3284 26.6716 32 27.5 32Z" fill="#5F605A"/>
<path d="M20.66 27L21 35H19L19.34 27L20 27.6097L20.66 27Z" fill="#828282"/>
<path d="M15.5 25.0398L15.49 25C15.375 25.0448 15.25 25.0697 15.12 25.0847C14.72 25.1295 14.325 25.1693 13.935 25.2191C13.04 25.3287 12.17 25.4631 11.37 25.6524C8.85 26.255 7 27.4452 7 30.3835V35H17L15.5 25.0398Z" fill="#DFDAD4"/>
<path d="M20 24L21 26.1429L20.66 26.4343L20 27L19.34 26.4343L19 26.1429L20 24Z" fill="#999999"/>
<path d="M23.54 22.99L20 24L16.46 22.99L16.61 22.58L16.875 21.84C17.23 21.945 17.61 22 18 22H22C22.39 22 22.77 21.945 23.125 21.84L23.355 22.475L23.54 22.99ZM27 14.5V15.75C27 16.165 26.665 16.5 26.25 16.5C26.16 16.5 26.08 16.485 26 16.45C25.98 16.1 25.785 15.8 25.5 15.635V15.5V13.75C25.5 13.335 25.835 13 26.25 13C26.665 13 27 13.335 27 13.75V14.5ZM14.5 13.75V15.5V15.635C14.215 15.8 14.02 16.1 14 16.45C13.92 16.485 13.84 16.5 13.75 16.5C13.335 16.5 13 16.165 13 15.75V14.5V13.75C13 13.335 13.335 13 13.75 13C14.165 13 14.5 13.335 14.5 13.75ZM25 15.5L20 15L15 15.5C14.82 15.5 14.645 15.55 14.5 15.635V15.5V13.75V10.955C14.5 10.955 17 10 18 8C18 8 21 10.91 25.5 10.955V13.75V15.5V15.635C25.355 15.55 25.18 15.5 25 15.5Z" fill="#FFD5C2"/>
<path d="M25.5 11.2805C21 11.2368 18 8.40541 18 8.40541C17 10.3514 14.5 11.2805 14.5 11.2805V14C14.5 13.5962 14.165 13.2703 13.75 13.2703C13.335 13.2703 13 13.5962 13 14V10.8378C13 7.62703 15.7 5 19 5H21C24.3 5 27 7.62703 27 10.8378V14C27 13.5962 26.665 13.2703 26.25 13.2703C25.835 13.2703 25.5 13.5962 25.5 14V11.2805Z" fill="#9E7059"/>
<path d="M27 14V10.8378C27 7.62703 24.4692 5 21.376 5H20C23.5736 6.45654 25.5682 9.50632 26.4742 13.2965C26.7769 13.3783 27 13.6604 27 14Z" fill="#995B3F"/>
<path d="M17.1925 8.99057C17.0211 8.99528 16.845 9 16.6643 9C15.7005 9 14.7923 8.89151 14 8.70283C14.0417 8.61321 14.088 8.52358 14.1344 8.43396C15.0286 8.76415 16.0758 8.96226 17.1925 8.99057ZM23.0599 7.86462C22.117 8.23962 20.9994 8.47264 19.791 8.5033C19.9671 8.50802 20.1431 8.51274 20.3238 8.51274C21.3353 8.51274 22.281 8.39387 23.0989 8.18868C23.0919 8.07972 23.0775 7.9717 23.0599 7.86462ZM25 7.40566C24.6247 7.65566 24.1474 7.87736 23.5914 8.05189C23.5682 7.91981 23.5404 7.78774 23.5312 7.66038C23.9343 7.46698 24.2957 7.24528 24.6061 7C24.7405 7.13208 24.8749 7.26415 25 7.40566Z" fill="#BFA599"/>
<path d="M19 6.45732V9C18.355 8.58384 18 8.26829 18 8.26829V6.45732C18 6.20579 18.225 6 18.5 6C18.775 6 19 6.20579 19 6.45732Z" fill="#995B3F"/>
<path d="M25 11.3165V13C22.2636 12.9663 20.1409 11.4961 19.0318 10.5253C18.5909 10.138 17.9773 10.1998 17.6318 10.7104C16.5773 12.2536 15 13 15 13V11.3165C15 11.3165 17.2727 10.2447 18.1818 8C18.1818 8 20.9091 11.266 25 11.3165Z" fill="#FFA180"/>
<path d="M20.6753 26.8696L21 35H20V24.0622L20.026 24L21 26.3913L20.6688 26.7165L20.6753 26.8696Z" fill="#5F605A"/>
<path d="M27.5 31C27.7761 31 28 30.7761 28 30.5C28 30.2239 27.7761 30 27.5 30C27.2239 30 27 30.2239 27 30.5C27 30.7761 27.2239 31 27.5 31Z" fill="#828282"/>
<path d="M24.7368 18C24.7268 18 24.7174 17.9995 24.7074 17.9985L20 17.5022L15.2921 17.9985C15.1458 18.013 15.0179 17.9146 15.0016 17.7783C14.9858 17.641 15.0895 17.5177 15.2342 17.5022L20 17L24.7658 17.5022C24.91 17.5172 25.0142 17.6405 24.9984 17.7783C24.9837 17.9056 24.8695 18 24.7368 18Z" fill="#A29292"/>
<path d="M25.5748 16C25.5283 17.1973 25.2382 18.4384 24.6698 19.4816C24.6288 19.4298 24.5674 19.3927 24.4933 19.3851L19.8605 18.9065L15.2277 19.3851C15.0875 19.3994 14.9862 19.5168 15.0015 19.6481C15.0174 19.778 15.1417 19.8717 15.284 19.8579L19.8605 19.3851L24.437 19.8579C24.44 19.8584 24.4431 19.8584 24.4462 19.8584C23.7161 20.992 22.6146 21.8278 21.0843 22H21.907C22.306 22 22.6949 21.9477 23.0581 21.8478C24.7567 21.3863 26 19.9259 26 18.1944V16.7197C25.9821 16.4224 25.8173 16.1641 25.5748 16Z" fill="#A29292"/>
<path d="M17.5404 14C16.8374 14 16.3094 13.7888 16.2764 13.7753C16.0294 13.6742 15.9294 13.4282 16.0529 13.2261C16.1764 13.0247 16.4749 12.9428 16.7214 13.0423C16.7434 13.0509 17.5289 13.3492 18.2763 13.0431C18.5243 12.9424 18.8238 13.0243 18.9473 13.2261C19.0708 13.4282 18.9708 13.6742 18.7238 13.7753C18.3118 13.9439 17.9028 14 17.5404 14ZM22.5401 14C21.8372 14 21.3092 13.7888 21.2762 13.7753C21.0292 13.6742 20.9292 13.4282 21.0527 13.2261C21.1762 13.0247 21.4752 12.9428 21.7212 13.0423C21.7432 13.0509 22.5286 13.3492 23.2761 13.0431C23.5241 12.9424 23.8236 13.0243 23.9471 13.2261C24.0706 13.4282 23.9706 13.6742 23.7236 13.7753C23.3116 13.9439 22.9026 14 22.5401 14Z" fill="#7C4D4D"/>
<path d="M24.8977 22.4283C24.3578 22.2257 23.7799 22.0829 23.1879 22.0046L23.1547 22L22.9558 22.0046L23.1263 22.4606L23.3016 22.935L23.311 22.958C23.7421 23.0317 24.1636 23.1376 24.5567 23.2896C26.1197 23.8746 27.0527 24.6944 27.0527 25.4774V28.4711C27.0527 28.4988 27.0575 28.5264 27.0622 28.5494C27.2043 28.4988 27.3653 28.4711 27.5264 28.4711C27.6874 28.4711 27.8484 28.4988 27.9905 28.5494C27.9953 28.5264 28 28.4988 28 28.4711V25.4774C28 24.2614 26.8964 23.1791 24.8977 22.4283ZM16.7276 22.0967L16.6518 22.1059C15.8798 22.2395 15.1598 22.479 14.5157 22.8152C13.4406 23.3817 12.7491 24.0634 12.4886 24.8095C11.0866 24.9799 10.002 26.1452 10.002 27.55C10.002 27.5914 10.0352 30.7464 12.0386 32.6394C11.5839 32.8604 11.0487 33.017 10.4283 33.0769C10.1678 33.1045 9.97832 33.3302 10.002 33.5835C10.0304 33.8369 10.2625 34.0211 10.523 33.9981C11.456 33.9059 12.2186 33.6342 12.8438 33.2519C13.469 33.6342 14.2315 33.9059 15.1646 33.9981H15.2119C15.4535 33.9981 15.6572 33.823 15.6856 33.5835C15.7093 33.3302 15.5198 33.1045 15.2593 33.0769C14.6389 33.017 14.1036 32.8604 13.649 32.6394C15.6524 30.7464 15.6856 27.5914 15.6856 27.55C15.6856 26.2465 14.7478 25.1504 13.4974 24.8648C13.7437 24.4272 14.2505 24.0035 14.9657 23.6258C15.444 23.3725 15.9792 23.1883 16.5476 23.0685L16.595 22.935L16.737 22.5573L16.9075 22.0921L16.7276 22.0967ZM14.7383 27.55C14.7383 27.7066 14.7099 30.5621 12.8485 32.1143C10.9872 30.5621 10.9493 27.7066 10.9493 27.55C10.9493 26.5321 11.7971 25.7077 12.8438 25.7077C13.8905 25.7077 14.7383 26.5321 14.7383 27.55Z" fill="#6B6669"/>
<path d="M22.834 22.6872L22.6277 22C22.3092 22.1136 21.9683 22.1732 21.6185 22.1732H18.0301C18.0197 22.1732 18.0103 22.1705 18 22.1705C18.8388 22.9675 20.1306 23.0233 20.8043 24L23 23.2446L22.834 22.6872Z" fill="#FFA180"/>
</svg>
