<svg width="32" height="32" viewBox="0 0 32 32" fill="none" xmlns="http://www.w3.org/2000/svg">
<g id="Frame">
<path id="Vector" d="M11.7144 27.2286L2.07153 29.9286L4.77153 20.2857L22.4287 2.71431C22.6282 2.51021 22.8666 2.34805 23.1297 2.23733C23.3928 2.12661 23.6754 2.06958 23.9608 2.06958C24.2463 2.06958 24.5288 2.12661 24.792 2.23733C25.0551 2.34805 25.2934 2.51021 25.493 2.71431L29.2858 6.5286C29.4867 6.72781 29.6461 6.96481 29.7549 7.22593C29.8637 7.48706 29.9197 7.76714 29.9197 8.05003C29.9197 8.33291 29.8637 8.61299 29.7549 8.87412C29.6461 9.13525 29.4867 9.37225 29.2858 9.57146L11.7144 27.2286Z" stroke="white" stroke-width="3" stroke-linecap="round" stroke-linejoin="round"/>
</g>
</svg>
