<svg width="21" height="19" viewBox="0 0 21 19" fill="none" xmlns="http://www.w3.org/2000/svg">
<path d="M17.0769 1.25H3.92308C3.281 1.25181 2.66574 1.50591 2.21172 1.95678C1.7577 2.40764 1.50183 3.01863 1.5 3.65625V11.9062C1.50183 12.5439 1.7577 13.1549 2.21172 13.6057C2.66574 14.0566 3.281 14.3107 3.92308 14.3125H5.65385V17.75L9.70904 14.3924C9.77131 14.3408 9.84987 14.3125 9.93101 14.3125H17.0769C17.719 14.3107 18.3343 14.0566 18.7883 13.6057C19.2423 13.1549 19.4982 12.5439 19.5 11.9062V3.65625C19.4982 3.01863 19.2423 2.40764 18.7883 1.95678C18.3343 1.50591 17.719 1.25181 17.0769 1.25V1.25Z" stroke="#929292" stroke-width="1.5" stroke-linejoin="round"/>
<path d="M6 9.5C6.82843 9.5 7.5 8.82843 7.5 8C7.5 7.17157 6.82843 6.5 6 6.5C5.17157 6.5 4.5 7.17157 4.5 8C4.5 8.82843 5.17157 9.5 6 9.5Z" fill="#929292"/>
<path d="M10.5 9.5C11.3284 9.5 12 8.82843 12 8C12 7.17157 11.3284 6.5 10.5 6.5C9.67157 6.5 9 7.17157 9 8C9 8.82843 9.67157 9.5 10.5 9.5Z" fill="#929292"/>
<path d="M15 9.5C15.8284 9.5 16.5 8.82843 16.5 8C16.5 7.17157 15.8284 6.5 15 6.5C14.1716 6.5 13.5 7.17157 13.5 8C13.5 8.82843 14.1716 9.5 15 9.5Z" fill="#929292"/>
</svg>
