<svg width="25" height="25" viewBox="0 0 25 25" fill="none" xmlns="http://www.w3.org/2000/svg">
<path d="M22.4663 11.3961L21.4863 15.5761C20.6463 19.1861 18.9863 20.6461 15.8663 20.3461C15.3663 20.3061 14.8263 20.2161 14.2463 20.0761L12.5663 19.6761C8.39633 18.6861 7.10633 16.6261 8.08633 12.4461L9.06633 8.25606C9.26633 7.40606 9.50633 6.66606 9.80633 6.05606C10.9763 3.63606 12.9663 2.98606 16.3063 3.77606L17.9763 4.16606C22.1663 5.14606 23.4463 7.21606 22.4663 11.3961Z" stroke="#393939" stroke-width="1.5" stroke-linecap="round" stroke-linejoin="round"/>
<path d="M15.8665 20.3462C15.2465 20.7662 14.4665 21.1162 13.5165 21.4262L11.9365 21.9462C7.96649 23.2262 5.87649 22.1562 4.58649 18.1862L3.30649 14.2362C2.02649 10.2662 3.08649 8.16615 7.05649 6.88615L8.63649 6.36615C9.04649 6.23615 9.43649 6.12615 9.80649 6.05615C9.50649 6.66615 9.26649 7.40615 9.06649 8.25615L8.08649 12.4462C7.10649 16.6262 8.39649 18.6862 12.5665 19.6762L14.2465 20.0762C14.8265 20.2162 15.3665 20.3062 15.8665 20.3462Z" stroke="#393939" stroke-width="1.5" stroke-linecap="round" stroke-linejoin="round"/>
</svg>
