<svg width="26" height="24" viewBox="0 0 26 24" fill="none" xmlns="http://www.w3.org/2000/svg">
<path d="M8.00011 18L8.00011 10C8.00011 7.79086 9.87693 6 12.1921 6L18.4801 6M8.00011 18C8.00011 20.2091 9.87693 22 12.1921 22H14.6477C15.7595 22 16.8258 21.5786 17.6119 20.8284L21.4443 17.1716C22.2304 16.4214 22.6721 15.404 22.6721 14.3431V10C22.6721 7.79086 20.7953 6 18.4801 6M8.00011 18C5.68493 18 3.80811 16.2091 3.80811 14L3.80811 6C3.80811 3.79086 5.68493 2 8.00011 2L14.2881 2C16.6033 2 18.4801 3.79086 18.4801 6M16.3841 22V20C16.3841 17.7909 18.2609 16 20.5761 16H22.6721" stroke="#797C7B" stroke-width="1.5" stroke-linejoin="round"/>
</svg>
