<svg width="14" height="12" viewBox="0 0 14 12" fill="none" xmlns="http://www.w3.org/2000/svg">
<path fill-rule="evenodd" clip-rule="evenodd" d="M4.86665 1.19997C3.98299 1.19997 3.26665 1.91631 3.26665 2.79997C3.26665 3.68363 3.98299 4.39997 4.86665 4.39997C5.75031 4.39997 6.46665 3.68363 6.46665 2.79997C6.46665 1.91631 5.75031 1.19997 4.86665 1.19997ZM2.19998 3.3333C2.21781 3.3333 2.23543 3.33243 2.25281 3.33072C2.49889 4.54919 3.57563 5.46663 4.86665 5.46663C6.15767 5.46663 7.23442 4.54919 7.4805 3.33072C7.49787 3.33243 7.51549 3.3333 7.53332 3.3333H13.4C13.6945 3.3333 13.9333 3.09452 13.9333 2.79997C13.9333 2.50542 13.6945 2.26663 13.4 2.26663H7.53332C7.51549 2.26663 7.49787 2.26751 7.4805 2.26922C7.23442 1.05073 6.15767 0.133301 4.86665 0.133301C3.57563 0.133301 2.49889 1.05073 2.25281 2.26922C2.23543 2.26751 2.21781 2.26663 2.19998 2.26663H0.599984C0.305434 2.26663 0.0666504 2.50542 0.0666504 2.79997C0.0666504 3.09452 0.305434 3.3333 0.599984 3.3333H2.19998ZM11.7472 9.73074C11.5011 10.9492 10.4243 11.8666 9.13332 11.8666C7.8423 11.8666 6.76555 10.9492 6.51947 9.73074C6.5021 9.73245 6.48447 9.7333 6.46665 9.7333H0.599984C0.305434 9.7333 0.0666504 9.49447 0.0666504 9.19997C0.0666504 8.90546 0.305434 8.66663 0.599984 8.66663H6.46665C6.48447 8.66663 6.5021 8.66749 6.51947 8.6692C6.76555 7.45074 7.8423 6.5333 9.13332 6.5333C10.4243 6.5333 11.5011 7.45074 11.7472 8.6692C11.7646 8.66749 11.7822 8.66663 11.8 8.66663H13.4C13.6945 8.66663 13.9333 8.90546 13.9333 9.19997C13.9333 9.49447 13.6945 9.7333 13.4 9.7333H11.8C11.7822 9.7333 11.7646 9.73245 11.7472 9.73074ZM7.53332 9.19997C7.53332 8.31631 8.24966 7.59997 9.13332 7.59997C10.0169 7.59997 10.7333 8.31631 10.7333 9.19997C10.7333 10.0836 10.0169 10.8 9.13332 10.8C8.24966 10.8 7.53332 10.0836 7.53332 9.19997Z" fill="#8338EC"/>
</svg>
