<svg width="21" height="20" viewBox="0 0 21 20" fill="none" xmlns="http://www.w3.org/2000/svg">
<path fill-rule="evenodd" clip-rule="evenodd" d="M8.0306 0.378412C8.28236 0.136119 8.62382 0 8.97986 0H12.2701C12.6262 0 12.9676 0.136119 13.2194 0.378412C13.4712 0.620705 13.6126 0.949325 13.6126 1.29198V5.01957L16.9696 3.15513C16.9696 3.15514 16.9696 3.15513 16.9696 3.15513C17.2776 2.98406 17.6436 2.93758 17.9872 3.02593L17.9958 3.02816C18.3356 3.11891 18.6246 3.33472 18.8005 3.62884C18.8007 3.62931 18.801 3.62979 18.8013 3.63026L20.4451 6.37032C20.6232 6.66705 20.6714 7.01971 20.5793 7.35068C20.4871 7.68166 20.2621 7.96384 19.9538 8.13518L16.5995 9.99997L19.9513 11.8632C19.9513 11.8632 19.9514 11.8633 19.9513 11.8632C20.2596 12.0346 20.4847 12.3168 20.5768 12.6477C20.6689 12.9787 20.6207 13.3313 20.4427 13.6281L18.7988 16.3682C18.7986 16.3685 18.7984 16.3689 18.7982 16.3693C18.6223 16.6636 18.3333 16.8794 17.9934 16.9702L17.9847 16.9725C17.6411 17.0609 17.2752 17.0144 16.9671 16.8433L13.6126 14.9792V18.708C13.6126 19.0507 13.4712 19.3793 13.2194 19.6216C12.9676 19.8639 12.6262 20 12.2701 20H8.97986C8.62382 20 8.28236 19.8639 8.0306 19.6216C7.77884 19.3793 7.6374 19.0507 7.6374 18.708V14.9794L4.28391 16.8432C3.97556 17.0145 3.60905 17.061 3.26516 16.9723C2.92126 16.8836 2.62804 16.6671 2.45001 16.3704L0.804863 13.6281C0.62685 13.3314 0.578599 12.9787 0.670742 12.6477C0.762886 12.3168 0.987866 12.0346 1.29619 11.8632L4.65014 9.99977L1.29619 8.13518C0.987866 7.96384 0.762886 7.68165 0.670742 7.35068C0.578599 7.01971 0.626839 6.66707 0.804853 6.37033L2.45 3.62808C2.62803 3.33135 2.92125 3.11481 3.26516 3.02613C3.60905 2.93745 3.97547 2.98388 4.2838 3.15519C4.2838 3.15519 4.2838 3.15519 4.2838 3.15519L7.6374 5.01847V1.29198C7.6374 0.949325 7.77884 0.620705 8.0306 0.378412ZM9.49975 1.79232V6.57062C9.49975 6.89078 9.32227 7.18663 9.03417 7.34671C8.74607 7.5068 8.39112 7.5068 8.10301 7.34673L3.80289 4.95755L2.67759 6.83328L6.97793 9.22401C7.26596 9.38414 7.44337 9.67998 7.44333 10.0001C7.44328 10.3202 7.2658 10.616 6.97772 10.7761L2.67766 13.1652L3.80286 15.0408L8.1029 12.651C8.39101 12.4908 8.74599 12.4908 9.03412 12.6509C9.32225 12.811 9.49975 13.1068 9.49975 13.427V18.2077H11.7503V13.427C11.7503 13.1068 11.9277 12.811 12.2159 12.6509C12.504 12.4908 12.8589 12.4908 13.147 12.6509L17.4455 15.0395L18.5699 13.1652L14.2721 10.776C13.9841 10.6159 13.8067 10.3201 13.8067 10C13.8067 9.67992 13.9841 9.38412 14.2721 9.22401L18.5724 6.83328L17.4479 4.95885L13.1469 7.3476C12.8587 7.50761 12.5038 7.50756 12.2158 7.34747C11.9277 7.18737 11.7503 6.89155 11.7503 6.57141V1.79232H9.49975ZM17.1859 4.52208L17.1872 4.52426L17.1859 4.52208Z" fill="white"/>
</svg>
