<svg width="19" height="18" viewBox="0 0 19 18" fill="none" xmlns="http://www.w3.org/2000/svg">
<path d="M18.1766 6.46174C18.2677 6.41129 18.3342 6.3282 18.3615 6.23074C18.3887 6.13328 18.3745 6.02944 18.3218 5.94207L16.7345 3.30641C16.6826 3.21959 16.597 3.1559 16.4964 3.12913C16.3949 3.10311 16.2867 3.1168 16.1956 3.16717L11.6091 5.70467V0.630435C11.6091 0.529537 11.5673 0.432772 11.4929 0.361427C11.4185 0.290081 11.3175 0.25 11.2123 0.25H8.0377C7.93245 0.25 7.83152 0.290081 7.7571 0.361427C7.68268 0.432772 7.64087 0.529537 7.64087 0.630435V5.70391L3.05753 3.16717C2.96639 3.11673 2.85808 3.10306 2.75642 3.12917C2.65476 3.15528 2.56809 3.21904 2.51547 3.30641L0.928164 5.94207C0.875544 6.02944 0.861284 6.13328 0.888521 6.23074C0.915758 6.3282 0.982262 6.41129 1.0734 6.46174L5.65674 9L1.0734 11.5367C0.982262 11.5872 0.915758 11.6703 0.888521 11.7677C0.861284 11.8652 0.875544 11.969 0.928164 12.0564L2.51547 14.6921C2.56809 14.7794 2.65476 14.8432 2.75642 14.8693C2.85808 14.8954 2.96639 14.8818 3.05753 14.8313L7.64087 12.2938V17.3696C7.64087 17.4705 7.68268 17.5672 7.7571 17.6386C7.83152 17.7099 7.93245 17.75 8.0377 17.75H11.2123C11.3175 17.75 11.4185 17.7099 11.4929 17.6386C11.5673 17.5672 11.6091 17.4705 11.6091 17.3696V12.2938L16.1933 14.8313C16.2843 14.8817 16.3925 14.8954 16.4941 14.8693C16.5947 14.8426 16.6802 14.7789 16.7322 14.6921L18.3195 12.0564C18.3721 11.969 18.3863 11.8652 18.3591 11.7677C18.3319 11.6703 18.2654 11.5872 18.1742 11.5367L13.5933 9L18.1766 6.46174Z" fill="white" fill-opacity="0.2"/>
</svg>
