<svg width="16" height="16" viewBox="0 0 16 16" fill="none" xmlns="http://www.w3.org/2000/svg">
<path d="M11.6867 5.18016C11.64 5.1735 11.5934 5.1735 11.5467 5.18016C10.5134 5.14683 9.69336 4.30016 9.69336 3.26016C9.69336 2.20016 10.5534 1.3335 11.62 1.3335C12.68 1.3335 13.5467 2.1935 13.5467 3.26016C13.54 4.30016 12.72 5.14683 11.6867 5.18016Z" fill="#8338EC"/>
<path d="M13.8597 9.79978C13.1131 10.2998 12.0664 10.4864 11.0997 10.3598C11.3531 9.81311 11.4864 9.20645 11.4931 8.56645C11.4931 7.89978 11.3464 7.26645 11.0664 6.71311C12.0531 6.57978 13.0997 6.76645 13.8531 7.26645C14.9064 7.95978 14.9064 9.09978 13.8597 9.79978Z" fill="#8338EC"/>
<path d="M4.29376 5.18016C4.34043 5.1735 4.3871 5.1735 4.43376 5.18016C5.4671 5.14683 6.2871 4.30016 6.2871 3.26016C6.2871 2.1935 5.4271 1.3335 4.36043 1.3335C3.30043 1.3335 2.44043 2.1935 2.44043 3.26016C2.44043 4.30016 3.26043 5.14683 4.29376 5.18016Z" fill="#8338EC"/>
<path d="M4.36675 8.56657C4.36675 9.21324 4.50675 9.82657 4.76008 10.3799C3.82008 10.4799 2.84008 10.2799 2.12008 9.80657C1.06674 9.10657 1.06674 7.96657 2.12008 7.26657C2.83341 6.78657 3.84008 6.59324 4.78675 6.69991C4.51341 7.25991 4.36675 7.89324 4.36675 8.56657Z" fill="#8338EC"/>
<path d="M8.08019 10.58C8.02686 10.5733 7.96686 10.5733 7.90686 10.58C6.68019 10.54 5.7002 9.53333 5.7002 8.29333C5.70686 7.02667 6.72686 6 8.0002 6C9.26686 6 10.2935 7.02667 10.2935 8.29333C10.2869 9.53333 9.31353 10.54 8.08019 10.58Z" fill="#8338EC"/>
<path d="M5.9132 11.9598C4.90654 12.6331 4.90654 13.7398 5.9132 14.4064C7.05987 15.1731 8.93987 15.1731 10.0865 14.4064C11.0932 13.7331 11.0932 12.6264 10.0865 11.9598C8.94654 11.1931 7.06654 11.1931 5.9132 11.9598Z" fill="#8338EC"/>
</svg>
