<svg width="21" height="21" viewBox="0 0 21 21" fill="none" xmlns="http://www.w3.org/2000/svg">
<path d="M19.0988 6.96607L12.5488 1.72607C11.2688 0.706073 9.26876 0.696073 7.99876 1.71607L1.44876 6.96607C0.508762 7.71607 -0.0612383 9.21607 0.138762 10.3961L1.39876 17.9361C1.68876 19.6261 3.25876 20.9561 4.96876 20.9561H15.5688C17.2588 20.9561 18.8588 19.5961 19.1488 17.9261L20.4088 10.3861C20.5888 9.21607 20.0188 7.71607 19.0988 6.96607ZM11.0188 16.9561C11.0188 17.3661 10.6788 17.7061 10.2688 17.7061C9.85876 17.7061 9.51876 17.3661 9.51876 16.9561V13.9561C9.51876 13.5461 9.85876 13.2061 10.2688 13.2061C10.6788 13.2061 11.0188 13.5461 11.0188 13.9561V16.9561Z" fill="#8338EC"/>
</svg>
