<svg width="16" height="14" viewBox="0 0 16 14" fill="none" xmlns="http://www.w3.org/2000/svg">
<path fill-rule="evenodd" clip-rule="evenodd" d="M7.55134 0.237461C7.8004 -0.00753892 8.19992 -0.00753892 8.44897 0.237461L15.649 7.32014C15.9009 7.56802 15.9042 7.97322 15.6564 8.2252C15.4086 8.47719 15.0033 8.48052 14.7514 8.23264L13.8668 7.36253V13.3337C13.8668 13.6282 13.6281 13.8671 13.3335 13.8671H2.66682C2.37227 13.8671 2.13348 13.6282 2.13348 13.3337V7.36253L1.24897 8.23264C0.996992 8.48052 0.59178 8.47719 0.343906 8.2252C0.0960319 7.97322 0.0993603 7.56802 0.351341 7.32014L7.55134 0.237461ZM8.00015 1.59146L12.8001 6.31325V12.8004H10.6668V9.06705C10.6668 8.7725 10.428 8.53371 10.1335 8.53371H6.93348C6.63894 8.53371 6.40015 8.7725 6.40015 9.06705V12.8004H3.20015V6.31325L8.00015 1.59146ZM7.46682 12.8004H9.60015V9.60038H7.46682V12.8004Z" fill="#8B8D98"/>
</svg>
