<svg width="23" height="23" viewBox="0 0 23 23" fill="none" xmlns="http://www.w3.org/2000/svg">
<path d="M11.5417 2.25033H6.45C4.62983 2.25033 3.71974 2.25033 3.02453 2.60455C2.413 2.91614 1.91582 3.41333 1.60423 4.02486C1.25 4.72007 1.25 5.63015 1.25 7.45033V16.5503C1.25 18.3705 1.25 19.2806 1.60423 19.9758C1.91582 20.5873 2.413 21.0845 3.02453 21.3961C3.71974 21.7503 4.62983 21.7503 6.45 21.7503H16.4167C17.4241 21.7503 17.9279 21.7503 18.3412 21.6396C19.4627 21.3391 20.3387 20.463 20.6393 19.3415C20.75 18.9282 20.75 18.4245 20.75 17.417M18.5833 7.66699V1.16699M15.3333 4.41699H21.8333M9.375 8.20866C9.375 9.40528 8.40495 10.3753 7.20833 10.3753C6.01172 10.3753 5.04167 9.40528 5.04167 8.20866C5.04167 7.01204 6.01172 6.04199 7.20833 6.04199C8.40495 6.04199 9.375 7.01204 9.375 8.20866ZM14.2392 11.9117L5.07541 20.2424C4.55998 20.711 4.30226 20.9452 4.27946 21.1482C4.2597 21.3241 4.32716 21.4986 4.46012 21.6155C4.61351 21.7503 4.9618 21.7503 5.65839 21.7503H15.8273C17.3864 21.7503 18.166 21.7503 18.7782 21.4884C19.5469 21.1596 20.1593 20.5472 20.4881 19.7786C20.75 19.1663 20.75 18.3867 20.75 16.8276C20.75 16.3031 20.75 16.0408 20.6927 15.7965C20.6206 15.4895 20.4824 15.202 20.2877 14.9539C20.1328 14.7565 19.928 14.5927 19.5183 14.265L16.488 11.8407C16.078 11.5127 15.873 11.3487 15.6473 11.2909C15.4483 11.2399 15.2389 11.2465 15.0436 11.3099C14.8219 11.3819 14.6277 11.5585 14.2392 11.9117Z" stroke="white" stroke-width="2" stroke-linecap="round" stroke-linejoin="round"/>
</svg>
