<svg width="40" height="40" viewBox="0 0 40 40" fill="none" xmlns="http://www.w3.org/2000/svg">
<rect width="40" height="40" rx="6" fill="white"/>
<path d="M35.3438 21.3095C35.3438 20.747 35.3438 17.2407 35.3438 16.6782C34.7063 16.8532 34.1625 17.0032 33.5313 17.172L32.8938 19.2407L33.5313 21.3095L34.4375 22.1782L35.3438 21.3095Z" fill="#665221"/>
<path d="M33.5313 21.3096L32.8938 23.3783L33.5313 25.4471C34.1688 25.6221 34.7125 25.7721 35.3438 25.9408C35.3438 25.3783 35.3438 21.8721 35.3438 21.3096C34.7125 21.3096 34.1688 21.3096 33.5313 21.3096Z" fill="#6D3D09"/>
<path d="M22.6 24.7971L20.5875 24.4033L19.1813 25.3096L19.7938 32.6158H21.7625L22.95 31.6908L22.6 24.7971Z" fill="#E23007"/>
<path d="M12.7344 24.3672L5.41249 26.2594C4.83749 26.9406 4.50624 27.8031 4.50624 28.7281V32.6094H9.09999L12.7344 24.3672Z" fill="#EA0CC0"/>
<path d="M11.1438 26.3657H9.79375C9.26875 27.597 9.26875 27.6407 9.15625 27.8407C7.675 30.372 8.775 31.9282 8.81875 32.1532L9.10001 32.6157H11.1938L11.8063 26.9532L11.1438 26.3657Z" fill="#EA1C07"/>
<path d="M12.6688 23.9155L11.4375 24.6093L11.1438 26.3593C11.3 27.1655 11.1625 27.9593 10.7375 28.6843C10.15 29.6905 10.0438 30.553 10.425 31.3343L11.1875 32.6093H15.3875L16.1563 28.4155L15.3875 24.9905L13.8625 24.053C13.125 23.9718 13.4063 24.003 12.6688 23.9155Z" fill="#C97595"/>
<path d="M20.5875 24.403C20.025 24.2905 18.9 24.0718 18.1125 23.9155L16.75 24.0593L15.3875 24.9968V32.6155H19.7875L20.3375 31.3718C20.7312 30.5843 20.6312 29.7093 20.0375 28.6968C19.4875 27.7468 19.1562 26.253 20.5875 24.403Z" fill="#D394B5"/>
<path d="M26.275 28.7344C26.275 26.9281 24.9938 25.3531 23.1625 24.9094L22.6063 24.7969L22.175 25.2781C21.0938 26.5656 21.3438 27.3594 21.625 27.8406C23.225 30.5656 21.8625 32.1844 21.7625 32.6156H26.275V28.7344Z" fill="#EF11DA"/>
<path d="M28.9938 24.197V27.3907H30.8063C30.8063 26.5345 30.8063 25.5532 30.8063 24.6907L29.9 23.6157L28.9938 24.197Z" fill="#403069"/>
<path d="M9.45871 11.3142C9.44614 13.4661 9.45871 17.7266 9.45871 17.7266H10.3696C13.4228 17.7266 19.9966 13.8084 20.8259 12.7656C21.6552 11.7229 21.5767 9.61314 20.8259 7.84375C20.2345 6.45004 19.6018 5.66451 18.2868 4.91406C17.0899 4.23096 14.8369 4.17188 14.8369 4.17188C9.32098 4.17188 9.47127 9.1622 9.45871 11.3142Z" fill="#422A2A"/>
<path d="M14.4812 28.2656V30.0031H15.3875L16.0125 29.1344L15.3875 28.2656H14.4812Z" fill="#D30973"/>
<path d="M16.2937 28.2656H15.3875V30.0031H16.2937V28.2656Z" fill="#BC318B"/>
<path d="M33.5313 17.1719C31.8125 17.6406 28.1938 18.6344 27.1813 18.9094V21.3031L30.3563 22.1719L33.5313 21.3031C33.5313 20.8094 33.5313 17.6781 33.5313 17.1719Z" fill="#ED1832"/>
<path d="M27.1813 21.3095V23.7032C28.9 24.172 32.5188 25.1657 33.5313 25.4407C33.5313 24.9407 33.5313 21.8095 33.5313 21.3032C31.8188 21.3095 28.175 21.3095 27.1813 21.3095Z" fill="#E51C30"/>
<path d="M15.3875 22.1779L13.875 21.3779L12.6625 21.4779V23.9154C13.4125 24.6342 14.4 24.9967 15.3812 24.9967L15.9125 23.5217L15.3875 22.1779Z" fill="#F9D4CF"/>
<path d="M15.3875 22.1779V24.9967C16.375 24.9967 17.3562 24.6342 18.1062 23.9154V21.4779L16.7437 21.3779L15.3875 22.1779Z" fill="#FC9380"/>
<path d="M9.94375 11.7408V16.9596C9.94375 19.8408 12.3813 22.1783 15.3875 22.1783L16.2938 16.8846L15.3875 11.5908C14.6313 11.8471 14.4313 11.6971 9.94375 11.7408Z" fill="#FFDBCA"/>
<path d="M19.925 11.7404C18.7375 11.7404 17.7312 11.0154 17.3562 10.0029H17.0437C16.7687 10.7467 16.1562 11.3342 15.3875 11.5904V22.1717C18.3937 22.1717 20.8312 19.8342 20.8312 16.9529V11.7342H19.925V11.7404Z" fill="#FCCCC5"/>
</svg>
