<svg width="15" height="14" viewBox="0 0 15 14" fill="none" xmlns="http://www.w3.org/2000/svg">
<path d="M0.875 1.6C0.875 1.04 0.875 0.76 0.984 0.546C1.07987 0.357846 1.23285 0.204872 1.421 0.109C1.635 -2.98023e-08 1.915 0 2.475 0H5.275C5.835 0 6.115 -2.98023e-08 6.329 0.109C6.51715 0.204872 6.67013 0.357846 6.766 0.546C6.875 0.76 6.875 1.04 6.875 1.6V2.4C6.875 2.96 6.875 3.24 6.766 3.454C6.67013 3.64215 6.51715 3.79513 6.329 3.891C6.115 4 5.835 4 5.275 4H2.475C1.915 4 1.635 4 1.421 3.891C1.23285 3.79513 1.07987 3.64215 0.984 3.454C0.875 3.24 0.875 2.96 0.875 2.4V1.6ZM8.875 1.6C8.875 1.04 8.875 0.76 8.984 0.546C9.07987 0.357846 9.23285 0.204872 9.421 0.109C9.635 -2.98023e-08 9.915 0 10.475 0H13.275C13.835 0 14.115 -2.98023e-08 14.329 0.109C14.5172 0.204872 14.6701 0.357846 14.766 0.546C14.875 0.76 14.875 1.04 14.875 1.6V2.4C14.875 2.96 14.875 3.24 14.766 3.454C14.6701 3.64215 14.5172 3.79513 14.329 3.891C14.115 4 13.835 4 13.275 4H10.475C9.915 4 9.635 4 9.421 3.891C9.23285 3.79513 9.07987 3.64215 8.984 3.454C8.875 3.24 8.875 2.96 8.875 2.4V1.6ZM0.875 6.6C0.875 6.04 0.875 5.76 0.984 5.546C1.07987 5.35785 1.23285 5.20487 1.421 5.109C1.635 5 1.915 5 2.475 5H5.275C5.835 5 6.115 5 6.329 5.109C6.51715 5.20487 6.67013 5.35785 6.766 5.546C6.875 5.76 6.875 6.04 6.875 6.6V7.4C6.875 7.96 6.875 8.24 6.766 8.454C6.67013 8.64215 6.51715 8.79513 6.329 8.891C6.115 9 5.835 9 5.275 9H2.475C1.915 9 1.635 9 1.421 8.891C1.23285 8.79513 1.07987 8.64215 0.984 8.454C0.875 8.24 0.875 7.96 0.875 7.4V6.6ZM8.875 6.6C8.875 6.04 8.875 5.76 8.984 5.546C9.07987 5.35785 9.23285 5.20487 9.421 5.109C9.635 5 9.915 5 10.475 5H13.275C13.835 5 14.115 5 14.329 5.109C14.5172 5.20487 14.6701 5.35785 14.766 5.546C14.875 5.76 14.875 6.04 14.875 6.6V7.4C14.875 7.96 14.875 8.24 14.766 8.454C14.6701 8.64215 14.5172 8.79513 14.329 8.891C14.115 9 13.835 9 13.275 9H10.475C9.915 9 9.635 9 9.421 8.891C9.23285 8.79513 9.07987 8.64215 8.984 8.454C8.875 8.24 8.875 7.96 8.875 7.4V6.6ZM0.875 11.6C0.875 11.04 0.875 10.76 0.984 10.546C1.07987 10.3578 1.23285 10.2049 1.421 10.109C1.635 10 1.915 10 2.475 10H5.275C5.835 10 6.115 10 6.329 10.109C6.51715 10.2049 6.67013 10.3578 6.766 10.546C6.875 10.76 6.875 11.04 6.875 11.6V12.4C6.875 12.96 6.875 13.24 6.766 13.454C6.67013 13.6422 6.51715 13.7951 6.329 13.891C6.115 14 5.835 14 5.275 14H2.475C1.915 14 1.635 14 1.421 13.891C1.23285 13.7951 1.07987 13.6422 0.984 13.454C0.875 13.24 0.875 12.96 0.875 12.4V11.6ZM8.875 11.6C8.875 11.04 8.875 10.76 8.984 10.546C9.07987 10.3578 9.23285 10.2049 9.421 10.109C9.635 10 9.915 10 10.475 10H13.275C13.835 10 14.115 10 14.329 10.109C14.5172 10.2049 14.6701 10.3578 14.766 10.546C14.875 10.76 14.875 11.04 14.875 11.6V12.4C14.875 12.96 14.875 13.24 14.766 13.454C14.6701 13.6422 14.5172 13.7951 14.329 13.891C14.115 14 13.835 14 13.275 14H10.475C9.915 14 9.635 14 9.421 13.891C9.23285 13.7951 9.07987 13.6422 8.984 13.454C8.875 13.24 8.875 12.96 8.875 12.4V11.6Z" fill="#0283EB"/>
</svg>
