<svg width="17" height="16" viewBox="0 0 17 16" fill="none" xmlns="http://www.w3.org/2000/svg">
<path opacity="0.87" fill-rule="evenodd" clip-rule="evenodd" d="M5.375 1C3.16586 1 1.375 2.79086 1.375 5V11C1.375 13.2091 3.16586 15 5.375 15H11.375C13.5841 15 15.375 13.2091 15.375 11V5C15.375 2.79086 13.5841 1 11.375 1H5.375ZM8.09614 4.29396C8.00721 3.98271 7.72862 3.76363 7.40517 3.75061C7.08172 3.73759 6.78642 3.93356 6.67275 4.23666L5.35525 7.75H3.875C3.46079 7.75 3.125 8.08579 3.125 8.5C3.125 8.91422 3.46079 9.25 3.875 9.25H5.875C6.18763 9.25 6.46747 9.05608 6.57725 8.76335L7.27867 6.89289L8.65386 11.706C8.73882 12.0034 8.99763 12.2182 9.30559 12.2468C9.61355 12.2754 9.9075 12.1121 10.0458 11.8354L11.3385 9.25H12.875C13.2892 9.25 13.625 8.91422 13.625 8.5C13.625 8.08579 13.2892 7.75 12.875 7.75H10.875C10.5909 7.75 10.3312 7.91051 10.2042 8.16459L9.56645 9.44005L8.09614 4.29396Z" fill="#FF6161"/>
</svg>
