<svg width="21" height="20" viewBox="0 0 21 20" fill="none" xmlns="http://www.w3.org/2000/svg">
<path d="M12.9993 18.9587H7.99935C3.47435 18.9587 1.54102 17.0253 1.54102 12.5003V7.50033C1.54102 2.97533 3.47435 1.04199 7.99935 1.04199H12.9993C17.5243 1.04199 19.4577 2.97533 19.4577 7.50033V12.5003C19.4577 17.0253 17.5243 18.9587 12.9993 18.9587ZM7.99935 2.29199C4.15768 2.29199 2.79102 3.65866 2.79102 7.50033V12.5003C2.79102 16.342 4.15768 17.7087 7.99935 17.7087H12.9993C16.841 17.7087 18.2077 16.342 18.2077 12.5003V7.50033C18.2077 3.65866 16.841 2.29199 12.9993 2.29199H7.99935Z" fill="#929292"/>
<path d="M11.9665 14.7913H9.02487C8.1082 14.7913 7.3832 14.3413 6.97487 13.5247L6.2332 12.033C6.0582 11.6747 5.69987 11.458 5.29987 11.458H2.1582C1.81654 11.458 1.5332 11.1747 1.5332 10.833C1.5332 10.4913 1.82487 10.208 2.16654 10.208H5.29987C6.17487 10.208 6.9582 10.6913 7.34987 11.4747L8.09154 12.9663C8.2832 13.3497 8.59154 13.5413 9.02487 13.5413H11.9665C12.3665 13.5413 12.7249 13.3247 12.8999 12.9663L13.6415 11.4747C14.0332 10.6913 14.8165 10.208 15.6915 10.208H18.8082C19.1499 10.208 19.4332 10.4913 19.4332 10.833C19.4332 11.1747 19.1499 11.458 18.8082 11.458H15.6915C15.2915 11.458 14.9332 11.6747 14.7582 12.033L14.0165 13.5247C13.6249 14.308 12.8415 14.7913 11.9665 14.7913Z" fill="#929292"/>
<path d="M11.8908 6.45801H9.11576C8.76576 6.45801 8.48242 6.17467 8.48242 5.83301C8.48242 5.49134 8.76576 5.20801 9.10742 5.20801H11.8824C12.2241 5.20801 12.5074 5.49134 12.5074 5.83301C12.5074 6.17467 12.2324 6.45801 11.8908 6.45801Z" fill="#929292"/>
<path d="M12.5827 8.95801H8.41602C8.07435 8.95801 7.79102 8.67467 7.79102 8.33301C7.79102 7.99134 8.07435 7.70801 8.41602 7.70801H12.5827C12.9243 7.70801 13.2077 7.99134 13.2077 8.33301C13.2077 8.67467 12.9243 8.95801 12.5827 8.95801Z" fill="#929292"/>
</svg>
