<svg width="20" height="20" viewBox="0 0 20 20" fill="none" xmlns="http://www.w3.org/2000/svg">
<path d="M9.9999 11.3079C8.5002 11.3079 7.2749 10.0892 7.2749 8.58288C7.2749 7.07821 8.49851 5.86621 9.9999 5.86621C11.4996 5.86621 12.7249 7.08486 12.7249 8.59121C12.7249 10.0959 11.5013 11.3079 9.9999 11.3079ZM9.9999 6.11621C8.6418 6.11621 7.5249 7.22203 7.5249 8.59121C7.5249 9.95902 8.63209 11.0662 9.9999 11.0662C11.3677 11.0662 12.4749 9.95902 12.4749 8.59121C12.4749 7.22203 11.358 6.11621 9.9999 6.11621Z" fill="#292D32" stroke="#878787"/>
<path d="M2.8957 7.05323L2.89583 7.05267C3.75688 3.25942 7.06473 1.54199 9.9999 1.54199H9.99991H9.99991H9.99991H9.99992H9.99992H9.99993H9.99993H9.99993H9.99994H9.99994H9.99995H9.99995H9.99996H9.99996H9.99997H9.99997H9.99997H9.99998H9.99998H9.99999H9.99999H10H10H10H10H10H10H10H10H10H10H10.0001H10.0001H10.0001H10.0001H10.0001H10.0001H10.0001H10.0001H10.0001H10.0001H10.0001H10.0001H10.0001H10.0001H10.0001H10.0001H10.0001H10.0001H10.0001H10.0001H10.0001H10.0001H10.0002H10.0002H10.0002H10.0002H10.0002H10.0002H10.0002H10.0002H10.0002H10.0002H10.0002H10.0002H10.0002H10.0002H10.0002H10.0002H10.0002H10.0002H10.0002H10.0003H10.0003H10.0003H10.0003H10.0003H10.0003H10.0003H10.0003H10.0003H10.0003H10.0003H10.0003H10.0003H10.0003H10.0003H10.0003H10.0004H10.0004H10.0004H10.0004H10.0004H10.0004H10.0004H10.0004H10.0004H10.0004H10.0004H10.0004H10.0004H10.0005H10.0005H10.0005H10.0005H10.0005H10.0005H10.0005H10.0005H10.0005H10.0005H10.0005H10.0005H10.0006H10.0006H10.0006H10.0006H10.0006H10.0006H10.0006H10.0006H10.0006H10.0006H10.0006H10.0007H10.0007H10.0007H10.0007H10.0007H10.0007H10.0007H10.0007H10.0007H10.0008H10.0008H10.0008H10.0008H10.0008H10.0008H10.0008H10.0008H10.0008H10.0008H10.0009H10.0009H10.0009H10.0009H10.0009H10.0009H10.0009H10.0009H10.001H10.001H10.001H10.001H10.001H10.001H10.001H10.001H10.0011H10.0011H10.0011H10.0011H10.0011H10.0011H10.0011H10.0012H10.0012H10.0012H10.0012H10.0012H10.0012H10.0012H10.0013H10.0013H10.0013H10.0013H10.0013H10.0013H10.0013H10.0014H10.0014H10.0014H10.0014H10.0014H10.0014H10.0014H10.0015H10.0015H10.0015H10.0015H10.0015H10.0015H10.0016H10.0016H10.0016H10.0016H10.0016H10.0016H10.0017H10.0017H10.0017H10.0017H10.0017H10.0018H10.0018H10.0018H10.0018H10.0018H10.0018H10.0019H10.0019H10.0019H10.0019H10.0019H10.002H10.002H10.002H10.002H10.002H10.0021H10.0021H10.0021H10.0021H10.0021H10.0022H10.0022H10.0022H10.0022H10.0022H10.0023H10.0023H10.0023H10.0023H10.0023H10.0024H10.0024H10.0024H10.0024H10.0025H10.0025H10.0025H10.0025H10.0025H10.0026H10.0026H10.0026H10.0026H10.0027H10.0027H10.0027H10.0027H10.0028H10.0028H10.0028H10.0028H10.0028H10.0029H10.0029H10.0029H10.0029H10.003H10.003H10.003H10.003H10.0031H10.0031H10.0031H10.0032H10.0032H10.0032H10.0032H10.0033H10.0033H10.0033H10.0033H10.0034H10.0034H10.0034H10.0034H10.0035H10.0035H10.0035H10.0036H10.0036H10.0036H10.0036H10.0037H10.0037H10.0037H10.0038H10.0038H10.0038H10.0038H10.0039H10.0039H10.0039H10.004H10.004H10.004H10.0041H10.0041H10.0041H10.0042H10.0042H10.0042H10.0042H10.0043H10.0043H10.0043H10.0044H10.0044H10.0044H10.0045H10.0045H10.0045H10.0046H10.0046H10.0046H10.0047H10.0047H10.0047H10.0048H10.0048H10.0048H10.0049H10.0049H10.0049H10.005H10.005H10.005H10.0051H10.0051H10.0052H10.0052H10.0052H10.0053H10.0053H10.0053H10.0054H10.0054H10.0054H10.0055H10.0055H10.0056H10.0056H10.0056H10.0057H10.0057H10.0058H10.0058H10.0058H10.0059H10.0059H10.0059H10.006H10.006H10.0061H10.0061H10.0061H10.0062H10.0062H10.0063H10.0063H10.0063H10.0064H10.0064H10.0065H10.0065H10.0066H10.0066H10.0066H10.0067H10.0067H10.0068H10.0068H10.0069H10.0069H10.0069H10.007H10.007H10.0071H10.0071H10.0072H10.0072H10.0073H10.0073H10.0073H10.0074H10.0074H10.0075H10.0075H10.0076H10.0076H10.0077H10.0077H10.0078H10.0078H10.0079H10.0079H10.0079H10.008H10.008H10.0081H10.0081H10.0082H10.0082C12.9431 1.54199 16.251 3.25908 17.1122 7.06071C18.0677 11.282 15.5242 14.8761 13.0955 17.2144C12.224 18.0482 11.1071 18.467 9.9999 18.467C8.89271 18.467 7.77588 18.0482 6.90437 17.2145C4.47587 14.8764 1.93245 11.2743 2.8957 7.05323ZM16.871 7.10721L16.8706 7.10522C15.9684 3.17161 12.5736 1.79199 9.9999 1.79199C7.42584 1.79199 4.03925 3.17201 3.14576 7.10576C2.183 11.3058 4.82975 14.8629 7.08655 17.0273C8.72181 18.6052 11.2864 18.6052 12.9216 17.0272C15.17 14.8631 17.8161 11.3065 16.871 7.10721Z" fill="#292D32" stroke="#878787"/>
</svg>
