<svg width="98" height="40" viewBox="0 0 98 40" fill="none" xmlns="http://www.w3.org/2000/svg">
<path d="M17.3862 11.1924L13.0479 3.0127H15.0061L18.5461 9.64078L17.3862 11.1924ZM18.8625 10.2885C18.6616 10.871 18.4759 11.3882 18.3051 11.8401C18.1344 12.3021 17.9336 12.6937 17.7026 13.0151C17.4816 13.3364 17.2004 13.5825 16.859 13.7532C16.5276 13.9239 16.0907 14.0093 15.5484 14.0093C15.1367 14.0093 14.7852 13.934 14.494 13.7833C14.2027 13.6427 13.9617 13.4419 13.7709 13.1808C13.5801 12.9197 13.4395 12.6084 13.3491 12.2468C13.2587 11.8953 13.2136 11.5137 13.2136 11.102H14.7199C14.7199 11.3932 14.74 11.6292 14.7802 11.81C14.8304 12.0008 14.8907 12.1514 14.961 12.2619C15.0413 12.3724 15.1317 12.4426 15.2321 12.4728C15.3426 12.5129 15.453 12.533 15.5635 12.533C15.7242 12.533 15.8648 12.4929 15.9853 12.4125C16.1058 12.3322 16.2163 12.2167 16.3167 12.0661C16.4171 11.9255 16.5075 11.7497 16.5879 11.5388C16.6682 11.338 16.7536 11.112 16.8439 10.8609L19.5705 3.0127H21.4083L18.8625 10.2885Z" fill="#8338EC"/>
<path d="M0 10.5447V0H1.80766V10.5447H0ZM0.51217 1.17498L1.80766 0L6.67328 9.11362V10.5447H5.4983L0.51217 1.17498ZM12.1716 10.5447H10.3639V0H12.1716V10.5447ZM11.6745 1.17498L6.67328 10.5447H5.4983V9.11362L10.3639 0L11.6745 1.17498Z" fill="#8338EC"/>
<path d="M93.3573 33.4831H93.8374C93.8374 34.352 93.7803 35.1867 93.6659 35.987C93.5516 36.7644 93.2772 37.4504 92.8428 38.045C92.4083 38.6395 91.7452 39.1197 90.8534 39.4855C89.9845 39.8285 88.784 40 87.2519 40C86.1544 40 85.1482 39.92 84.2336 39.7599C83.3189 39.5999 82.5186 39.314 81.8326 38.9024C81.1695 38.4908 80.6436 37.9421 80.2548 37.2561C79.889 36.5472 79.7061 35.6669 79.7061 34.615C79.7061 33.7461 79.8661 33.0029 80.1863 32.3855C80.5292 31.7681 81.0209 31.2536 81.6611 30.8421C82.3014 30.4076 83.0903 30.0646 84.0278 29.8131C84.9653 29.5387 86.04 29.3443 87.2519 29.23L94.4548 28.5097L94.7978 31.3222L87.835 32.0082C87.2862 32.0768 86.7603 32.1683 86.2573 32.2826C85.7771 32.397 85.354 32.557 84.9882 32.7628C84.6452 32.9458 84.3594 33.1859 84.1307 33.4831C83.9249 33.7804 83.822 34.1348 83.822 34.5464C83.822 34.8665 83.8906 35.1638 84.0278 35.4382C84.165 35.6897 84.3937 35.9069 84.7138 36.0899C85.0339 36.2728 85.4455 36.41 85.9486 36.5015C86.4516 36.5929 87.069 36.6387 87.8007 36.6387C88.8297 36.6387 89.6986 36.5358 90.4075 36.33C91.1163 36.1242 91.688 35.8612 92.1225 35.5411C92.5569 35.221 92.8656 34.878 93.0486 34.5121C93.2544 34.1462 93.3573 33.8032 93.3573 33.4831ZM93.323 28.544C93.323 27.7665 93.1743 27.1606 92.8771 26.7261C92.5798 26.2688 92.2025 25.9258 91.7452 25.6971C91.2879 25.4685 90.7848 25.3198 90.236 25.2512C89.6872 25.1826 89.1841 25.1483 88.7268 25.1483C88.2238 25.1483 87.7093 25.1826 87.1833 25.2512C86.6803 25.297 86.2001 25.4227 85.7428 25.6285C85.3083 25.8343 84.9539 26.143 84.6795 26.5546C84.4051 26.9662 84.2679 27.5379 84.2679 28.2696H80.6664C80.6664 27.1034 80.8494 26.1202 81.2152 25.3198C81.5811 24.4966 82.1185 23.8221 82.8273 23.2962C83.5362 22.7702 84.3822 22.3929 85.3655 22.1643C86.3716 21.9356 87.492 21.8213 88.7268 21.8213C90.1674 21.8213 91.4136 21.9471 92.4655 22.1986C93.5402 22.4272 94.432 22.8274 95.1408 23.3991C95.8497 23.9707 96.3756 24.7253 96.7186 25.6628C97.0845 26.6004 97.2674 27.7551 97.2674 29.1271V39.4855H93.323V28.544Z" fill="#2F1455"/>
<path d="M66.7013 39.4855H62.7568V22.3358H66.7013V39.4855ZM78.2602 29.2643H74.6588C74.6588 28.6926 74.5902 28.1781 74.453 27.7208C74.3158 27.2635 74.0985 26.8747 73.8013 26.5546C73.504 26.2116 73.1267 25.9487 72.6694 25.7657C72.2121 25.5828 71.6633 25.4913 71.023 25.4913C69.6739 25.4913 68.6106 25.9487 67.8332 26.8633C67.0786 27.7551 66.7013 29.0928 66.7013 30.8764V31.288H65.3293V30.9107C65.3293 29.5615 65.4551 28.3268 65.7066 27.2063C65.981 26.0859 66.3926 25.1255 66.9414 24.3252C67.4902 23.5248 68.1762 22.9074 68.9993 22.473C69.8225 22.0385 70.7829 21.8213 71.8805 21.8213C72.9324 21.8213 73.847 21.9814 74.6245 22.3015C75.4248 22.5987 76.0879 23.0561 76.6138 23.6735C77.1626 24.268 77.5742 25.034 77.8486 25.9715C78.123 26.909 78.2602 28.0066 78.2602 29.2643Z" fill="#2F1455"/>
<path d="M23.5459 22.3354H27.4903V31.562C27.4903 32.2937 27.5589 32.9569 27.6961 33.5514C27.8333 34.123 28.0734 34.6147 28.4164 35.0263C28.7594 35.4379 29.2167 35.758 29.7884 35.9866C30.3829 36.1924 31.1375 36.2953 32.0522 36.2953C33.6757 36.2953 34.9105 35.8495 35.7565 34.9577C36.6026 34.043 37.0256 32.6939 37.0256 30.9103V30.4987H38.3976V30.9103C38.3976 32.2594 38.2718 33.4942 38.0203 34.6147C37.7688 35.7123 37.3457 36.6612 36.7512 37.4615C36.1795 38.2618 35.4135 38.8907 34.4531 39.348C33.5156 39.7825 32.3494 39.9997 30.9546 39.9997C29.7198 39.9997 28.6337 39.8511 27.6961 39.5538C26.7815 39.2565 26.0155 38.7878 25.3981 38.1475C24.7807 37.4844 24.3119 36.6383 23.9918 35.6094C23.6945 34.5804 23.5459 33.3342 23.5459 31.8707V22.3354ZM37.0256 22.3354H40.97V39.4852H37.0256V22.3354Z" fill="#2F1455"/>
<path d="M9.53526 29.4701C8.16328 29.1957 6.90563 28.8985 5.76232 28.5783C4.619 28.2353 3.63575 27.7894 2.81256 27.2406C1.98937 26.6919 1.34911 26.0059 0.891787 25.1827C0.43446 24.3595 0.205797 23.3305 0.205797 22.0957C0.205797 19.5576 1.04042 17.7397 2.70966 16.6421C4.40177 15.5217 7.05426 14.9614 10.6671 14.9614C12.2449 14.9614 13.6626 15.1101 14.9203 15.4073C16.1779 15.6817 17.2412 16.139 18.1101 16.7793C18.9791 17.4196 19.6422 18.2656 20.0995 19.3175C20.5797 20.3464 20.8198 21.6155 20.8198 23.1247H16.8753C16.8753 22.1872 16.6924 21.444 16.3266 20.8952C15.9836 20.3236 15.5034 19.8891 14.886 19.5919C14.2915 19.2946 13.594 19.1117 12.7937 19.0431C12.0163 18.9516 11.1931 18.9059 10.3241 18.9059C9.24943 18.9059 8.33478 18.9745 7.58019 19.1117C6.84846 19.226 6.25394 19.4089 5.79662 19.6605C5.33929 19.912 5.00773 20.2207 4.80193 20.5865C4.59613 20.9524 4.49323 21.3754 4.49323 21.8556C4.49323 22.3587 4.63043 22.7931 4.90483 23.159C5.17922 23.502 5.59082 23.7993 6.13961 24.0508C6.71127 24.3023 7.42012 24.5196 8.26618 24.7025C9.11223 24.8854 10.0955 25.0683 11.2159 25.2513C12.7937 25.5028 14.1886 25.8115 15.4005 26.1774C16.6353 26.5204 17.6757 26.9777 18.5217 27.5493C19.3678 28.121 20.008 28.8413 20.4425 29.7102C20.877 30.5563 21.0942 31.6081 21.0942 32.8658C21.0942 35.3811 20.2253 37.1989 18.4874 38.3194C16.7725 39.4398 14.0742 40.0001 10.3927 40.0001C8.7921 40.0001 7.34009 39.8514 6.03671 39.5542C4.7562 39.2798 3.67005 38.8224 2.77826 38.1822C1.88647 37.5419 1.20048 36.7073 0.720289 35.6783C0.240096 34.6265 0 33.346 0 31.8368H3.94444C3.94444 32.7972 4.12737 33.5632 4.49323 34.1348C4.88196 34.6836 5.38502 35.1067 6.00241 35.4039C6.64267 35.7012 7.37439 35.8955 8.19758 35.987C9.02077 36.0785 9.87825 36.1242 10.77 36.1242C12.8051 36.1242 14.3143 35.8841 15.2976 35.4039C16.3037 34.9237 16.8068 34.1577 16.8068 33.1059C16.8068 32.3513 16.5667 31.7682 16.0865 31.3566C15.6291 30.945 15.046 30.6249 14.3372 30.3962C13.6283 30.1675 12.8394 29.996 11.9705 29.8817C11.1245 29.7445 10.3127 29.6073 9.53526 29.4701Z" fill="#2F1455"/>
<path fill-rule="evenodd" clip-rule="evenodd" d="M46.2277 25.4227V32.8657C46.2277 34.0318 46.3534 35.038 46.605 35.884C46.8794 36.7072 47.2795 37.3932 47.8054 37.942C48.3314 38.4679 48.9831 38.8566 49.7605 39.1081C50.538 39.3597 51.4298 39.4854 52.4359 39.4854C53.442 39.4854 54.3452 39.3711 55.1456 39.1424C55.9459 38.9138 56.6204 38.5251 57.1692 37.9763C57.718 37.4275 58.141 36.7072 58.4383 35.8154C58.7356 34.9008 58.8842 33.7803 58.8842 32.4541H55.2828C55.2828 33.0943 55.2142 33.6317 55.077 34.0661C54.9398 34.5006 54.7454 34.8436 54.4939 35.0951C54.2652 35.3467 53.9794 35.5296 53.6364 35.6439C53.3162 35.7354 52.9618 35.7811 52.5731 35.7811C52.0472 35.7811 51.6241 35.6896 51.304 35.5067C50.9839 35.3009 50.7438 35.0494 50.5837 34.7521C50.4236 34.432 50.3093 34.0661 50.2407 33.6546C50.195 33.2201 50.1721 32.7856 50.1721 32.3512V25.4227H58.747V21.8213H50.1721V14.9614H47.5996L46.2277 21.8213L44.2832 25.4227H46.2277ZM58.9005 27.1272H55.2848V30.743H58.9005V27.1272Z" fill="url(#paint0_linear_70_41508)"/>
<defs>
<linearGradient id="paint0_linear_70_41508" x1="50.4975" y1="14.9614" x2="50.4975" y2="39.4856" gradientUnits="userSpaceOnUse">
<stop stop-color="#8338EC"/>
<stop offset="1"/>
</linearGradient>
</defs>
</svg>
