<svg width="98" height="40" viewBox="0 0 98 40" fill="none" xmlns="http://www.w3.org/2000/svg">
<path d="M17.3866 11.1924L13.0482 3.0127H15.0065L18.5465 9.64078L17.3866 11.1924ZM18.8629 10.2885C18.662 10.871 18.4762 11.3882 18.3055 11.8401C18.1348 12.3021 17.9339 12.6937 17.7029 13.0151C17.482 13.3364 17.2008 13.5825 16.8594 13.7532C16.528 13.9239 16.0911 14.0093 15.5488 14.0093C15.1371 14.0093 14.7856 13.934 14.4943 13.7833C14.2031 13.6427 13.9621 13.4419 13.7713 13.1808C13.5805 12.9197 13.4399 12.6084 13.3495 12.2468C13.2591 11.8953 13.2139 11.5137 13.2139 11.102H14.7203C14.7203 11.3932 14.7404 11.6292 14.7806 11.81C14.8308 12.0008 14.891 12.1514 14.9613 12.2619C15.0417 12.3724 15.132 12.4426 15.2325 12.4728C15.3429 12.5129 15.4534 12.533 15.5639 12.533C15.7246 12.533 15.8652 12.4929 15.9857 12.4125C16.1062 12.3322 16.2166 12.2167 16.3171 12.0661C16.4175 11.9255 16.5079 11.7497 16.5882 11.5388C16.6686 11.338 16.7539 11.112 16.8443 10.8609L19.5709 3.0127H21.4086L18.8629 10.2885Z" fill="#8338EC"/>
<path d="M0 10.5447V0H1.80766V10.5447H0ZM0.51217 1.17498L1.80766 0L6.67328 9.11362V10.5447H5.4983L0.51217 1.17498ZM12.1716 10.5447H10.3639V0H12.1716V10.5447ZM11.6745 1.17498L6.67328 10.5447H5.4983V9.11362L10.3639 0L11.6745 1.17498Z" fill="#8338EC"/>
<path d="M93.3569 33.4834H93.8371C93.8371 34.3523 93.7799 35.1869 93.6656 35.9872C93.5512 36.7647 93.2769 37.4507 92.8424 38.0452C92.4079 38.6397 91.7448 39.1199 90.853 39.4858C89.9841 39.8288 88.7836 40.0003 87.2516 40.0003C86.154 40.0003 85.1479 39.9202 84.2332 39.7602C83.3186 39.6001 82.5182 39.3143 81.8323 38.9027C81.1691 38.4911 80.6432 37.9423 80.2545 37.2563C79.8886 36.5475 79.7057 35.6671 79.7057 34.6152C79.7057 33.7463 79.8658 33.0032 80.1859 32.3858C80.5289 31.7684 81.0205 31.2539 81.6608 30.8423C82.301 30.4078 83.0899 30.0648 84.0274 29.8133C84.9649 29.5389 86.0397 29.3446 87.2516 29.2302L94.4545 28.5099L94.7975 31.3225L87.8347 32.0085C87.2859 32.0771 86.7599 32.1685 86.2569 32.2829C85.7767 32.3972 85.3537 32.5573 84.9878 32.7631C84.6448 32.946 84.359 33.1861 84.1303 33.4834C83.9245 33.7806 83.8216 34.1351 83.8216 34.5466C83.8216 34.8668 83.8902 35.164 84.0274 35.4384C84.1646 35.69 84.3933 35.9072 84.7134 36.0901C85.0335 36.2731 85.4451 36.4103 85.9482 36.5017C86.4513 36.5932 87.0686 36.6389 87.8004 36.6389C88.8294 36.6389 89.6983 36.536 90.4071 36.3302C91.116 36.1244 91.6876 35.8615 92.1221 35.5413C92.5566 35.2212 92.8653 34.8782 93.0482 34.5123C93.254 34.1465 93.3569 33.8035 93.3569 33.4834ZM93.3226 28.5442C93.3226 27.7668 93.174 27.1608 92.8767 26.7264C92.5794 26.269 92.2021 25.926 91.7448 25.6974C91.2875 25.4687 90.7844 25.3201 90.2356 25.2515C89.6868 25.1829 89.1838 25.1486 88.7265 25.1486C88.2234 25.1486 87.7089 25.1829 87.183 25.2515C86.6799 25.2972 86.1997 25.423 85.7424 25.6288C85.3079 25.8346 84.9535 26.1433 84.6791 26.5549C84.4047 26.9665 84.2675 27.5381 84.2675 28.2698H80.6661C80.6661 27.1037 80.849 26.1204 81.2149 25.3201C81.5807 24.4969 82.1181 23.8223 82.8269 23.2964C83.5358 22.7705 84.3819 22.3932 85.3651 22.1645C86.3712 21.9359 87.4917 21.8215 88.7265 21.8215C90.167 21.8215 91.4132 21.9473 92.4651 22.1988C93.5398 22.4275 94.4316 22.8277 95.1405 23.3993C95.8493 23.971 96.3752 24.7256 96.7182 25.6631C97.0841 26.6006 97.267 27.7553 97.267 29.1273V39.4858H93.3226V28.5442Z" fill="#2F1455"/>
<path d="M66.7016 39.4858H62.7572V22.336H66.7016V39.4858ZM78.2606 29.2645H74.6591C74.6591 28.6929 74.5905 28.1784 74.4533 27.721C74.3161 27.2637 74.0989 26.875 73.8016 26.5549C73.5044 26.2119 73.1271 25.9489 72.6698 25.766C72.2124 25.583 71.6636 25.4916 71.0234 25.4916C69.6743 25.4916 68.611 25.9489 67.8335 26.8636C67.0789 27.7553 66.7016 29.093 66.7016 30.8766V31.2882H65.3297V30.9109C65.3297 29.5618 65.4554 28.327 65.707 27.2066C65.9814 26.0861 66.3929 25.1257 66.9417 24.3254C67.4905 23.5251 68.1765 22.9077 68.9997 22.4732C69.8229 22.0388 70.7833 21.8215 71.8809 21.8215C72.9327 21.8215 73.8474 21.9816 74.6248 22.3017C75.4251 22.599 76.0883 23.0563 76.6142 23.6737C77.163 24.2682 77.5746 25.0343 77.849 25.9718C78.1234 26.9093 78.2606 28.0069 78.2606 29.2645Z" fill="#2F1455"/>
<path d="M23.5457 22.3357H27.4901V31.5623C27.4901 32.294 27.5587 32.9571 27.6959 33.5516C27.8331 34.1233 28.0732 34.6149 28.4162 35.0265C28.7592 35.4381 29.2165 35.7582 29.7882 35.9869C30.3827 36.1927 31.1373 36.2956 32.0519 36.2956C33.6754 36.2956 34.9102 35.8497 35.7563 34.9579C36.6023 34.0433 37.0254 32.6941 37.0254 30.9106V30.499H38.3973V30.9106C38.3973 32.2597 38.2716 33.4945 38.02 34.6149C37.7685 35.7125 37.3455 36.6614 36.751 37.4618C36.1793 38.2621 35.4133 38.8909 34.4529 39.3482C33.5154 39.7827 32.3492 39.9999 30.9543 39.9999C29.7196 39.9999 28.6334 39.8513 27.6959 39.554C26.7812 39.2568 26.0152 38.788 25.3978 38.1478C24.7804 37.4846 24.3117 36.6386 23.9915 35.6096C23.6943 34.5806 23.5457 33.3344 23.5457 31.871V22.3357ZM37.0254 22.3357H40.9698V39.4854H37.0254V22.3357Z" fill="#2F1455"/>
<path d="M9.53526 29.4701C8.16328 29.1957 6.90563 28.8985 5.76232 28.5783C4.619 28.2353 3.63575 27.7894 2.81256 27.2406C1.98937 26.6919 1.34911 26.0059 0.891787 25.1827C0.43446 24.3595 0.205797 23.3305 0.205797 22.0957C0.205797 19.5576 1.04042 17.7397 2.70966 16.6421C4.40177 15.5217 7.05426 14.9614 10.6671 14.9614C12.2449 14.9614 13.6626 15.1101 14.9203 15.4073C16.1779 15.6817 17.2412 16.139 18.1101 16.7793C18.9791 17.4196 19.6422 18.2656 20.0995 19.3175C20.5797 20.3464 20.8198 21.6155 20.8198 23.1247H16.8753C16.8753 22.1872 16.6924 21.444 16.3266 20.8952C15.9836 20.3236 15.5034 19.8891 14.886 19.5919C14.2915 19.2946 13.594 19.1117 12.7937 19.0431C12.0163 18.9516 11.1931 18.9059 10.3241 18.9059C9.24943 18.9059 8.33478 18.9745 7.58019 19.1117C6.84846 19.226 6.25394 19.4089 5.79662 19.6605C5.33929 19.912 5.00773 20.2207 4.80193 20.5865C4.59613 20.9524 4.49323 21.3754 4.49323 21.8556C4.49323 22.3587 4.63043 22.7931 4.90483 23.159C5.17922 23.502 5.59082 23.7993 6.13961 24.0508C6.71127 24.3023 7.42012 24.5196 8.26618 24.7025C9.11223 24.8854 10.0955 25.0683 11.2159 25.2513C12.7937 25.5028 14.1886 25.8115 15.4005 26.1774C16.6353 26.5204 17.6757 26.9777 18.5217 27.5493C19.3678 28.121 20.008 28.8413 20.4425 29.7102C20.877 30.5563 21.0942 31.6081 21.0942 32.8658C21.0942 35.3811 20.2253 37.1989 18.4874 38.3194C16.7725 39.4398 14.0742 40.0001 10.3927 40.0001C8.7921 40.0001 7.34009 39.8514 6.03671 39.5542C4.7562 39.2798 3.67005 38.8224 2.77826 38.1822C1.88647 37.5419 1.20048 36.7073 0.720289 35.6783C0.240096 34.6265 0 33.346 0 31.8368H3.94444C3.94444 32.7972 4.12737 33.5632 4.49323 34.1348C4.88196 34.6836 5.38502 35.1067 6.00241 35.4039C6.64267 35.7012 7.37439 35.8955 8.19758 35.987C9.02077 36.0785 9.87825 36.1242 10.77 36.1242C12.8051 36.1242 14.3143 35.8841 15.2976 35.4039C16.3037 34.9237 16.8068 34.1577 16.8068 33.1059C16.8068 32.3513 16.5667 31.7682 16.0865 31.3566C15.6291 30.945 15.046 30.6249 14.3372 30.3962C13.6283 30.1675 12.8394 29.996 11.9705 29.8817C11.1245 29.7445 10.3127 29.6073 9.53526 29.4701Z" fill="#2F1455"/>
<path fill-rule="evenodd" clip-rule="evenodd" d="M46.2273 25.4227V32.8657C46.2273 34.0318 46.3531 35.038 46.6046 35.884C46.879 36.7072 47.2791 37.3932 47.8051 37.942C48.331 38.4679 48.9827 38.8566 49.7602 39.1081C50.5376 39.3597 51.4294 39.4854 52.4355 39.4854C53.4416 39.4854 54.3449 39.3711 55.1452 39.1424C55.9455 38.9138 56.6201 38.5251 57.1689 37.9763C57.7177 37.4275 58.1407 36.7072 58.4379 35.8154C58.7352 34.9008 58.8838 33.7803 58.8838 32.4541H55.2824C55.2824 33.0943 55.2138 33.6317 55.0766 34.0661C54.9394 34.5006 54.745 34.8436 54.4935 35.0951C54.2648 35.3467 53.979 35.5296 53.636 35.6439C53.3159 35.7354 52.9614 35.7811 52.5727 35.7811C52.0468 35.7811 51.6238 35.6896 51.3036 35.5067C50.9835 35.3009 50.7434 35.0494 50.5833 34.7521C50.4233 34.432 50.3089 34.0661 50.2403 33.6546C50.1946 33.2201 50.1717 32.7856 50.1717 32.3512V25.4227H58.7466V21.8213H50.1717V14.9614H47.5993L46.2273 21.8213L44.2828 25.4227H46.2273ZM58.9002 27.1272H55.2844V30.743H58.9002V27.1272Z" fill="url(#paint0_linear_209_8039)"/>
<defs>
<linearGradient id="paint0_linear_209_8039" x1="50.4971" y1="14.9614" x2="50.4971" y2="39.4856" gradientUnits="userSpaceOnUse">
<stop stop-color="#8338EC"/>
<stop offset="1"/>
</linearGradient>
</defs>
</svg>
