<svg width="294" height="142" viewBox="0 0 294 142" fill="none" xmlns="http://www.w3.org/2000/svg">
<path d="M129.483 70.7183H125.384V84.9678C123.906 84.0905 121.775 83.3385 118.993 82.7119C116.386 82.1104 114.13 81.8096 112.225 81.8096C107.638 81.8096 103.791 82.6242 100.683 84.2534C98.9283 85.1808 98.051 86.3965 98.051 87.9004C98.051 89.9056 99.1037 90.9082 101.209 90.9082C102.488 90.9082 104.154 90.5322 106.21 89.7803C107.538 89.304 109.243 88.7025 111.323 87.9756C112.2 87.6748 113.754 87.5244 115.985 87.5244C120.321 87.5244 123.555 88.8654 125.685 91.5474C126.713 92.8257 127.227 94.3296 127.227 96.0591C127.227 100.044 124.72 103.178 119.707 105.458C117.627 106.411 115.647 106.95 113.767 107.075C115.571 108.88 117.288 109.782 118.918 109.782C119.444 109.782 120.008 109.707 120.61 109.557L124.407 115.76C123.63 116.437 122.038 116.775 119.632 116.775C117.677 116.775 116.023 116.111 114.669 114.783C113.942 114.056 112.915 112.539 111.586 110.233C110.458 108.253 109.518 107.251 108.766 107.226C104.129 107.1 100.557 106.261 98.051 104.707C96.4719 103.729 95.6823 102.388 95.6823 100.684C95.6823 98.5781 96.9356 97.5254 99.4421 97.5254C100.37 97.5254 102.3 98.2523 105.232 99.7061C108.19 101.135 110.621 101.849 112.526 101.849C116.336 101.849 119.908 100.947 123.241 99.1421C124.871 98.2648 125.685 97.187 125.685 95.9087C125.685 94.0037 124.181 93.0513 121.174 93.0513C120.246 93.0513 117.251 93.728 112.188 95.0815C109.205 95.8836 107.375 96.2847 106.698 96.2847C102.713 96.2847 99.4296 94.4048 96.8479 90.645C95.5946 88.8403 94.968 86.8978 94.968 84.8174C94.9429 80.5814 97.8379 77.724 103.653 76.2451C106.034 75.6436 108.278 75.3428 110.383 75.3428C112.789 75.3428 116.198 75.9318 120.61 77.1099V70.7183H90.6818V66.2065H129.483V70.7183ZM175.066 70.7183H143.597V94.8184C143.597 96.4225 143.935 98.0768 144.612 99.7812C145.99 103.265 148.271 105.007 151.455 105.007C155.741 105.007 158.999 103.215 161.23 99.6309C162.96 96.8737 163.824 94.2795 163.824 91.8481V76.8843H171.457V108.917C170.855 108.567 169.727 108.028 168.073 107.301L163.749 105.383V102.375C160.791 104.531 158.26 105.897 156.154 106.474C154.876 106.825 153.36 107 151.605 107C146.041 107 141.692 104.556 138.559 99.6685C137.13 97.4377 136.416 95.0063 136.416 92.3745V70.7183H131.866V66.2065H175.066V70.7183ZM211.889 70.7183H192.865V100.984C192.865 101.837 193.14 102.664 193.692 103.466C194.268 104.343 194.97 104.782 195.797 104.782C199.532 104.782 201.399 100.922 201.399 93.2017L208.957 97.5254C206.074 103.917 201.612 107.1 195.572 107.075C192.063 107.05 189.331 105.446 187.375 102.263C186.523 100.884 186.097 99.5055 186.097 98.127V70.7183H178.239V66.2065H186.097V53.5737L192.865 58.2734V66.2065H211.889V70.7183ZM252.886 70.7183H214.874V66.2065H252.886V70.7183ZM249.765 84.2158C249.765 85.6947 248.875 87.3615 247.096 89.2163C245.592 90.7954 244.013 91.9735 242.358 92.7505L236.719 86.3589C238.423 86.2085 240.04 85.5819 241.569 84.479C243.323 83.2257 244.201 81.797 244.201 80.1929C244.201 79.3407 243.649 78.6138 242.546 78.0122C241.594 77.4608 240.654 77.1851 239.726 77.1851C237.796 77.1851 235.729 78.1125 233.523 79.9673C229.036 83.7271 226.793 87.8879 226.793 92.4497V108.391L219.574 104.631V76.8091H226.868V79.6665C227.946 78.5887 230.177 77.4608 233.56 76.2827C235.215 75.7062 236.919 75.418 238.674 75.418C242.308 75.418 245.391 76.8091 247.923 79.5913C249.151 80.9448 249.765 82.4863 249.765 84.2158ZM292.829 70.7183H267.789V76.7339C267.89 76.7339 267.99 76.784 268.09 76.8843C268.19 76.9845 268.278 77.0347 268.353 77.0347C268.153 77.0347 268.04 77.0221 268.015 76.9971C268.015 76.8717 269.882 76.4707 273.617 75.7939C274.996 75.5433 276.362 75.418 277.715 75.418C283.355 75.418 286.977 76.9971 288.581 80.1553C289.659 82.2607 290.198 86.5093 290.198 92.9009V107.376C289.671 107.175 287.679 106.361 284.22 104.932C284.22 104.13 284.057 103.616 283.731 103.391C282.402 104.168 281.312 104.757 280.46 105.158C277.753 106.436 274.607 107.075 271.023 107.075C266.085 107.075 262.275 105.521 259.593 102.413C258.29 100.909 257.638 99.2298 257.638 97.375C257.638 95.2946 258.666 93.2267 260.721 91.1714C264.706 87.186 269.657 85.1934 275.572 85.1934C279.156 85.1934 282.039 86.0205 284.22 87.6748V84.2158C283.117 82.8122 282.039 81.8722 280.986 81.396C279.958 80.9198 278.542 80.7067 276.738 80.7568C272.702 80.832 269.005 81.5715 265.646 82.9751C264.142 83.6017 262.676 84.1657 261.247 84.667V81.8848C261.573 81.609 262.049 81.1955 262.676 80.644C262.776 80.5187 262.839 80.4435 262.864 80.4185V70.7183H255.157V66.2065H292.829V70.7183ZM284.22 94.5176C284.22 93.4147 282.904 92.4246 280.272 91.5474C278.091 90.8205 276.274 90.457 274.82 90.457C269.531 90.457 265.295 92.362 262.112 96.1719C260.834 97.7008 260.195 98.9541 260.195 99.9316C260.721 101.761 262.789 102.676 266.398 102.676C271.06 102.676 275.321 101.511 279.181 99.1797C282.54 97.1494 284.22 95.5954 284.22 94.5176Z" fill="#8338EC"/>
<path fill-rule="evenodd" clip-rule="evenodd" d="M15.4094 31.4734C11.3698 32.283 7.97211 34.4078 4.77921 38.1201C0.295263 43.3342 0.0788825 45.0542 0.0788825 75.5059V102.745H4.42099H8.7631V76.1095C8.7631 53.7515 8.94258 49.0265 9.88264 46.6885C11.4205 42.8631 14.7132 40.5993 19.2276 40.2636C24.0133 39.9078 27.3531 41.7164 29.5509 45.853C31.0164 48.6109 31.1973 49.9672 31.1973 58.2013V67.4518H35.5394H39.8815V58.2013C39.8815 49.9672 40.0625 48.6109 41.5279 45.853C44.4907 40.2766 50.967 38.499 56.6797 41.6941C61.2035 44.2251 61.8816 46.1771 62.1877 57.548L62.4547 67.4518H66.7274H71V57.3953C71 44.9505 69.8609 41.1928 64.6048 36.2993C60.3857 32.3716 56.9909 31.1666 50.375 31.2473C44.2548 31.3215 42.295 32.0136 38.4718 35.4515L35.5394 38.0884L32.6071 35.4515C30.994 34.0009 28.9582 32.5481 28.084 32.2225C23.8816 30.6575 18.6819 30.8173 15.4094 31.4734ZM31.3261 85.2785C31.6286 97.5592 32.4008 99.7862 38.0825 104.764C43.8691 109.833 50.4806 111.108 57.8506 108.575C62.6508 106.925 63.0322 107.504 61.2838 113.791C59.0751 121.734 54.1808 127.597 46.3947 131.627C43.6266 133.061 42.0526 133.316 35.9013 133.335C29.5321 133.354 28.1665 133.125 24.5134 131.421C17.2186 128.018 11.9068 121.537 9.86455 113.549L9.03593 110.308L4.51796 110.093L0 109.877L0.462435 112.614C2.46342 124.459 9.80521 134.069 20.8732 139.329C26.429 141.969 26.5969 142 35.5394 142C44.4299 142 44.6789 141.955 50.0305 139.412C56.8223 136.183 63.4896 130.165 66.4799 124.564C70.4949 117.043 71 113.525 71 93.0978V74.6545H66.6579H62.3158V83.1451C62.3158 93.844 61.0008 97.1047 55.6159 99.7632C51.6327 101.73 48.717 101.504 44.8475 98.932C40.7449 96.2043 39.8837 93.5249 39.883 83.4778L39.8815 74.6545H35.4729H31.0649L31.3261 85.2785Z" fill="#2A0065"/>
</svg>
