<svg width="24" height="25" viewBox="0 0 24 25" fill="none" xmlns="http://www.w3.org/2000/svg">
<path d="M19 9.5C19 10.95 18.57 12.28 17.83 13.39C16.75 14.99 15.04 16.12 13.05 16.41C12.71 16.47 12.36 16.5 12 16.5C11.64 16.5 11.29 16.47 10.95 16.41C8.96 16.12 7.25 14.99 6.17 13.39C5.43 12.28 5 10.95 5 9.5C5 5.63 8.13 2.5 12 2.5C15.87 2.5 19 5.63 19 9.5Z" stroke="#FB5607" stroke-width="1.5" stroke-linecap="round" stroke-linejoin="round"/>
<path d="M21.2501 18.9699L19.6001 19.3599C19.2301 19.4499 18.9401 19.7299 18.8601 20.0999L18.5101 21.5699C18.3201 22.3699 17.3001 22.6099 16.7701 21.9799L12.0001 16.4999L7.23008 21.9899C6.70008 22.6199 5.68008 22.3799 5.49008 21.5799L5.14008 20.1099C5.05008 19.7399 4.76008 19.4499 4.40008 19.3699L2.75008 18.9799C1.99008 18.7999 1.72008 17.8499 2.27008 17.2999L6.17008 13.3999C7.25008 14.9999 8.96008 16.1299 10.9501 16.4199C11.2901 16.4799 11.6401 16.5099 12.0001 16.5099C12.3601 16.5099 12.7101 16.4799 13.0501 16.4199C15.0401 16.1299 16.7501 14.9999 17.8301 13.3999L21.7301 17.2999C22.2801 17.8399 22.0101 18.7899 21.2501 18.9699Z" stroke="#FB5607" stroke-width="1.5" stroke-linecap="round" stroke-linejoin="round"/>
<path d="M12.58 6.48L13.17 7.65999C13.25 7.81999 13.46 7.98 13.65 8.01L14.72 8.18999C15.4 8.29999 15.56 8.8 15.07 9.29L14.24 10.12C14.1 10.26 14.02 10.53 14.07 10.73L14.31 11.76C14.5 12.57 14.07 12.89 13.35 12.46L12.35 11.87C12.17 11.76 11.87 11.76 11.69 11.87L10.69 12.46C9.96997 12.88 9.53997 12.57 9.72997 11.76L9.96997 10.73C10.01 10.54 9.93997 10.26 9.79997 10.12L8.96997 9.29C8.47997 8.8 8.63997 8.30999 9.31997 8.18999L10.39 8.01C10.57 7.98 10.78 7.81999 10.86 7.65999L11.45 6.48C11.74 5.84 12.26 5.84 12.58 6.48Z" stroke="#FB5607" stroke-width="1.5" stroke-linecap="round" stroke-linejoin="round"/>
</svg>
