<svg width="25" height="25" viewBox="0 0 25 25" fill="none" xmlns="http://www.w3.org/2000/svg">
<path d="M17.1936 21.4561H7.1936C4.1936 21.4561 2.1936 19.9561 2.1936 16.4561V9.45605C2.1936 5.95605 4.1936 4.45605 7.1936 4.45605H17.1936C20.1936 4.45605 22.1936 5.95605 22.1936 9.45605V16.4561C22.1936 19.9561 20.1936 21.4561 17.1936 21.4561Z" stroke="#393939" stroke-width="1.5" stroke-miterlimit="10" stroke-linecap="round" stroke-linejoin="round"/>
<path d="M12.1936 15.9561C13.8505 15.9561 15.1936 14.6129 15.1936 12.9561C15.1936 11.2992 13.8505 9.95605 12.1936 9.95605C10.5367 9.95605 9.1936 11.2992 9.1936 12.9561C9.1936 14.6129 10.5367 15.9561 12.1936 15.9561Z" stroke="#393939" stroke-width="1.5" stroke-miterlimit="10" stroke-linecap="round" stroke-linejoin="round"/>
<path d="M19.1936 7.95605H16.1936" stroke="#393939" stroke-width="1.5" stroke-miterlimit="10" stroke-linecap="round" stroke-linejoin="round"/>
<path d="M8.1936 17.9561H5.1936" stroke="#393939" stroke-width="1.5" stroke-miterlimit="10" stroke-linecap="round" stroke-linejoin="round"/>
</svg>
