<svg width="16" height="16" viewBox="0 0 16 16" fill="none" xmlns="http://www.w3.org/2000/svg">
<path d="M7.36659 9.96634L6.13325 11.1997C5.87325 11.4597 5.45992 11.4597 5.19325 11.2063C5.11992 11.133 5.04659 11.0663 4.97325 10.993C4.28659 10.2997 3.66659 9.57301 3.11325 8.81301C2.56659 8.05301 2.12659 7.29301 1.80659 6.53967C1.49325 5.77968 1.33325 5.05301 1.33325 4.35967C1.33325 3.90634 1.41325 3.47301 1.57325 3.07301C1.73325 2.66634 1.98659 2.29301 2.33992 1.95967C2.76659 1.53967 3.23325 1.33301 3.72659 1.33301C3.91325 1.33301 4.09992 1.37301 4.26659 1.45301C4.43992 1.53301 4.59325 1.65301 4.71325 1.82634L6.25992 4.00634C6.37992 4.17301 6.46659 4.32634 6.52659 4.47301C6.58659 4.61301 6.61992 4.75301 6.61992 4.87967C6.61992 5.03967 6.57325 5.19967 6.47992 5.35301C6.39325 5.50634 6.26658 5.66634 6.10659 5.82634L5.59992 6.35301C5.52658 6.42634 5.49325 6.51301 5.49325 6.61967C5.49325 6.67301 5.49992 6.71967 5.51325 6.77301C5.53325 6.82634 5.55325 6.86634 5.56659 6.90634C5.68659 7.12634 5.89325 7.41301 6.18658 7.75968C6.48658 8.10634 6.80658 8.45967 7.15325 8.81301C7.21992 8.87967 7.29325 8.94634 7.35992 9.01301C7.62659 9.27301 7.63325 9.69967 7.36659 9.96634Z" fill="#85799E"/>
<path d="M14.6466 12.2204C14.6466 12.407 14.6132 12.6004 14.5466 12.787C14.5266 12.8404 14.5066 12.8937 14.4799 12.947C14.3666 13.187 14.2199 13.4137 14.0266 13.627C13.6999 13.987 13.3399 14.247 12.9332 14.4137C12.9266 14.4137 12.9199 14.4204 12.9132 14.4204C12.5199 14.5804 12.0932 14.667 11.6332 14.667C10.9532 14.667 10.2266 14.507 9.4599 14.1804C8.69324 13.8537 7.92657 13.4137 7.16657 12.8604C6.90657 12.667 6.64657 12.4737 6.3999 12.267L8.5799 10.087C8.76657 10.227 8.93324 10.3337 9.07324 10.407C9.10657 10.4204 9.14657 10.4404 9.19324 10.4604C9.24657 10.4804 9.2999 10.487 9.3599 10.487C9.47324 10.487 9.5599 10.447 9.63324 10.3737L10.1399 9.87369C10.3066 9.70702 10.4666 9.58035 10.6199 9.50035C10.7732 9.40702 10.9266 9.36035 11.0932 9.36035C11.2199 9.36035 11.3532 9.38702 11.4999 9.44702C11.6466 9.50702 11.7999 9.59369 11.9666 9.70702L14.1732 11.2737C14.3466 11.3937 14.4666 11.5337 14.5399 11.7004C14.6066 11.867 14.6466 12.0337 14.6466 12.2204Z" fill="#85799E"/>
</svg>
