<svg width="21" height="21" viewBox="0 0 21 21" fill="none" xmlns="http://www.w3.org/2000/svg">
<path d="M8.32435 5.50866C8.47435 5.71699 8.58268 5.90866 8.65768 6.09199C8.73268 6.26699 8.77435 6.44199 8.77435 6.60033C8.77435 6.80033 8.71602 7.00033 8.59935 7.19199C8.49102 7.38366 8.33268 7.58366 8.13268 7.78366L7.49935 8.44199C7.40768 8.53366 7.36602 8.64199 7.36602 8.77533C7.36602 8.84199 7.37435 8.90033 7.39102 8.96699C7.41602 9.03366 7.44102 9.08366 7.45768 9.13366C7.60768 9.40866 7.86602 9.76699 8.23268 10.2003C8.60768 10.6337 9.00768 11.0753 9.44102 11.517C9.89102 11.9587 10.3243 12.367 10.766 12.742C11.1993 13.1087 11.5577 13.3587 11.841 13.5087C11.8827 13.5253 11.9327 13.5503 11.991 13.5753C12.0577 13.6003 12.1243 13.6087 12.1993 13.6087C12.341 13.6087 12.4493 13.5587 12.541 13.467L13.1743 12.842C13.3827 12.6337 13.5827 12.4753 13.7743 12.3753C13.966 12.2587 14.1577 12.2003 14.366 12.2003C14.5243 12.2003 14.691 12.2337 14.8743 12.3087C15.0577 12.3837 15.2494 12.492 15.4577 12.6337L18.216 14.592C18.4327 14.742 18.5827 14.917 18.6743 15.1253C18.7577 15.3337 18.8077 15.542 18.8077 15.7753C18.8077 16.0753 18.741 16.3837 18.5993 16.6837C18.4577 16.9837 18.2744 17.267 18.0327 17.5337C17.6244 17.9837 17.1743 18.3087 16.666 18.517C16.166 18.7253 15.6244 18.8337 15.041 18.8337C14.191 18.8337 13.2827 18.6337 12.3243 18.2253C11.366 17.817 10.4077 17.267 9.45768 16.5753C8.49935 15.8753 7.59102 15.1003 6.72435 14.242C5.86602 13.3753 5.09102 12.467 4.39935 11.517C3.71602 10.567 3.16602 9.61699 2.76602 8.67533C2.36602 7.72533 2.16602 6.81699 2.16602 5.95033C2.16602 5.38366 2.26602 4.84199 2.46602 4.34199C2.66602 3.83366 2.98268 3.36699 3.42435 2.95033C3.95768 2.42533 4.54102 2.16699 5.15768 2.16699C5.39102 2.16699 5.62435 2.21699 5.83268 2.31699C6.04935 2.41699 6.24102 2.56699 6.39102 2.78366" stroke="#929292" stroke-width="1.5" stroke-miterlimit="10" stroke-linecap="round" stroke-linejoin="round"/>
</svg>
