<svg width="13" height="12" viewBox="0 0 13 12" fill="none" xmlns="http://www.w3.org/2000/svg">
<path fill-rule="evenodd" clip-rule="evenodd" d="M7.03372 0.933724C7.03372 0.639175 6.79494 0.400391 6.50039 0.400391C6.20584 0.400391 5.96706 0.639175 5.96706 0.933724V5.46706H1.43372C1.13917 5.46706 0.900391 5.70584 0.900391 6.00039C0.900391 6.29494 1.13917 6.53372 1.43372 6.53372H5.96706V11.0671C5.96706 11.3616 6.20584 11.6004 6.50039 11.6004C6.79494 11.6004 7.03372 11.3616 7.03372 11.0671V6.53372H11.5671C11.8616 6.53372 12.1004 6.29494 12.1004 6.00039C12.1004 5.70584 11.8616 5.46706 11.5671 5.46706H7.03372V0.933724Z" fill="white"/>
</svg>
