<svg width="17" height="16" viewBox="0 0 17 16" fill="none" xmlns="http://www.w3.org/2000/svg">
<path d="M5.89286 7.75364H2.76619C2.81953 4.64031 3.43286 4.12696 5.34619 2.99363C5.56619 2.8603 5.63952 2.5803 5.50619 2.35363C5.37285 2.13363 5.09284 2.06031 4.86617 2.19364C2.61284 3.52697 1.82617 4.34029 1.82617 8.22029V11.8136C1.82617 12.9536 2.75286 13.8736 3.88619 13.8736H5.88619C7.05952 13.8736 7.94617 12.987 7.94617 11.8136V9.81364C7.95283 8.6403 7.0662 7.75364 5.89286 7.75364Z" fill="#292D32"/>
<path opacity="0.4" d="M13.1067 7.75364H9.98002C10.0334 4.64031 10.6467 4.12696 12.5601 2.99363C12.7801 2.8603 12.8534 2.5803 12.7201 2.35363C12.5867 2.13363 12.3067 2.06031 12.08 2.19364C9.8267 3.52697 9.04004 4.34029 9.04004 8.22029V11.8136C9.04004 12.9536 9.96672 13.8736 11.1001 13.8736H13.1001C14.2734 13.8736 15.16 12.987 15.16 11.8136V9.81364C15.1667 8.6403 14.28 7.75364 13.1067 7.75364Z" fill="#292D32"/>
</svg>
