<svg width="15" height="14" viewBox="0 0 15 14" fill="none" xmlns="http://www.w3.org/2000/svg">
<path d="M3.625 1.5C3.625 1.36739 3.67768 1.24021 3.77145 1.14645C3.86521 1.05268 3.99239 1 4.125 1H6.125V3.5H4.125C3.99239 3.5 3.86521 3.44732 3.77145 3.35355C3.67768 3.25979 3.625 3.13261 3.625 3V1.5ZM6.125 5.5H1.125C0.992392 5.5 0.865215 5.55268 0.771447 5.64645C0.677678 5.74021 0.625 5.86739 0.625 6V7.5C0.625 7.63261 0.677678 7.75979 0.771447 7.85355C0.865215 7.94732 0.992392 8 1.125 8H6.125V5.5ZM9.125 8V5.5H11.125C11.2576 5.5 11.3848 5.55268 11.4786 5.64645C11.5723 5.74021 11.625 5.86739 11.625 6V7.5C11.625 7.63261 11.5723 7.75979 11.4786 7.85355C11.3848 7.94732 11.2576 8 11.125 8H9.125ZM6.125 10.5H3.125C2.99239 10.5 2.86521 10.5527 2.77145 10.6464C2.67768 10.7402 2.625 10.8674 2.625 11V12.5C2.625 12.6326 2.67768 12.7598 2.77145 12.8536C2.86521 12.9473 2.99239 13 3.125 13H6.125V10.5ZM9.125 13H14.125C14.2576 13 14.3848 12.9473 14.4786 12.8536C14.5723 12.7598 14.625 12.6326 14.625 12.5V11C14.625 10.8674 14.5723 10.7402 14.4786 10.6464C14.3848 10.5527 14.2576 10.5 14.125 10.5H9.125V13ZM9.125 3.5V1H12.125C12.2576 1 12.3848 1.05268 12.4786 1.14645C12.5723 1.24021 12.625 1.36739 12.625 1.5V3C12.625 3.13261 12.5723 3.25979 12.4786 3.35355C12.3848 3.44732 12.2576 3.5 12.125 3.5H9.125ZM7.625 0.25C7.82391 0.25 8.01468 0.329018 8.15533 0.46967C8.29598 0.610322 8.375 0.801088 8.375 1V13C8.375 13.1989 8.29598 13.3897 8.15533 13.5303C8.01468 13.671 7.82391 13.75 7.625 13.75C7.42609 13.75 7.23532 13.671 7.09467 13.5303C6.95402 13.3897 6.875 13.1989 6.875 13V1C6.875 0.801088 6.95402 0.610322 7.09467 0.46967C7.23532 0.329018 7.42609 0.25 7.625 0.25Z" fill="#FF6161"/>
</svg>
