<svg width="24" height="22" viewBox="0 0 24 22" fill="none" xmlns="http://www.w3.org/2000/svg">
<path d="M10.3752 11H4.41688M4.32517 11.3158L1.79568 18.8717C1.59696 19.4653 1.4976 19.7621 1.5689 19.9449C1.63083 20.1036 1.76382 20.224 1.92792 20.2698C2.1169 20.3225 2.40232 20.1941 2.97316 19.9372L21.0773 11.7904C21.6344 11.5396 21.913 11.4143 21.9991 11.2401C22.074 11.0888 22.074 10.9113 21.9991 10.7599C21.913 10.5858 21.6344 10.4604 21.0773 10.2097L2.96685 2.06005C2.39773 1.80395 2.11317 1.67589 1.92438 1.72842C1.76043 1.77404 1.62745 1.89406 1.56531 2.05249C1.49377 2.23492 1.59206 2.53108 1.78866 3.12339L4.32588 10.7677C4.35965 10.8694 4.37653 10.9203 4.38319 10.9723C4.38911 11.0185 4.38905 11.0652 4.38301 11.1113C4.37622 11.1633 4.3592 11.2142 4.32517 11.3158Z" stroke="white" stroke-width="2" stroke-linecap="round" stroke-linejoin="round"/>
</svg>
