<svg width="21" height="20" viewBox="0 0 21 20" fill="none" xmlns="http://www.w3.org/2000/svg">
<path d="M10.5 12.5C11.8807 12.5 13 11.3807 13 10C13 8.61929 11.8807 7.5 10.5 7.5C9.11929 7.5 8 8.61929 8 10C8 11.3807 9.11929 12.5 10.5 12.5Z" stroke="#929292" stroke-width="1.5" stroke-miterlimit="10" stroke-linecap="round" stroke-linejoin="round"/>
<path d="M2.16602 10.7329V9.26621C2.16602 8.39954 2.87435 7.68287 3.74935 7.68287C5.25768 7.68287 5.87435 6.61621 5.11602 5.30787C4.68268 4.55787 4.94102 3.58287 5.69935 3.14954L7.14102 2.32454C7.79935 1.93287 8.64935 2.16621 9.04102 2.82454L9.13268 2.98287C9.88268 4.29121 11.116 4.29121 11.8743 2.98287L11.966 2.82454C12.3577 2.16621 13.2077 1.93287 13.866 2.32454L15.3077 3.14954C16.066 3.58287 16.3243 4.55787 15.891 5.30787C15.1327 6.61621 15.7494 7.68287 17.2577 7.68287C18.1244 7.68287 18.841 8.39121 18.841 9.26621V10.7329C18.841 11.5995 18.1327 12.3162 17.2577 12.3162C15.7494 12.3162 15.1327 13.3829 15.891 14.6912C16.3243 15.4495 16.066 16.4162 15.3077 16.8495L13.866 17.6745C13.2077 18.0662 12.3577 17.8329 11.966 17.1745L11.8743 17.0162C11.1243 15.7079 9.89102 15.7079 9.13268 17.0162L9.04102 17.1745C8.64935 17.8329 7.79935 18.0662 7.14102 17.6745L5.69935 16.8495C4.94102 16.4162 4.68268 15.4412 5.11602 14.6912C5.87435 13.3829 5.25768 12.3162 3.74935 12.3162C2.87435 12.3162 2.16602 11.5995 2.16602 10.7329Z" stroke="#929292" stroke-width="1.5" stroke-miterlimit="10" stroke-linecap="round" stroke-linejoin="round"/>
</svg>
