<svg width="40" height="40" viewBox="0 0 40 40" fill="none" xmlns="http://www.w3.org/2000/svg">
<rect width="40" height="40" rx="6" fill="white"/>
<path d="M8.59888 17.2671C8.89588 17.1439 9.03679 16.8033 8.91363 16.5063C8.79046 16.2093 8.44986 16.0684 8.15286 16.1915C7.85587 16.3147 7.71495 16.6553 7.83812 16.9523C7.96128 17.2493 8.30189 17.3902 8.59888 17.2671Z" fill="#333232"/>
<path d="M6.74442 16.9404C7.04142 16.8172 7.18233 16.4766 7.05917 16.1796C6.93601 15.8826 6.5954 15.7417 6.2984 15.8649C6.00141 15.988 5.86049 16.3287 5.98366 16.6256C6.10682 16.9226 6.44743 17.0636 6.74442 16.9404Z" fill="#333232"/>
<path d="M4.89006 16.6132C5.18705 16.4901 5.32797 16.1495 5.2048 15.8525C5.08164 15.5555 4.74103 15.4146 4.44404 15.5377C4.14704 15.6609 4.00613 16.0015 4.12929 16.2985C4.25246 16.5955 4.59306 16.7364 4.89006 16.6132Z" fill="#333232"/>
<path d="M11.3648 11.7768C11.6618 11.6537 11.8027 11.313 11.6795 11.0161C11.5564 10.7191 11.2158 10.5781 10.9188 10.7013C10.6218 10.8245 10.4809 11.1651 10.604 11.4621C10.7272 11.7591 11.0678 11.9 11.3648 11.7768Z" fill="#333232"/>
<path d="M7.68143 13.2876C7.97843 13.1644 8.11934 12.8238 7.99618 12.5268C7.87302 12.2298 7.53241 12.0889 7.23542 12.212C6.93842 12.3352 6.7975 12.6758 6.92067 12.9728C7.04383 13.2698 7.38444 13.4107 7.68143 13.2876Z" fill="#333232"/>
<path d="M9.31219 14.229C9.60918 14.1058 9.7501 13.7652 9.62693 13.4682C9.50377 13.1712 9.16316 13.0303 8.86617 13.1535C8.56917 13.2766 8.42826 13.6172 8.55142 13.9142C8.67459 14.2112 9.01519 14.3521 9.31219 14.229Z" fill="#333232"/>
<path d="M10.1544 10.3344C10.4514 10.2113 10.5923 9.87066 10.4691 9.57367C10.3459 9.27668 10.0053 9.13576 9.70834 9.25892C9.41134 9.38209 9.27043 9.7227 9.39359 10.0197C9.51676 10.3167 9.85736 10.4576 10.1544 10.3344Z" fill="#333232"/>
<path d="M6.05068 12.3462C6.34768 12.223 6.48859 11.8824 6.36543 11.5854C6.24227 11.2884 5.90166 11.1475 5.60467 11.2706C5.30767 11.3938 5.16675 11.7344 5.28992 12.0314C5.41308 12.3284 5.75369 12.4693 6.05068 12.3462Z" fill="#333232"/>
<path d="M8.94399 8.89205C9.24098 8.76889 9.3819 8.42828 9.25873 8.13129C9.13557 7.83429 8.79496 7.69338 8.49797 7.81654C8.20097 7.93971 8.06006 8.28031 8.18322 8.57731C8.30639 8.8743 8.64699 9.01522 8.94399 8.89205Z" fill="#333232"/>
<path d="M32.162 16.9522C32.2851 16.6552 32.1442 16.3146 31.8472 16.1914C31.5502 16.0683 31.2096 16.2092 31.0864 16.5062C30.9633 16.8032 31.1042 17.1438 31.4012 17.267C31.6982 17.3901 32.0388 17.2492 32.162 16.9522Z" fill="#333232"/>
<path d="M34.0164 16.6255C34.1395 16.3286 33.9986 15.9879 33.7016 15.8648C33.4046 15.7416 33.064 15.8825 32.9408 16.1795C32.8177 16.4765 32.9586 16.8171 33.2556 16.9403C33.5526 17.0635 33.8932 16.9225 34.0164 16.6255Z" fill="#333232"/>
<path d="M35.8707 16.2984C35.9939 16.0014 35.853 15.6608 35.556 15.5376C35.259 15.4145 34.9184 15.5554 34.7952 15.8524C34.6721 16.1494 34.813 16.49 35.11 16.6131C35.407 16.7363 35.7476 16.5954 35.8707 16.2984Z" fill="#333232"/>
<path d="M29.396 11.4625C29.5192 11.1655 29.3783 10.8249 29.0813 10.7017C28.7843 10.5785 28.4437 10.7194 28.3205 11.0164C28.1973 11.3134 28.3383 11.654 28.6353 11.7772C28.9322 11.9004 29.2729 11.7595 29.396 11.4625Z" fill="#333232"/>
<path d="M33.0793 12.9727C33.2025 12.6757 33.0616 12.3351 32.7646 12.212C32.4676 12.0888 32.127 12.2297 32.0038 12.5267C31.8807 12.8237 32.0216 13.1643 32.3186 13.2875C32.6156 13.4106 32.9562 13.2697 33.0793 12.9727Z" fill="#333232"/>
<path d="M31.4486 13.9141C31.5718 13.6171 31.4308 13.2765 31.1338 13.1534C30.8368 13.0302 30.4962 13.1711 30.3731 13.4681C30.2499 13.7651 30.3908 14.1057 30.6878 14.2289C30.9848 14.352 31.3254 14.2111 31.4486 13.9141Z" fill="#333232"/>
<path d="M30.6064 10.0196C30.7296 9.7226 30.5887 9.38199 30.2917 9.25883C29.9947 9.13566 29.6541 9.27658 29.5309 9.57357C29.4077 9.87057 29.5487 10.2112 29.8457 10.3343C30.1426 10.4575 30.4833 10.3166 30.6064 10.0196Z" fill="#333232"/>
<path d="M34.7101 12.0313C34.8333 11.7343 34.6923 11.3937 34.3953 11.2705C34.0983 11.1474 33.7577 11.2883 33.6346 11.5853C33.5114 11.8823 33.6523 12.2229 33.9493 12.3461C34.2463 12.4692 34.5869 12.3283 34.7101 12.0313Z" fill="#333232"/>
<path d="M31.8168 8.57721C31.9399 8.28022 31.799 7.93961 31.502 7.81644C31.205 7.69328 30.8644 7.8342 30.7413 8.13119C30.6181 8.42818 30.759 8.76879 31.056 8.89195C31.353 9.01512 31.6936 8.8742 31.8168 8.57721Z" fill="#333232"/>
<path d="M26.5478 10.1938V8.6695C26.5478 7.64739 25.6442 6.81885 24.5295 6.81885H17.6781C15.3253 6.81885 13.3905 8.45948 13.1599 10.5612C12.6855 11.2824 12.5011 12.1561 12.6435 13.0075L12.9359 14.7526H27.0641L27.3543 13.037C27.4381 12.5329 27.4092 12.0165 27.2697 11.525C27.1303 11.0334 26.8837 10.5787 26.5477 10.1938H26.5478Z" fill="#4F4E4C"/>
<path d="M20 29.5552C19.6354 29.5552 19.2745 29.4834 18.9376 29.3439C18.6008 29.2044 18.2948 28.9999 18.037 28.7421C17.7792 28.4843 17.5747 28.1783 17.4352 27.8415C17.2957 27.5047 17.2239 27.1437 17.2239 26.7791V23.8789H22.7761V26.7791C22.7761 27.1437 22.7043 27.5047 22.5648 27.8415C22.4253 28.1783 22.2208 28.4843 21.963 28.7421C21.7052 28.9999 21.3992 29.2044 21.0624 29.3439C20.7255 29.4834 20.3646 29.5552 20 29.5552Z" fill="#FFD5B3"/>
<path d="M17.2239 25.7177C17.9842 26.0679 18.8943 26.2847 20 26.2847C21.1057 26.2847 22.0158 26.0679 22.7761 25.7177V24.4341H17.2239V25.7177Z" fill="#F4BDA2"/>
<path d="M26.4048 19.7901C26.4209 19.6944 26.4664 19.6061 26.5351 19.5374C26.6038 19.4688 26.6921 19.4233 26.7879 19.4073C27.2167 19.331 27.6054 19.1073 27.8866 18.7748C28.1679 18.4423 28.3241 18.0219 28.3282 17.5864V16.1984C28.324 15.761 28.1665 15.3389 27.883 15.0058C27.5995 14.6727 27.2081 14.4496 26.777 14.3755C26.6845 14.3597 26.5989 14.3167 26.531 14.2519C26.4631 14.1872 26.4161 14.1036 26.396 14.012C26.2119 13.189 25.7531 12.4532 25.0952 11.9255C24.4373 11.3979 23.6194 11.1099 22.7761 11.1089H17.2239C16.3806 11.1099 15.5627 11.3979 14.9048 11.9256C14.2469 12.4532 13.7882 13.189 13.6041 14.012C13.584 14.1036 13.537 14.1872 13.4691 14.252C13.4012 14.3167 13.3155 14.3598 13.223 14.3755C12.7919 14.4496 12.4005 14.6727 12.117 15.0058C11.8335 15.3389 11.676 15.761 11.6718 16.1984V17.5863C11.6759 18.0219 11.8321 18.4423 12.1133 18.7748C12.3946 19.1073 12.7833 19.331 13.2121 19.4073C13.3079 19.4233 13.3962 19.4688 13.4649 19.5374C13.5336 19.6061 13.5791 19.6944 13.5952 19.7901C13.9192 21.812 15.1888 25.4519 20 25.4519C24.8113 25.4519 26.0808 21.812 26.4048 19.7901Z" fill="#FFD5B3"/>
<path d="M19.0875 18.913C18.4161 17.8298 15.6598 17.3696 14.4085 17.5662C13.7855 17.6642 13.5927 18.5426 13.248 19.0836C12.8903 19.6448 11.8197 20.9899 13.5723 21.8787C13.5941 22.1264 13.6469 22.7049 13.6852 22.9289C13.7506 23.312 14.1412 23.4916 14.5204 23.4386C14.6331 23.4228 19.0875 23.0309 19.0875 23.0309V18.913Z" fill="#F7B7A1"/>
<path d="M29.4151 18.8595C26.5304 17.4881 23.0265 17.2991 19.6466 17.8071C19.3812 17.8468 19.1388 17.9805 18.9637 18.1838C18.7885 18.3871 18.692 18.6465 18.6919 18.9148V22.8585C18.6919 23.0055 18.7209 23.1511 18.7771 23.287C18.8334 23.4228 18.9159 23.5462 19.0199 23.6502C19.1238 23.7542 19.2473 23.8366 19.3831 23.8929C19.519 23.9492 19.6646 23.9781 19.8116 23.9781H22.2929C23.245 23.9781 23.5991 25.2335 22.7838 25.7251C22.7812 25.7266 22.7787 25.7281 22.7761 25.7296C22.7761 26.4659 22.4836 27.172 21.963 27.6926C21.4424 28.2132 20.7363 28.5057 20 28.5057C19.2637 28.5057 18.5576 28.2132 18.037 27.6926C17.5164 27.172 17.2239 26.4659 17.2239 25.7296H15.3732C14.7656 25.7296 14.1639 25.8493 13.6026 26.0818C13.0412 26.3143 12.5312 26.6551 12.1015 27.0848C11.6719 27.5144 11.3311 28.0245 11.0986 28.5858C10.8661 29.1472 10.7464 29.7488 10.7464 30.3564C10.7464 31.3785 10.9527 31.8572 12.5971 32.2071C12.5971 32.2071 18.1333 33.181 20 33.181C21.8667 33.181 26.3306 32.3888 26.3306 32.3888C27.3895 31.6027 28.3201 30.4074 29.0619 29.044L29.064 29.0414L29.0637 29.0406C31.1635 25.1788 31.7456 19.9674 29.4151 18.8594V18.8595Z" fill="#899DEF"/>
<path d="M15.8357 16.5236C16.2251 16.3944 16.6298 16.3172 17.0393 16.2938C16.7164 16.0737 16.3391 15.8323 16.0321 15.6517C15.629 15.4146 15.9879 14.8064 16.3902 15.043C16.6644 15.2043 17.1455 15.5069 17.5538 15.7903C18.2188 16.2518 18.4976 16.4877 18.376 16.8093C18.3481 16.8828 18.228 17.1167 17.8478 17.0434C16.9705 16.8736 16.0841 17.1847 16.0752 17.1879C15.6316 17.3464 15.402 16.6804 15.8357 16.5236ZM23.9242 17.1877C23.9159 17.1847 23.0297 16.8734 22.1523 17.0433C21.7721 17.1167 21.6518 16.8828 21.624 16.8093C21.5024 16.4876 21.7812 16.2517 22.4462 15.7903C22.8545 15.5069 23.3356 15.2043 23.6099 15.043C24.0131 14.8061 24.37 15.4151 23.9679 15.6517C23.6609 15.8323 23.2836 16.0737 22.9607 16.2937C23.3702 16.3171 23.7749 16.3943 24.1643 16.5235C24.6047 16.6828 24.3629 17.3464 23.9242 17.1877Z" fill="#414344"/>
</svg>
