<svg width="24" height="25" viewBox="0 0 24 25" fill="none" xmlns="http://www.w3.org/2000/svg">
<path d="M13.7299 4.01014L15.4899 7.53014C15.7299 8.02014 16.3699 8.49014 16.9099 8.58014L20.0999 9.11014C22.1399 9.45014 22.6199 10.9301 21.1499 12.3901L18.6699 14.8701C18.2499 15.2901 18.0199 16.1001 18.1499 16.6801L18.8599 19.7501C19.4199 22.1801 18.1299 23.1201 15.9799 21.8501L12.9899 20.0801C12.4499 19.7601 11.5599 19.7601 11.0099 20.0801L8.01991 21.8501C5.87991 23.1201 4.57991 22.1701 5.13991 19.7501L5.84991 16.6801C5.97991 16.1001 5.74991 15.2901 5.32991 14.8701L2.84991 12.3901C1.38991 10.9301 1.85991 9.45014 3.89991 9.11014L7.08991 8.58014C7.61991 8.49014 8.25991 8.02014 8.49991 7.53014L10.2599 4.01014C11.2199 2.10014 12.7799 2.10014 13.7299 4.01014Z" stroke="#8338EC" stroke-width="1.5" stroke-linecap="round" stroke-linejoin="round"/>
</svg>
