<svg width="33" height="32" viewBox="0 0 33 32" fill="none" xmlns="http://www.w3.org/2000/svg">
<g opacity="0.4">
<path opacity="0.4" d="M14.8333 3.26676C15.7667 2.48009 17.2733 2.48009 18.18 3.26676L20.2867 5.06676C20.6867 5.40009 21.4467 5.68009 21.98 5.68009H24.2467C25.66 5.68009 26.82 6.84009 26.82 8.25342V10.5201C26.82 11.0534 27.1 11.8001 27.4333 12.2001L29.2333 14.3068C30.02 15.2401 30.02 16.7468 29.2333 17.6534L27.4333 19.7601C27.1 20.1601 26.82 20.9068 26.82 21.4401V23.7068C26.82 25.1201 25.66 26.2801 24.2467 26.2801H21.98C21.4467 26.2801 20.7 26.5601 20.3 26.8934L18.1933 28.6934C17.26 29.4801 15.7533 29.4801 14.8467 28.6934L12.74 26.8934C12.34 26.5601 11.58 26.2801 11.06 26.2801H8.72667C7.31334 26.2801 6.15334 25.1201 6.15334 23.7068V21.4268C6.15334 20.9068 5.88667 20.1468 5.55334 19.7601L3.75334 17.6401C2.98001 16.7201 2.98001 15.2268 3.75334 14.3068L5.55334 12.1868C5.88667 11.7868 6.15334 11.0401 6.15334 10.5201V8.26676C6.15334 6.85342 7.31334 5.69342 8.72667 5.69342H11.0333C11.5667 5.69342 12.3133 5.41342 12.7133 5.08009L14.8333 3.26676Z" fill="#2E44FC"/>
<path d="M16.5001 22.4933C15.7667 22.4933 15.1667 21.8933 15.1667 21.16C15.1667 20.4267 15.7534 19.8267 16.5001 19.8267C17.2334 19.8267 17.8334 20.4267 17.8334 21.16C17.8334 21.8933 17.2467 22.4933 16.5001 22.4933Z" fill="#2E44FC"/>
<path d="M16.5 18.2934C15.9533 18.2934 15.5 17.8401 15.5 17.2934V10.8401C15.5 10.2934 15.9533 9.84009 16.5 9.84009C17.0467 9.84009 17.5 10.2934 17.5 10.8401V17.2801C17.5 17.8401 17.06 18.2934 16.5 18.2934Z" fill="#2E44FC"/>
</g>
</svg>
