<svg width="16" height="16" viewBox="0 0 16 16" fill="none" xmlns="http://www.w3.org/2000/svg">
<path d="M7.32029 4.12667L4.84699 1.65332C4.80032 1.60665 4.74031 1.56667 4.67365 1.54C4.66698 1.54 4.66029 1.53999 4.65363 1.53333C4.60029 1.51333 4.54029 1.5 4.48029 1.5C4.34695 1.5 4.22031 1.55331 4.12697 1.64665L1.64695 4.12667C1.45362 4.32 1.45362 4.64 1.64695 4.83333C1.84029 5.02667 2.16033 5.02667 2.35366 4.83333L3.98696 3.19999V14C3.98696 14.2733 4.21363 14.5 4.48696 14.5C4.76029 14.5 4.98696 14.2733 4.98696 14V3.20667L6.61363 4.83333C6.71363 4.93333 6.84031 4.97998 6.96698 4.97998C7.09365 4.97998 7.22029 4.93333 7.32029 4.83333C7.51363 4.64 7.51363 4.32667 7.32029 4.12667Z" fill="#1C1C1C" fill-opacity="0.6"/>
<path opacity="0.4" d="M14.3535 11.1667C14.1602 10.9733 13.8401 10.9733 13.6468 11.1667L12.0135 12.8V2C12.0135 1.72667 11.7868 1.5 11.5135 1.5C11.2402 1.5 11.0135 1.72667 11.0135 2V12.7933L9.38682 11.1667C9.19349 10.9733 8.87349 10.9733 8.68016 11.1667C8.48682 11.36 8.48682 11.68 8.68016 11.8733L11.1535 14.3467C11.2001 14.3933 11.2601 14.4333 11.3268 14.46C11.3335 14.46 11.3402 14.46 11.3468 14.4667C11.4002 14.4867 11.4602 14.5 11.5202 14.5C11.6535 14.5 11.7801 14.4467 11.8735 14.3534L14.3535 11.8733C14.5468 11.6733 14.5468 11.36 14.3535 11.1667Z" fill="#1C1C1C" fill-opacity="0.6"/>
</svg>
