<svg width="17" height="14" viewBox="0 0 17 14" fill="none" xmlns="http://www.w3.org/2000/svg">
<path d="M15.7043 2.8468C15.8819 2.84627 16.0521 2.77555 16.1778 2.65004C16.3035 2.52453 16.3745 2.35442 16.3753 2.1768C16.3754 2.08869 16.3581 2.00143 16.3245 1.92001C16.2908 1.8386 16.2413 1.76464 16.179 1.70239C16.1166 1.64013 16.0426 1.59081 15.9611 1.55724C15.8797 1.52368 15.7924 1.50654 15.7043 1.5068H5.96428C5.78631 1.5068 5.61558 1.57729 5.48945 1.70285C5.36333 1.82842 5.29207 1.99883 5.29128 2.1768C5.29115 2.26499 5.30845 2.35234 5.3422 2.43382C5.37595 2.5153 5.42548 2.5893 5.48793 2.65156C5.55038 2.71383 5.62453 2.76314 5.70611 2.79664C5.78769 2.83015 5.87509 2.84719 5.96328 2.8468H15.7033H15.7043ZM5.96328 6.8658C5.78565 6.86633 5.61544 6.93705 5.48974 7.06256C5.36405 7.18807 5.29307 7.35818 5.29228 7.5358C5.29215 7.62391 5.30942 7.71117 5.34311 7.79258C5.37679 7.874 5.42623 7.94796 5.48858 8.01021C5.55092 8.07246 5.62495 8.12179 5.70642 8.15536C5.78788 8.18892 5.87517 8.20606 5.96328 8.2058H15.7033C15.8811 8.20554 16.0515 8.13493 16.1775 8.00939C16.3034 7.88386 16.3745 7.7136 16.3753 7.5358C16.3754 7.44769 16.3581 7.36043 16.3245 7.27901C16.2908 7.1976 16.2413 7.12364 16.179 7.06139C16.1166 6.99914 16.0426 6.94981 15.9611 6.91624C15.8797 6.88268 15.7924 6.86554 15.7043 6.8658H5.96428H5.96328ZM15.7043 12.2258C15.882 12.2261 16.0524 12.2967 16.1781 12.4223C16.3039 12.5478 16.3748 12.7181 16.3753 12.8958C16.3754 12.9839 16.3581 13.0712 16.3245 13.1526C16.2908 13.234 16.2413 13.308 16.179 13.3702C16.1166 13.4325 16.0426 13.4818 15.9611 13.5154C15.8797 13.5489 15.7924 13.5661 15.7043 13.5658H5.96428C5.78623 13.5661 5.61535 13.4957 5.48916 13.37C5.36298 13.2444 5.29181 13.0739 5.29128 12.8958C5.29115 12.8076 5.30845 12.7203 5.3422 12.6388C5.37595 12.5573 5.42548 12.4833 5.48793 12.421C5.55038 12.3588 5.62453 12.3095 5.70611 12.276C5.78769 12.2424 5.87509 12.2254 5.96328 12.2258H15.7033H15.7043ZM4.18928 0.0937993C4.13591 0.0554915 4.07551 0.0280773 4.01154 0.0131239C3.94756 -0.00182946 3.88127 -0.00402892 3.81645 0.00665111C3.75162 0.0173311 3.68954 0.0406813 3.63375 0.075367C3.57795 0.110053 3.52954 0.155394 3.49128 0.208799L1.94528 2.3678L1.22828 1.6528C1.13426 1.55918 1.0069 1.50674 0.874219 1.50702C0.741537 1.5073 0.614401 1.56028 0.520779 1.6543C0.427158 1.74832 0.37472 1.87568 0.375001 2.00836C0.375282 2.14104 0.42826 2.26818 0.522279 2.3618L1.34028 3.1768C1.43051 3.26668 1.53916 3.3359 1.65875 3.37969C1.77834 3.42347 1.90601 3.44078 2.03294 3.43042C2.15987 3.42006 2.28303 3.38227 2.39394 3.31966C2.50484 3.25705 2.60083 3.17112 2.67528 3.0678L4.30528 0.790799C4.38233 0.683079 4.4135 0.549189 4.39194 0.418515C4.37038 0.28784 4.29785 0.171058 4.19028 0.0937993H4.18928ZM4.30528 6.1978L2.67528 8.4738C2.56282 8.62941 2.40266 8.74407 2.21911 8.80038C2.03556 8.85669 1.83865 8.85157 1.65828 8.7858C1.53927 8.74214 1.43112 8.67323 1.34128 8.5838L0.522279 7.7678C0.431058 7.67363 0.380475 7.5474 0.381425 7.41629C0.382375 7.28519 0.434782 7.1597 0.527358 7.06686C0.619935 6.97402 0.745272 6.92126 0.876374 6.91994C1.00748 6.91862 1.13385 6.96885 1.22828 7.0598L1.94528 7.7738L3.49128 5.6148C3.56859 5.50699 3.68556 5.43431 3.81646 5.41274C3.94736 5.39117 4.08147 5.42249 4.18928 5.4998C4.29709 5.57711 4.36977 5.69408 4.39134 5.82498C4.41291 5.95588 4.38159 6.08999 4.30428 6.1978H4.30528ZM4.18928 10.6598C4.13591 10.6215 4.07551 10.5941 4.01154 10.5791C3.94756 10.5642 3.88127 10.562 3.81645 10.5727C3.75162 10.5833 3.68954 10.6067 3.63375 10.6414C3.57795 10.6761 3.52954 10.7214 3.49128 10.7748L1.94528 12.9348L1.22828 12.2188C1.18173 12.1724 1.1265 12.1357 1.06575 12.1107C1.005 12.0857 0.939916 12.0729 0.874219 12.073C0.741537 12.0733 0.614401 12.1263 0.520779 12.2203C0.427158 12.3143 0.37472 12.4417 0.375001 12.5744C0.375282 12.707 0.42826 12.8342 0.522279 12.9278L1.34028 13.7428C1.4305 13.8325 1.53909 13.9016 1.65858 13.9453C1.77807 13.9889 1.90561 14.0062 2.03241 13.9958C2.15921 13.9855 2.28225 13.9477 2.39307 13.8852C2.50388 13.8227 2.59982 13.737 2.67428 13.6338L4.30428 11.3568C4.38133 11.2491 4.4125 11.1152 4.39094 10.9845C4.36938 10.8538 4.29685 10.7371 4.18928 10.6598Z" fill="#56CA7E"/>
</svg>
