<svg width="15" height="14" viewBox="0 0 15 14" fill="none" xmlns="http://www.w3.org/2000/svg">
<path fill-rule="evenodd" clip-rule="evenodd" d="M5.0026 6.50001C5.33412 6.50001 5.60288 6.76863 5.60288 7.10001L5.60121 8.87389C7.97627 9.09802 13.6278 9.79058 13.6278 10.2022C13.6278 10.5134 10.9531 10.9976 5.60364 11.6549L5.60288 13.4016C5.60288 13.5453 5.55133 13.6841 5.45761 13.793C5.24137 14.0442 4.86236 14.0726 4.61106 13.8564L0.764169 10.5477C0.748836 10.5345 0.734526 10.5202 0.721362 10.5048C0.577518 10.3371 0.59694 10.0846 0.764742 9.94083L4.61192 6.64447C4.72072 6.55125 4.8593 6.50001 5.0026 6.50001ZM9.79239 0.208655C10.0086 -0.0425231 10.3876 -0.070927 10.6389 0.145213L14.4858 3.45394C14.5012 3.46712 14.5155 3.48145 14.5286 3.4968C14.6725 3.66453 14.6531 3.91705 14.4853 4.06082L10.6381 7.35718C10.5293 7.4504 10.3907 7.50164 10.2474 7.50164C9.91587 7.50164 9.64712 7.23301 9.64712 6.90164L9.64879 5.12776C7.27372 4.90363 1.62219 4.21107 1.62219 3.79949C1.62219 3.48829 4.29691 3.00406 9.64635 2.34678L9.64712 0.60001C9.64712 0.456384 9.69866 0.317523 9.79239 0.208655Z" fill="#FF9F12"/>
</svg>
