<svg width="21" height="20" viewBox="0 0 21 20" fill="none" xmlns="http://www.w3.org/2000/svg">
<path d="M10.5007 10.6253C7.85898 10.6253 5.70898 8.47533 5.70898 5.83366C5.70898 3.19199 7.85898 1.04199 10.5007 1.04199C13.1423 1.04199 15.2923 3.19199 15.2923 5.83366C15.2923 8.47533 13.1423 10.6253 10.5007 10.6253ZM10.5007 2.29199C8.55065 2.29199 6.95898 3.88366 6.95898 5.83366C6.95898 7.78366 8.55065 9.37533 10.5007 9.37533C12.4507 9.37533 14.0423 7.78366 14.0423 5.83366C14.0423 3.88366 12.4507 2.29199 10.5007 2.29199Z" fill="#929292"/>
<path d="M3.3418 18.9583C3.00013 18.9583 2.7168 18.675 2.7168 18.3333C2.7168 14.775 6.20846 11.875 10.5001 11.875C11.3418 11.875 12.1668 11.9834 12.9668 12.2084C13.3001 12.3 13.4918 12.6417 13.4001 12.975C13.3085 13.3083 12.9668 13.5 12.6335 13.4084C11.9501 13.2167 11.2335 13.125 10.5001 13.125C6.90013 13.125 3.9668 15.4583 3.9668 18.3333C3.9668 18.675 3.68346 18.9583 3.3418 18.9583Z" fill="#929292"/>
<path d="M15.4993 18.9587C14.516 18.9587 13.5827 18.592 12.8577 17.9337C12.566 17.6837 12.3077 17.3753 12.1077 17.0337C11.741 16.4337 11.541 15.7253 11.541 15.0003C11.541 13.9587 11.941 12.9837 12.6577 12.242C13.4077 11.467 14.416 11.042 15.4993 11.042C16.6327 11.042 17.7077 11.5253 18.441 12.3587C19.091 13.0837 19.4577 14.017 19.4577 15.0003C19.4577 15.317 19.416 15.6337 19.3327 15.9337C19.2494 16.3087 19.091 16.7003 18.8743 17.042C18.1827 18.2253 16.8827 18.9587 15.4993 18.9587ZM15.4993 12.292C14.7577 12.292 14.0744 12.5836 13.5577 13.1086C13.066 13.617 12.791 14.2837 12.791 15.0003C12.791 15.492 12.9244 15.9753 13.1827 16.392C13.316 16.6253 13.491 16.8336 13.691 17.0086C14.191 17.467 14.8327 17.717 15.4993 17.717C16.441 17.717 17.3327 17.217 17.816 16.4087C17.9577 16.1753 18.066 15.9087 18.1243 15.6504C18.1827 15.4337 18.2077 15.2253 18.2077 15.0087C18.2077 14.342 17.9577 13.7003 17.5077 13.2003C17.0077 12.617 16.2743 12.292 15.4993 12.292Z" fill="#929292"/>
<path d="M16.7495 15.6084H14.2578C13.9161 15.6084 13.6328 15.3251 13.6328 14.9834C13.6328 14.6417 13.9161 14.3584 14.2578 14.3584H16.7495C17.0911 14.3584 17.3745 14.6417 17.3745 14.9834C17.3745 15.3251 17.0911 15.6084 16.7495 15.6084Z" fill="#929292"/>
<path d="M15.5 16.8833C15.1583 16.8833 14.875 16.5999 14.875 16.2583V13.7666C14.875 13.4249 15.1583 13.1416 15.5 13.1416C15.8417 13.1416 16.125 13.4249 16.125 13.7666V16.2583C16.125 16.6083 15.8417 16.8833 15.5 16.8833Z" fill="#929292"/>
</svg>
