<svg width="21" height="20" viewBox="0 0 21 20" fill="none" xmlns="http://www.w3.org/2000/svg">
<path d="M10.0506 12.0671C8.41732 12.0671 7.08398 10.7338 7.08398 9.10045C7.08398 7.46712 8.41732 6.13379 10.0506 6.13379C11.684 6.13379 13.0173 7.46712 13.0173 9.10045C13.0173 10.7338 11.684 12.0671 10.0506 12.0671ZM10.0506 7.39213C9.10898 7.39213 8.33398 8.1588 8.33398 9.1088C8.33398 10.0588 9.10065 10.8255 10.0506 10.8255C11.0006 10.8255 11.7673 10.0588 11.7673 9.1088C11.7673 8.1588 11.0006 7.39213 10.0506 7.39213Z" fill="#929292"/>
<path d="M14.3746 17.4586C14.0329 17.4586 13.7496 17.1753 13.7496 16.8336C13.7496 15.2336 12.0913 13.9336 10.0496 13.9336C8.00794 13.9336 6.34961 15.2336 6.34961 16.8336C6.34961 17.1753 6.06628 17.4586 5.72461 17.4586C5.38294 17.4586 5.09961 17.1753 5.09961 16.8336C5.09961 14.5503 7.31628 12.6836 10.0496 12.6836C12.7829 12.6836 14.9996 14.542 14.9996 16.8336C14.9996 17.1753 14.7163 17.4586 14.3746 17.4586Z" fill="#929292"/>
<path d="M10.0827 18.9583C5.37435 18.9583 1.54102 15.125 1.54102 10.4167C1.54102 5.70833 5.37435 1.875 10.0827 1.875C11.241 1.875 12.3577 2.09999 13.4077 2.54166C13.7077 2.66666 13.8577 2.99998 13.7577 3.30831C13.666 3.58331 13.6243 3.875 13.6243 4.16667C13.6243 4.65833 13.7577 5.14165 14.016 5.55832C14.1494 5.79165 14.3244 5.99998 14.5244 6.17498C15.2494 6.83331 16.3243 7.04169 17.166 6.74169C17.4743 6.62502 17.8244 6.78334 17.9494 7.09168C18.3994 8.15001 18.6243 9.27501 18.6243 10.425C18.6243 15.125 14.791 18.9583 10.0827 18.9583ZM10.0827 3.125C6.06602 3.125 2.79102 6.39167 2.79102 10.4167C2.79102 14.4417 6.06602 17.7083 10.0827 17.7083C14.0993 17.7083 17.3743 14.4417 17.3743 10.4167C17.3743 9.61667 17.241 8.82499 16.991 8.06666C15.841 8.26666 14.5827 7.90835 13.6993 7.10002C13.4077 6.85002 13.1493 6.54167 12.9493 6.2C12.5827 5.6 12.3827 4.89167 12.3827 4.16667C12.3827 3.94167 12.3994 3.72502 12.441 3.50835C11.6827 3.25002 10.891 3.125 10.0827 3.125Z" fill="#929292"/>
<path d="M16.3333 8.12467C15.35 8.12467 14.4167 7.75802 13.6917 7.09969C13.4 6.84969 13.1417 6.54134 12.9417 6.19968C12.575 5.59968 12.375 4.89134 12.375 4.16634C12.375 3.74134 12.4417 3.32468 12.575 2.92468C12.7583 2.35802 13.075 1.83301 13.5 1.40801C14.25 0.641343 15.2583 0.208008 16.3417 0.208008C17.475 0.208008 18.55 0.691355 19.2833 1.52469C19.9333 2.24969 20.3 3.18301 20.3 4.16634C20.3 4.48301 20.2583 4.79967 20.175 5.09967C20.0917 5.47467 19.9333 5.86635 19.7167 6.20802C19.2333 7.02468 18.4667 7.63301 17.5667 7.91634C17.1917 8.05801 16.775 8.12467 16.3333 8.12467ZM16.3333 1.45801C15.5917 1.45801 14.9 1.74966 14.3917 2.27466C14.1 2.57466 13.8917 2.91632 13.7667 3.30798C13.675 3.58298 13.6333 3.87467 13.6333 4.16634C13.6333 4.65801 13.7667 5.14133 14.025 5.55799C14.1583 5.79133 14.3333 5.99965 14.5333 6.17465C15.2583 6.83299 16.3333 7.04136 17.175 6.74136C17.8083 6.54136 18.325 6.12467 18.6583 5.56633C18.8083 5.32467 18.9083 5.06636 18.9667 4.80802C19.025 4.59136 19.05 4.38301 19.05 4.16634C19.05 3.49967 18.8 2.85802 18.35 2.35802C17.8417 1.78302 17.1083 1.45801 16.3333 1.45801Z" fill="#929292"/>
<path d="M17.5756 4.77539H15.084C14.7423 4.77539 14.459 4.49206 14.459 4.15039C14.459 3.80872 14.7423 3.52539 15.084 3.52539H17.5756C17.9173 3.52539 18.2007 3.80872 18.2007 4.15039C18.2007 4.49206 17.9257 4.77539 17.5756 4.77539Z" fill="#929292"/>
<path d="M16.334 6.05025C15.9923 6.05025 15.709 5.76692 15.709 5.42525V2.93359C15.709 2.59193 15.9923 2.30859 16.334 2.30859C16.6757 2.30859 16.959 2.59193 16.959 2.93359V5.42525C16.959 5.77525 16.6757 6.05025 16.334 6.05025Z" fill="#AEAEAE"/>
</svg>
