<svg width="16" height="16" viewBox="0 0 16 16" fill="none" xmlns="http://www.w3.org/2000/svg">
<rect width="16" height="16" rx="8" fill="#5892FD"/>
<path d="M8.17699 10.8067H6.07033C5.01699 10.8067 4.66699 10.1067 4.66699 9.40336V6.59669C4.66699 5.54336 5.01699 5.19336 6.07033 5.19336H8.17699C9.23033 5.19336 9.58033 5.54336 9.58033 6.59669V9.40336C9.58033 10.4567 9.22699 10.8067 8.17699 10.8067Z" stroke="white" stroke-width="0.7" stroke-linecap="round" stroke-linejoin="round"/>
<path d="M10.5067 9.70004L9.58008 9.05004V6.94671L10.5067 6.29671C10.9601 5.98004 11.3334 6.17338 11.3334 6.73004V9.27004C11.3334 9.82671 10.9601 10.02 10.5067 9.70004Z" stroke="white" stroke-width="0.7" stroke-linecap="round" stroke-linejoin="round"/>
<path d="M7.83301 7.66699C8.10915 7.66699 8.33301 7.44313 8.33301 7.16699C8.33301 6.89085 8.10915 6.66699 7.83301 6.66699C7.55687 6.66699 7.33301 6.89085 7.33301 7.16699C7.33301 7.44313 7.55687 7.66699 7.83301 7.66699Z" stroke="white" stroke-width="0.7" stroke-linecap="round" stroke-linejoin="round"/>
</svg>
