<svg width="16" height="16" viewBox="0 0 16 16" fill="none" xmlns="http://www.w3.org/2000/svg">
<path d="M8.58683 13.9071H4.54016C2.1735 13.9071 1.3335 12.2471 1.3335 10.7004V5.30042C1.3335 2.99375 2.2335 2.09375 4.54016 2.09375H8.58683C10.8935 2.09375 11.7935 2.99375 11.7935 5.30042V10.7004C11.7935 13.0071 10.8935 13.9071 8.58683 13.9071ZM4.54016 3.10708C2.80016 3.10708 2.34683 3.56042 2.34683 5.30042V10.7004C2.34683 11.5204 2.6335 12.8938 4.54016 12.8938H8.58683C10.3268 12.8938 10.7802 12.4404 10.7802 10.7004V5.30042C10.7802 3.56042 10.3268 3.10708 8.58683 3.10708H4.54016Z" fill="white"/>
<path d="M13.8533 12.0737C13.5666 12.0737 13.2 11.9803 12.78 11.687L11 10.4403C10.8666 10.347 10.7866 10.1937 10.7866 10.027V5.97366C10.7866 5.80699 10.8666 5.65366 11 5.56032L12.78 4.31366C13.5733 3.76032 14.1533 3.92032 14.4266 4.06032C14.7 4.20699 15.1666 4.58699 15.1666 5.55366V10.4403C15.1666 11.407 14.7 11.7937 14.4266 11.9337C14.3 12.007 14.1 12.0737 13.8533 12.0737ZM11.7933 9.76032L13.36 10.8537C13.66 11.0603 13.8733 11.0803 13.96 11.0337C14.0533 10.987 14.1533 10.8003 14.1533 10.4403V5.56032C14.1533 5.19366 14.0466 5.01366 13.96 4.96699C13.8733 4.92032 13.66 4.94032 13.36 5.14699L11.7933 6.24032V9.76032Z" fill="white"/>
<path d="M7.6665 7.83301C6.83984 7.83301 6.1665 7.15967 6.1665 6.33301C6.1665 5.50634 6.83984 4.83301 7.6665 4.83301C8.49317 4.83301 9.1665 5.50634 9.1665 6.33301C9.1665 7.15967 8.49317 7.83301 7.6665 7.83301ZM7.6665 5.83301C7.39317 5.83301 7.1665 6.05967 7.1665 6.33301C7.1665 6.60634 7.39317 6.83301 7.6665 6.83301C7.93984 6.83301 8.1665 6.60634 8.1665 6.33301C8.1665 6.05967 7.93984 5.83301 7.6665 5.83301Z" fill="white"/>
</svg>
