<svg width="24" height="18" viewBox="0 0 24 18" fill="none" xmlns="http://www.w3.org/2000/svg">
<path d="M22.8337 5.67598C22.8337 5.01968 22.8337 4.69153 22.7039 4.53957C22.5913 4.40773 22.4223 4.33776 22.2495 4.35136C22.0503 4.36704 21.8182 4.59908 21.3542 5.06315L17.417 9.00033L21.3542 12.9375C21.8182 13.4016 22.0503 13.6336 22.2495 13.6493C22.4223 13.6629 22.5913 13.5929 22.7039 13.4611C22.8337 13.3091 22.8337 12.981 22.8337 12.3247V5.67598Z" stroke="white" stroke-width="2" stroke-linecap="round" stroke-linejoin="round"/>
<path d="M1.16699 6.61699C1.16699 4.79682 1.16699 3.88674 1.52122 3.19152C1.83281 2.58 2.33 2.08281 2.94152 1.77122C3.63674 1.41699 4.54682 1.41699 6.36699 1.41699H12.217C14.0372 1.41699 14.9472 1.41699 15.6425 1.77122C16.254 2.08281 16.7512 2.58 17.0628 3.19152C17.417 3.88674 17.417 4.79682 17.417 6.61699V11.3837C17.417 13.2038 17.417 14.1139 17.0628 14.8091C16.7512 15.4207 16.254 15.9178 15.6425 16.2294C14.9472 16.5837 14.0372 16.5837 12.217 16.5837H6.36699C4.54682 16.5837 3.63674 16.5837 2.94152 16.2294C2.33 15.9178 1.83281 15.4207 1.52122 14.8091C1.16699 14.1139 1.16699 13.2038 1.16699 11.3837V6.61699Z" stroke="white" stroke-width="2" stroke-linecap="round" stroke-linejoin="round"/>
</svg>
