<svg width="21" height="20" viewBox="0 0 21 20" fill="none" xmlns="http://www.w3.org/2000/svg">
<path fill-rule="evenodd" clip-rule="evenodd" d="M0.125 9.99998C0.125 4.47716 4.60216 0 10.125 0C15.6479 0 20.125 4.47716 20.125 9.99998C20.125 15.5229 15.6479 20 10.125 20C4.60216 20 0.125 15.5229 0.125 9.99998ZM10.125 1.08762C5.20283 1.08762 1.21262 5.07784 1.21262 9.99998C1.21262 14.9222 5.20283 18.9124 10.125 18.9124C15.0472 18.9124 19.0374 14.9222 19.0374 9.99998C19.0374 5.07784 15.0472 1.08762 10.125 1.08762Z" fill="white"/>
<path d="M5.75001 13.75C6.78553 13.75 7.625 13.1904 7.625 12.5C7.625 11.8096 6.78553 11.25 5.75001 11.25C4.71447 11.25 3.875 11.8096 3.875 12.5C3.875 13.1904 4.71447 13.75 5.75001 13.75Z" fill="white" fill-opacity="0.2"/>
<path fill-rule="evenodd" clip-rule="evenodd" d="M3.875 11.875C3.875 10.8395 4.71448 10 5.75 10C6.78553 10 7.625 10.8395 7.625 11.875C7.625 12.9105 6.78555 13.75 5.75 13.75C4.71446 13.75 3.875 12.9105 3.875 11.875ZM5.75 11.0153C5.2752 11.0153 4.89031 11.4002 4.89031 11.875C4.89031 12.3498 5.27522 12.7347 5.75 12.7347C6.22478 12.7347 6.60969 12.3498 6.60969 11.875C6.60969 11.4002 6.2248 11.0153 5.75 11.0153Z" fill="white"/>
<path d="M15.125 6.87498C15.125 8.60086 13.955 10 12.5118 10C11.4377 10 10.515 9.22509 10.1132 8.11731C9.92164 8.1962 9.71597 8.23904 9.50195 8.23904C8.46532 8.23904 7.625 7.23413 7.625 5.99452C7.625 4.75491 8.46532 3.75001 9.50195 3.75001C10.038 3.75001 10.5216 4.01877 10.8637 4.44977C11.3133 4.01227 11.8869 3.75 12.5118 3.75C13.955 3.75 15.125 5.1491 15.125 6.87498Z" fill="white" fill-opacity="0.2"/>
<path fill-rule="evenodd" clip-rule="evenodd" d="M13.1596 4.81869C12.6532 4.81869 12.1896 4.99094 11.8254 5.27894C11.6025 5.45523 11.2774 5.4349 11.0796 5.23229C10.8302 4.97687 10.4792 4.8187 10.0894 4.8187C9.33564 4.8187 8.72463 5.41254 8.72463 6.14508C8.72463 6.87762 9.33564 7.47145 10.0894 7.47145C10.246 7.47145 10.3953 7.44603 10.5339 7.39966C10.8053 7.30879 11.1031 7.43625 11.2173 7.69226C11.5431 8.42232 12.2908 8.93131 13.1596 8.93131C14.3281 8.93131 15.2754 8.01065 15.2754 6.87498C15.2754 5.73933 14.3281 4.81869 13.1596 4.81869ZM11.5134 4.19017C11.995 3.91074 12.5584 3.75 13.1596 3.75C14.9354 3.75 16.375 5.1491 16.375 6.87498C16.375 8.60085 14.9354 10 13.1596 10C12.0033 10 10.9905 9.40692 10.4241 8.51817C10.3145 8.53267 10.2028 8.54015 10.0894 8.54015C8.72833 8.54015 7.625 7.46783 7.625 6.14508C7.625 4.82232 8.72833 3.75001 10.0894 3.75001C10.6198 3.75001 11.1114 3.91324 11.5134 4.19017Z" fill="white"/>
<path fill-rule="evenodd" clip-rule="evenodd" d="M15.7895 11.2505C16.0967 11.2395 16.3571 11.4258 16.3711 11.6666C16.4026 12.2072 16.2404 12.616 15.9174 12.9328C15.6148 13.2296 15.207 13.4047 14.8944 13.5375C14.8821 13.5427 14.8699 13.5479 14.8579 13.553C14.5336 13.6906 14.2946 13.792 14.1044 13.9412C13.9311 14.0771 13.783 14.2681 13.7355 14.6106C13.7023 14.8503 13.4275 15.0234 13.1218 14.9974C12.816 14.9714 12.5951 14.756 12.6283 14.5164C12.702 13.9842 12.9569 13.6064 13.3166 13.3242C13.6265 13.0811 14.0024 12.9225 14.293 12.7999C14.3172 12.7897 14.3409 12.7797 14.3638 12.77C14.6925 12.6304 14.9041 12.5284 15.0474 12.3879C15.1702 12.2674 15.2803 12.0787 15.2586 11.7064C15.2446 11.4656 15.4823 11.2614 15.7895 11.2505Z" fill="white"/>
<path fill-rule="evenodd" clip-rule="evenodd" d="M11.3151 12.5C11.3533 12.3806 11.375 12.244 11.375 12.099C11.375 11.6301 11.1486 11.25 10.8694 11.25C10.4583 11.25 10.125 11.8096 10.125 12.5001C10.125 13.1906 10.4584 13.75 10.8694 13.75C11.1486 13.75 11.375 13.3699 11.375 12.901C11.375 12.756 11.3533 12.6194 11.3151 12.5Z" fill="white"/>
<path fill-rule="evenodd" clip-rule="evenodd" d="M10.125 12.099C10.125 11.6301 10.3514 11.25 10.6306 11.25C11.0415 11.25 11.375 11.8094 11.375 12.5001C11.375 13.1907 11.0414 13.75 10.6306 13.75C10.3514 13.75 10.125 13.3699 10.125 12.901C10.125 12.756 10.1467 12.6194 10.1849 12.5C10.1467 12.3806 10.125 12.244 10.125 12.099Z" fill="white"/>
<path fill-rule="evenodd" clip-rule="evenodd" d="M5.06515 6.25C5.10334 6.13057 5.125 5.99402 5.125 5.84897C5.125 5.3801 4.89864 5 4.61941 5C4.2083 5 3.875 5.55962 3.875 6.25C3.875 6.94038 4.2083 7.5 4.61941 7.5C4.89864 7.5 5.125 7.1199 5.125 6.65103C5.125 6.50598 5.10334 6.36943 5.06515 6.25Z" fill="white"/>
<path fill-rule="evenodd" clip-rule="evenodd" d="M3.875 5.84897C3.875 5.3801 4.32772 5 4.88617 5C5.70839 5 6.375 5.55962 6.375 6.25C6.375 6.94038 5.70839 7.5 4.88617 7.5C4.32772 7.5 3.875 7.1199 3.875 6.65103C3.875 6.50598 3.91833 6.36943 3.99471 6.25C3.91833 6.13057 3.875 5.99402 3.875 5.84897Z" fill="white"/>
<path fill-rule="evenodd" clip-rule="evenodd" d="M11.3151 16.875C11.3533 16.8153 11.375 16.747 11.375 16.6745C11.375 16.44 11.1486 16.25 10.8694 16.25C10.4583 16.25 10.125 16.5298 10.125 16.875C10.125 17.2201 10.4582 17.5 10.8694 17.5C11.1486 17.5 11.375 17.31 11.375 17.0755C11.375 17.003 11.3533 16.9347 11.3151 16.875Z" fill="white"/>
<path fill-rule="evenodd" clip-rule="evenodd" d="M11.375 16.6745C11.375 16.44 11.6014 16.25 11.8806 16.25C12.2917 16.25 12.625 16.5298 12.625 16.875C12.625 17.2201 12.2918 17.5 11.8806 17.5C11.6014 17.5 11.375 17.31 11.375 17.0755C11.375 17.003 11.3967 16.9347 11.4349 16.875C11.3967 16.8153 11.375 16.747 11.375 16.6745Z" fill="white"/>
</svg>
